<svg width="94" height="25" viewBox="0 0 94 25" fill="none" xmlns="http://www.w3.org/2000/svg">
<g clip-path="url(#clip0_1_4805)">
<g clip-path="url(#clip1_1_4805)">
<g clip-path="url(#clip2_1_4805)">
<path d="M80.2515 0.549927H12.2515C5.62405 0.549927 0.251465 5.92251 0.251465 12.5499C0.251465 19.1773 5.62405 24.5499 12.2515 24.5499H80.2515C86.8789 24.5499 92.2515 19.1773 92.2515 12.5499C92.2515 5.92251 86.8789 0.549927 80.2515 0.549927Z" fill="#FAE733"/>
<path fill-rule="evenodd" clip-rule="evenodd" d="M32.037 16.9066C32.2269 16.9066 32.4296 16.8823 32.6465 16.8352C32.8628 16.7874 33.0762 16.721 33.2874 16.6368C33.4987 16.5526 33.6985 16.4527 33.8891 16.3363C34.0789 16.22 34.2424 16.0937 34.3794 15.9567V13.9619H32.8913C32.132 13.9619 31.5781 14.0918 31.2299 14.3501C30.8816 14.6085 30.7074 15.0067 30.7074 15.5449C30.7074 15.9881 30.8209 16.3256 31.0479 16.5583C31.2748 16.7902 31.6046 16.9066 32.037 16.9066ZM29.4414 15.6084C29.4414 14.7534 29.7183 14.1096 30.2721 13.6771C30.8259 13.2446 31.641 13.0277 32.7179 13.0277H34.3794V12.3475C34.3794 11.6831 34.2366 11.2106 33.9519 10.9316C33.6671 10.6518 33.2453 10.5119 32.6858 10.5119C32.2954 10.5119 31.8943 10.5647 31.4825 10.6696C31.0714 10.7753 30.6967 10.9073 30.3592 11.0657L29.9638 10.1315C30.3849 9.88888 30.8366 9.70189 31.3169 9.56986C31.7965 9.43854 32.264 9.37217 32.7179 9.37217C33.7092 9.37217 34.4479 9.61482 34.9332 10.1001C35.4185 10.5854 35.6612 11.3562 35.6612 12.411V17.8565H34.6806L34.5221 16.938C34.1103 17.2755 33.6586 17.5339 33.169 17.7138C32.6779 17.8922 32.2212 17.9821 31.7994 17.9821C31.0607 17.9821 30.4833 17.7737 30.0666 17.3569C29.649 16.9408 29.4414 16.3577 29.4414 15.6084ZM43.2755 9.27725L44.3204 10.053L41.5827 13.4716L44.7479 17.2541L43.703 18.0777L40.0154 13.5351L43.2755 9.27725ZM39.4302 17.8558H38.1006V6.0164L39.4302 5.71594V17.8558ZM48.3092 16.9066C48.499 16.9066 48.7017 16.8823 48.9187 16.8352C49.1349 16.7874 49.3483 16.721 49.5596 16.6368C49.7708 16.5526 49.9706 16.4527 50.1612 16.3363C50.351 16.22 50.5145 16.0937 50.6515 15.9567V13.9619H49.1635C48.4034 13.9619 47.8496 14.0918 47.5006 14.3501C47.153 14.6085 46.9796 15.0067 46.9796 15.5449C46.9796 15.9881 47.0923 16.3256 47.3193 16.5583C47.5462 16.7902 47.8767 16.9066 48.3092 16.9066ZM45.7128 15.6084C45.7128 14.7534 45.9897 14.1096 46.5435 13.6771C47.0973 13.2446 47.9124 13.0277 48.9886 13.0277H50.6508V12.3475C50.6508 11.6831 50.5081 11.2106 50.2233 10.9316C49.9385 10.6518 49.5167 10.5119 48.9572 10.5119C48.5668 10.5119 48.1657 10.5647 47.7546 10.6696C47.3428 10.7753 46.9682 10.9073 46.6306 11.0657L46.2352 10.1315C46.6563 9.88888 47.108 9.70189 47.5883 9.56986C48.0687 9.43854 48.5354 9.37217 48.9886 9.37217C49.9806 9.37217 50.7193 9.61482 51.2046 10.1001C51.6899 10.5854 51.9326 11.3562 51.9326 12.411V17.8565H50.9513L50.7935 16.938C50.3817 17.2755 49.9307 17.5339 49.4404 17.7138C48.9494 17.8922 48.4926 17.9821 48.0708 17.9821C47.3321 17.9821 46.754 17.7737 46.338 17.3569C45.9212 16.9408 45.7128 16.3577 45.7128 15.6084ZM57.358 10.4641C56.6194 10.4641 56.0463 10.741 55.6409 11.2955C55.2341 11.8494 55.0314 12.6537 55.0314 13.7092C55.0314 14.7641 55.2341 15.5634 55.6409 16.1072C56.0463 16.6504 56.6187 16.9223 57.358 16.9223C58.096 16.9223 58.6691 16.6511 59.0752 16.1065C59.4813 15.5641 59.6847 14.7648 59.6847 13.7085C59.6847 12.6537 59.4813 11.8494 59.0752 11.2955C58.6684 10.741 58.096 10.4641 57.358 10.4641ZM57.358 9.37217C58.5185 9.37217 59.4256 9.744 60.0801 10.4877C60.7345 11.232 61.0614 12.3061 61.0614 13.7092C61.0614 15.1017 60.7367 16.1679 60.0879 16.9066C59.4385 17.6445 58.5292 18.0142 57.358 18.0142C56.1969 18.0142 55.2898 17.6445 54.6353 16.9066C53.9809 16.1679 53.654 15.1017 53.654 13.7092C53.654 12.3061 53.9837 11.232 54.6432 10.4877C55.3026 9.744 56.2076 9.37217 57.358 9.37217ZM66.2107 10.9708C66.0001 10.9708 65.7753 10.9994 65.5384 11.0579C65.3007 11.1157 65.0923 11.1871 64.9132 11.272V16.447C64.9867 16.4684 65.0952 16.4819 65.2372 16.4869C65.3799 16.4919 65.5248 16.4941 65.6725 16.4941C66.5061 16.4941 67.0942 16.2286 67.4375 15.6947C67.7801 15.1623 67.9521 14.4422 67.9521 13.5351C67.9521 13.1447 67.9257 12.7907 67.8728 12.4746C67.82 12.1577 67.728 11.8893 67.5959 11.6674C67.4639 11.4461 67.2876 11.2748 67.0657 11.1535C66.8444 11.0315 66.5589 10.9708 66.2107 10.9708ZM66.2585 18.0934C66.0372 18.0934 65.8231 18.0827 65.6176 18.0613C65.412 18.0399 65.1772 17.9928 64.9132 17.9186V21.0688H62.7921V9.51419H64.2958L64.5492 10.2108C64.8232 9.9367 65.148 9.70974 65.5227 9.53061C65.8966 9.35076 66.3691 9.26155 66.9393 9.26155C67.4875 9.26155 67.9599 9.35932 68.356 9.55416C68.7514 9.74971 69.0783 10.0323 69.3373 10.4013C69.5957 10.7703 69.7884 11.2185 69.9154 11.7466C70.041 12.2747 70.1046 12.8699 70.1046 13.5351C70.1046 14.2317 70.0096 14.859 69.8198 15.4185C69.6299 15.9781 69.3659 16.4548 69.0283 16.8509C68.6907 17.2463 68.2868 17.5525 67.8179 17.7687C67.3476 17.985 66.828 18.0934 66.2585 18.0934ZM74.1226 16.4313C74.4923 16.4313 74.8435 16.3627 75.1753 16.2257C75.5079 16.0887 75.7691 15.9352 75.9589 15.7668V14.136H74.8192C73.6587 14.136 73.0778 14.5692 73.0778 15.4342C73.0778 15.7404 73.1649 15.9831 73.3397 16.1622C73.5131 16.342 73.7751 16.4313 74.1226 16.4313ZM71.163 15.4499C71.163 14.5635 71.4556 13.8962 72.0415 13.448C72.6267 12.9998 73.4903 12.775 74.6293 12.775H75.9589V12.4895C75.9589 12.2583 75.9375 12.0528 75.8954 11.8729C75.8533 11.6938 75.7741 11.5432 75.6585 11.4219C75.5422 11.3005 75.3866 11.2078 75.191 11.145C74.9962 11.0814 74.74 11.05 74.4238 11.05C74.0334 11.05 73.6559 11.0921 73.2919 11.1764C72.9279 11.2613 72.5561 11.4033 72.1757 11.6046L71.5905 10.148C71.9915 9.87318 72.4683 9.65693 73.0228 9.49849C73.5767 9.34077 74.1283 9.26155 74.6772 9.26155C75.7534 9.26155 76.5656 9.52561 77.1144 10.053C77.6625 10.5811 77.9373 11.3876 77.9373 12.4746V17.8558H76.4493L76.2123 17.1435C75.7791 17.4811 75.3438 17.7216 74.9063 17.8643C74.4681 18.0064 74.0648 18.077 73.6958 18.077C72.8722 18.077 72.2449 17.8479 71.8117 17.389C71.3792 16.9301 71.163 16.2835 71.163 15.4499ZM84.5489 16.9851C84.1692 18.0406 83.7317 18.9349 83.2357 19.6686C82.7397 20.4015 82.1595 20.9846 81.4943 21.4171L80.1811 20.2145C80.6343 19.8234 81.009 19.4544 81.3045 19.1062C81.6 18.7579 81.869 18.3568 82.1117 17.9036L79.1677 9.78397L81.2731 9.21373L83.1722 15.7825L85.0564 9.19803L87.1446 9.79967L84.5489 16.9851ZM23.1573 5.71594L21.8291 6.01569V17.8558H23.1566L23.1573 5.71594ZM23.7433 13.5351L27.4316 18.077L28.4765 17.2534L25.3112 13.4709L28.049 10.0523L27.0041 9.27725L23.7433 13.5351Z" fill="#1C1C1C"/>
<path d="M7.71826 8.40244C8.77621 7.30263 10.2688 6.60363 11.9671 6.41273C12.4063 6.36332 13.2326 6.36248 13.6774 6.41093C17.2927 6.80474 19.7754 9.43109 19.2003 12.2532C18.9082 13.6864 17.9028 14.9084 16.3672 15.6969C15.2269 16.2823 14.1092 16.533 12.7032 16.5187L12.0203 16.5118L10.4062 17.6027C9.51845 18.2026 8.74135 18.7127 8.67923 18.7361C8.59149 18.7693 8.54229 18.7653 8.45847 18.7182C8.24109 18.5962 8.24501 18.5635 8.66476 16.9998C8.87837 16.2041 9.0477 15.5494 9.0411 15.5451L8.66932 15.3007C8.21719 15.0034 7.45624 14.2552 7.17031 13.8268C5.99916 12.0724 6.21169 9.96852 7.71826 8.40244Z" fill="#1C1C1C"/>
</g>
</g>
</g>
<defs>
<clipPath id="clip0_1_4805">
<rect width="93" height="24" fill="white" transform="translate(0.109863 0.549927)"/>
</clipPath>
<clipPath id="clip1_1_4805">
<rect width="93" height="24" fill="white" transform="translate(0.109863 0.549927)"/>
</clipPath>
<clipPath id="clip2_1_4805">
<rect width="93" height="24" fill="white" transform="translate(0.109863 0.549927)"/>
</clipPath>
</defs>
</svg>
