<svg width="40" height="25" viewBox="0 0 40 25" fill="none" xmlns="http://www.w3.org/2000/svg">
<g clip-path="url(#clip0_1_4685)">
<g clip-path="url(#clip1_1_4685)">
<g clip-path="url(#clip2_1_4685)">
<path d="M0.779785 2.4726C0.779785 1.41249 1.63917 0.553101 2.69929 0.553101H37.2503C38.3103 0.553101 39.1698 1.41249 39.1698 2.4726V22.6273C39.1698 23.6875 38.3103 24.5469 37.2503 24.5469H2.69929C1.63917 24.5469 0.779785 23.6875 0.779785 22.6273V2.4726Z" fill="white"/>
<path d="M0.779785 2.4726C0.779785 1.41249 1.63917 0.553101 2.69929 0.553101H37.2503C38.3103 0.553101 39.1698 1.41249 39.1698 2.4726V22.6273C39.1698 23.6875 38.3103 24.5469 37.2503 24.5469H2.69929C1.63917 24.5469 0.779785 23.6875 0.779785 22.6273V2.4726Z" fill="white"/>
<path d="M27.7739 9.79675H25.907C25.7815 9.79675 25.6726 9.88875 25.6474 10.0142L24.894 14.7894C24.8772 14.8814 24.9525 14.9651 25.0446 14.9651H25.9991C26.0912 14.9651 26.1666 14.8982 26.175 14.8145L26.3926 13.4597C26.4094 13.3343 26.5181 13.2423 26.6522 13.2423H27.2381C28.4688 13.2423 29.1723 12.6485 29.3563 11.4693C29.4401 10.9592 29.3563 10.5494 29.1219 10.2651C28.8707 9.95564 28.4018 9.79675 27.7739 9.79675ZM27.9918 11.5363C27.8913 12.2053 27.3804 12.2053 26.8866 12.2053H26.6018L26.8029 10.9592C26.8113 10.8839 26.8782 10.8254 26.9536 10.8254H27.0791C27.414 10.8254 27.7322 10.8254 27.8997 11.0177C27.9999 11.1348 28.0251 11.3021 27.9918 11.5363Z" fill="#009CDE"/>
<path d="M14.4874 9.79675H12.6204C12.4948 9.79675 12.3859 9.88875 12.3608 10.0142L11.6073 14.7894C11.5906 14.8814 11.6659 14.9651 11.758 14.9651H12.6455C12.7711 14.9651 12.8799 14.8731 12.905 14.7476L13.106 13.4597C13.1227 13.3343 13.2315 13.2423 13.3655 13.2423H13.9515C15.1823 13.2423 15.8855 12.6485 16.0697 11.4693C16.1534 10.9592 16.0697 10.5494 15.8353 10.2651C15.5841 9.95564 15.1153 9.79675 14.4874 9.79675ZM14.705 11.5363C14.6046 12.2053 14.0939 12.2053 13.5999 12.2053H13.3152L13.5162 10.9592C13.5246 10.8839 13.5915 10.8254 13.6669 10.8254H13.7925C14.1274 10.8254 14.4455 10.8254 14.6129 11.0177C14.7134 11.1348 14.7385 11.3021 14.705 11.5363ZM20.0549 11.5112H19.1591C19.0837 11.5112 19.0168 11.5697 19.0084 11.645L18.9665 11.8958L18.9079 11.8039C18.7154 11.5279 18.2884 11.4275 17.853 11.4275C16.8651 11.4275 16.0279 12.1718 15.8604 13.2172C15.7767 13.7357 15.8939 14.2375 16.1953 14.5887C16.4716 14.9065 16.8567 15.0403 17.3172 15.0403C18.1126 15.0403 18.5479 14.5302 18.5479 14.5302L18.5061 14.7811C18.4893 14.8731 18.5646 14.9567 18.6567 14.9567H19.4605C19.5861 14.9567 19.6949 14.8647 19.72 14.7393L20.2056 11.6868C20.2224 11.6031 20.1554 11.5112 20.0549 11.5112ZM18.8158 13.2507C18.7321 13.7608 18.3219 14.1037 17.8111 14.1037C17.5516 14.1037 17.3423 14.02 17.2084 13.8612C17.0744 13.7023 17.0242 13.4848 17.066 13.2339C17.1497 12.7321 17.56 12.3725 18.0623 12.3725C18.3135 12.3725 18.5228 12.4562 18.6567 12.6151C18.7991 12.7823 18.8577 12.9998 18.8158 13.2507Z" fill="#003087"/>
<path d="M33.3415 11.5113H32.4456C32.3702 11.5113 32.3033 11.5698 32.2949 11.6451L32.2531 11.8959L32.1946 11.804C32.0019 11.528 31.5748 11.4276 31.1396 11.4276C30.1518 11.4276 29.3144 12.1719 29.1469 13.2173C29.0632 13.7358 29.1805 14.2376 29.4819 14.5888C29.7583 14.9066 30.1434 15.0404 30.6038 15.0404C31.3992 15.0404 31.8345 14.5303 31.8345 14.5303L31.7927 14.7812C31.7759 14.8732 31.8513 14.9568 31.9434 14.9568H32.7472C32.8727 14.9568 32.9816 14.8648 33.0066 14.7394L33.4922 11.6869C33.509 11.6032 33.442 11.5113 33.3415 11.5113ZM32.1025 13.2508C32.0187 13.7609 31.6084 14.1038 31.0978 14.1038C30.8382 14.1038 30.6288 14.0201 30.4949 13.8613C30.361 13.7024 30.3109 13.4849 30.3526 13.234C30.4363 12.7322 30.8466 12.3726 31.3488 12.3726C31.6 12.3726 31.8093 12.4563 31.9434 12.6152C32.0857 12.7824 32.1442 12.9999 32.1025 13.2508Z" fill="#009CDE"/>
<path d="M24.8101 11.5112H23.9143C23.8306 11.5112 23.7469 11.5531 23.6966 11.6283L22.4575 13.4514L21.9301 11.7036C21.8966 11.5949 21.7961 11.5196 21.6789 11.5196H20.7998C20.691 11.5196 20.6156 11.6283 20.6491 11.7287L21.6371 14.6223L20.7078 15.9269C20.6324 16.0272 20.7078 16.1694 20.8333 16.1694H21.7292C21.8129 16.1694 21.8966 16.1276 21.9385 16.0607L24.919 11.7621C25.0111 11.6534 24.9358 11.5112 24.8101 11.5112Z" fill="#003087"/>
<path d="M34.396 9.92227L33.6342 14.7812C33.6174 14.8732 33.6927 14.9568 33.7849 14.9568H34.5551C34.6806 14.9568 34.7895 14.8648 34.8147 14.7393L35.5681 9.96409C35.5849 9.87209 35.5095 9.78845 35.4174 9.78845H34.5551C34.4713 9.79683 34.4044 9.847 34.396 9.92227Z" fill="#009CDE"/>
<path d="M9.56821 10.5033C9.6556 9.95006 9.56821 9.57151 9.26961 9.22936C8.93461 8.85081 8.33743 8.69067 7.57275 8.69067H5.35153C5.19859 8.69067 5.06022 8.80714 5.03838 8.96L4.10618 14.8275C4.08434 14.944 4.17902 15.0459 4.29554 15.0459H5.66469L5.57001 15.6428C5.55545 15.7447 5.63556 15.8321 5.73751 15.8321H6.89545C7.03382 15.8321 7.15036 15.7302 7.1722 15.5991L7.18676 15.5409L7.40525 14.1578L7.41981 14.085C7.44167 13.9466 7.55818 13.852 7.69656 13.852H7.87135C8.99287 13.852 9.86679 13.4007 10.1217 12.083C10.2309 11.5298 10.1727 11.0711 9.88865 10.7508C9.80126 10.6562 9.69202 10.5688 9.56821 10.5033Z" fill="#009CDE"/>
<path d="M9.42772 10.5239C9.51285 9.96433 9.42772 9.58151 9.1368 9.23548C8.81041 8.85263 8.22859 8.69067 7.48356 8.69067H5.31942C5.17042 8.69067 5.03562 8.80846 5.01431 8.96307L4.1061 14.8971C4.08482 15.0149 4.17705 15.118 4.29059 15.118H5.62454L5.95801 12.9093L5.95093 12.9755C5.97221 12.8209 6.09993 12.7031 6.25604 12.7031H6.89463C8.14343 12.7031 9.12262 12.1804 9.40642 10.6564L9.42772 10.5239Z" fill="#012169"/>
<path d="M6.32699 10.5312C6.34117 10.4355 6.39794 10.3619 6.47599 10.3177C6.51147 10.303 6.55404 10.2883 6.58953 10.2883H8.29243C8.4911 10.2883 8.68269 10.303 8.85298 10.3325C8.90264 10.3398 8.95231 10.3472 8.9949 10.3619C9.04457 10.3693 9.08713 10.384 9.1297 10.3987L9.19357 10.4208C9.2787 10.4503 9.35675 10.4871 9.42772 10.5239C9.51285 9.96433 9.42772 9.58151 9.1368 9.23548C8.81041 8.85263 8.22859 8.69067 7.48356 8.69067H5.31942C5.17042 8.69067 5.03562 8.80846 5.01431 8.96307L4.1061 14.8971C4.08482 15.0149 4.17705 15.118 4.29059 15.118H5.62454L5.95801 12.9093L6.32699 10.5312Z" fill="#003087"/>
<path fill-rule="evenodd" clip-rule="evenodd" d="M37.2503 1.03298H2.69929C1.9042 1.03298 1.25966 1.67752 1.25966 2.4726V22.6273C1.25966 23.4224 1.9042 24.067 2.69929 24.067H37.2503C38.0454 24.067 38.6899 23.4224 38.6899 22.6273V2.4726C38.6899 1.67752 38.0454 1.03298 37.2503 1.03298ZM2.69929 0.553101C1.63917 0.553101 0.779785 1.41249 0.779785 2.4726V22.6273C0.779785 23.6875 1.63917 24.5469 2.69929 24.5469H37.2503C38.3103 24.5469 39.1698 23.6875 39.1698 22.6273V2.4726C39.1698 1.41249 38.3103 0.553101 37.2503 0.553101H2.69929Z" fill="#DDDDD8"/>
</g>
</g>
</g>
<defs>
<clipPath id="clip0_1_4685">
<rect width="38.39" height="24" fill="white" transform="translate(0.779785 0.549927)"/>
</clipPath>
<clipPath id="clip1_1_4685">
<rect width="38.39" height="24" fill="white" transform="translate(0.779785 0.549927)"/>
</clipPath>
<clipPath id="clip2_1_4685">
<rect width="38.39" height="23.9937" fill="white" transform="translate(0.779785 0.553101)"/>
</clipPath>
</defs>
</svg>
