<svg width="78" height="25" viewBox="0 0 78 25" fill="none" xmlns="http://www.w3.org/2000/svg">
<g clip-path="url(#clip0_1_4822)">
<g clip-path="url(#clip1_1_4822)">
<g clip-path="url(#clip2_1_4822)">
<path fill-rule="evenodd" clip-rule="evenodd" d="M68.8705 18.8879C68.8726 18.8618 68.9029 18.8483 68.9236 18.8643C68.9311 18.8701 68.9383 18.8758 68.9455 18.8813C68.9892 18.915 69.0264 18.9438 69.0631 18.9734C69.8737 19.6249 70.7935 20.0384 71.8292 20.1702C72.5177 20.2579 73.2064 20.2446 73.8625 19.9741C74.594 19.6721 74.9602 19.1002 75.0269 18.3386C75.0516 18.0569 75.052 17.7729 75.0526 17.489V17.4879C75.0527 17.3674 75.0529 17.2469 75.055 17.1266C75.0554 17.1041 75.0521 17.0817 75.0483 17.0556C75.0477 17.0511 75.0469 17.046 75.0463 17.0413C75.0443 17.0275 75.0292 17.0192 75.0163 17.0245C75.0029 17.0301 74.993 17.0342 74.9867 17.0412C74.5263 17.5619 73.9241 17.831 73.258 17.962C72.175 18.1751 71.125 18.0597 70.1434 17.5438C69.0931 16.9918 68.4874 16.0941 68.1963 14.9721C68.0822 14.5315 68.0317 14.0819 68.0317 13.6266C68.032 11.6303 68.032 9.63392 68.032 7.63754C68.032 7.46354 68.0321 7.46315 68.2123 7.46315C68.4026 7.46309 68.5929 7.46333 68.7832 7.46357C69.2874 7.46421 69.7917 7.46485 70.2959 7.46001C70.4359 7.45864 70.468 7.50042 70.4676 7.63538C70.4669 7.98518 70.466 8.33499 70.4651 8.68479V8.68629C70.4608 10.3639 70.4566 12.0416 70.4712 13.719C70.4791 14.6516 71.0381 15.5936 72.2241 15.7979C72.9102 15.9161 73.5635 15.8084 74.1277 15.3703C74.5538 15.0392 74.7681 14.5862 74.837 14.0645C74.8639 13.8606 74.8663 13.6525 74.8667 13.4462C74.8682 11.9417 74.8681 10.4372 74.868 8.93267L74.8679 7.64578C74.8679 7.46354 74.8681 7.46315 75.0534 7.46315C75.2414 7.46309 75.4293 7.46319 75.6172 7.46329C76.1059 7.46354 76.5942 7.46379 77.0824 7.46138C77.1867 7.46099 77.2227 7.48982 77.2219 7.59929C77.2212 8.75274 77.2219 9.90624 77.2219 11.0597C77.2227 13.4853 77.2242 15.911 77.2122 18.3365C77.2069 19.3161 76.9137 20.222 76.2387 20.9727C75.6733 21.6011 74.954 21.9714 74.144 22.1838C73.6649 22.3094 73.1764 22.3649 72.6815 22.3873C71.3074 22.4492 70.0797 22.0706 69.0022 21.2189C68.9048 21.1422 68.8624 21.061 68.8634 20.9348C68.868 20.4591 68.8675 19.9833 68.8671 19.5074V19.5058C68.8669 19.3212 68.8667 19.1366 68.8668 18.9521C68.8668 18.9331 68.8684 18.9142 68.8705 18.8879ZM42.5334 13.4129L42.4734 13.8772C42.331 14.9842 41.8567 15.9344 41.0799 16.7361C40.289 17.5522 39.3294 18.062 38.2009 18.2491C36.3905 18.5498 34.2974 17.8139 33.2365 16.17C33.1228 15.9938 33.0365 15.8001 32.9503 15.6065C32.9119 15.5202 32.8735 15.434 32.8327 15.3492C32.7982 15.278 32.8109 15.2195 32.8667 15.1553C33.0247 14.9734 33.1776 14.7873 33.3304 14.6012L33.4388 14.4695C33.4512 14.4544 33.4603 14.4365 33.4726 14.4121C33.4822 14.3931 33.5092 14.3951 33.5162 14.4151C33.5328 14.4619 33.5479 14.5062 33.5624 14.5485C33.6004 14.6594 33.6337 14.7569 33.6757 14.8504C34.2766 16.1921 35.3097 17.0033 36.7674 17.2501C38.8775 17.6069 40.8955 16.1982 41.3767 14.2022C41.452 13.8908 41.4865 13.565 41.4985 13.2444C41.5146 12.8276 41.5036 12.4084 41.4791 11.9917C41.4322 11.1978 41.1385 10.4895 40.6506 9.86432C39.9381 8.95097 39.0022 8.39349 37.8424 8.26044C36.6895 8.12829 35.6668 8.47509 34.7749 9.20109C33.8453 9.95747 33.042 10.8379 32.2707 11.7471C32.0287 12.0322 31.794 12.3233 31.5593 12.6143L31.5587 12.6151C31.4453 12.7558 31.3318 12.8964 31.2176 13.0364C31.2038 13.0534 31.189 13.0693 31.1698 13.0898L31.149 13.112C31.1436 13.1179 31.1338 13.1144 31.1333 13.1065C31.1326 13.0952 31.1318 13.085 31.1311 13.0756C31.1294 13.0523 31.1281 13.0336 31.1281 13.0155L31.1278 12.7554C31.1274 12.4195 31.127 12.0835 31.1305 11.7476C31.1311 11.6896 31.1491 11.6204 31.1839 11.5754C31.8001 10.7855 32.4388 10.0144 33.1566 9.31097C33.6875 8.79092 34.2636 8.32524 34.8933 7.92837C35.4715 7.5639 36.1105 7.35714 36.7879 7.26907C39.4765 6.91911 41.8193 8.80269 42.3714 11.1135C42.4148 11.2948 42.439 11.4806 42.4633 11.6666L42.4633 11.6674C42.475 11.7568 42.4867 11.8467 42.5005 11.9356C42.5072 11.9785 42.5152 12.0212 42.5233 12.0639C42.5299 12.0996 42.5334 12.1361 42.5334 12.1724V13.4129ZM49.978 11.8694C49.8806 11.8685 49.7832 11.8675 49.6859 11.8675C49.577 11.8675 49.4681 11.8673 49.3593 11.867C49.0735 11.8664 48.7879 11.8658 48.5021 11.8694C48.3918 11.8709 48.353 11.8388 48.3534 11.7247C48.3565 10.3229 48.3564 8.92097 48.3536 7.51915C48.3534 7.42067 48.3837 7.38321 48.4841 7.3836C48.7647 7.3843 49.0453 7.3838 49.3259 7.38331C49.8345 7.38242 50.3431 7.38152 50.8516 7.38772C51.2184 7.39223 51.5802 7.44638 51.9267 7.5831C52.4818 7.80221 52.8507 8.19084 53.0178 8.75657C53.1899 9.33954 53.1863 9.92724 52.9893 10.5041C52.743 11.2255 52.2081 11.6315 51.4738 11.7839C51.2057 11.8394 50.9269 11.8532 50.6518 11.8643C50.4276 11.8736 50.2028 11.8715 49.978 11.8694ZM48.1924 18.111C48.2824 18.111 48.3553 18.038 48.3553 17.948V17.9372V14.2007C48.3553 14.0224 48.3558 14.0214 48.5344 14.0212L48.9922 14.021C49.6022 14.0208 50.2122 14.0206 50.8222 14.0214C51.3136 14.0219 51.799 13.9724 52.2746 13.849C53.6818 13.4829 54.6929 12.6683 55.1797 11.2849C55.5032 10.3651 55.5236 9.41919 55.3388 8.46894C55.1933 7.72041 54.8725 7.05326 54.3287 6.50518C53.4616 5.63166 52.3654 5.2715 51.1689 5.24306C50.0084 5.21557 48.8472 5.22102 47.686 5.22647C47.1902 5.22881 46.6945 5.23113 46.1989 5.2309C46.0215 5.2307 46.0209 5.23129 46.0209 5.40863C46.0207 6.76647 46.0207 8.12454 46.0207 9.48234L46.0207 10.8358V10.8427C46.0208 13.2085 46.021 15.5744 46.0181 17.9402C46.0181 18.0719 46.0472 18.1165 46.1908 18.1149C46.6855 18.1087 47.1804 18.1095 47.6752 18.1104C47.8476 18.1107 48.02 18.111 48.1924 18.111ZM64.2298 12.3935C64.2189 12.1315 64.2079 11.8695 64.1611 11.6138C63.9945 10.7081 63.4804 10.0602 62.5981 9.73187C62.0461 9.52644 61.4752 9.51077 60.8982 9.61142C59.8269 9.79877 59.0015 10.6301 58.8408 11.6925C58.7509 12.2863 58.7528 12.8852 58.816 13.4789C58.9216 14.47 59.4295 15.2005 60.3459 15.6279C60.917 15.8941 61.5206 15.9191 62.1404 15.8354C63.1173 15.704 63.8478 15.0849 64.1121 14.1446C64.2158 13.776 64.2272 13.4017 64.2387 13.0252C64.2415 12.9343 64.2443 12.8432 64.2484 12.7522C64.2399 12.6332 64.2349 12.5132 64.2298 12.3935ZM64.225 17.2511C64.2242 17.164 64.1158 17.1196 64.0511 17.1779C63.5522 17.6273 62.9681 17.885 62.3149 18.0137C61.7729 18.1206 61.2268 18.1135 60.6794 18.0574C60.0145 17.989 59.3815 17.8148 58.7948 17.4946C57.7047 16.9001 57.0397 15.9783 56.7064 14.8062C56.5594 14.2893 56.4932 13.7599 56.4912 13.2245C56.4909 13.1438 56.4904 13.0631 56.4898 12.9824C56.4867 12.5463 56.4836 12.1087 56.5207 11.6756C56.6914 9.68102 57.83 8.02149 60.0505 7.4999C61.2111 7.22703 62.3751 7.25077 63.5065 7.63996C65.0317 8.16489 65.9623 9.24144 66.3557 10.7831C66.4714 11.237 66.5239 11.6996 66.5234 12.1684C66.5224 13.4505 66.5225 14.7326 66.5226 16.0147V16.0955L66.5227 17.7924C66.5227 17.9825 66.5224 17.9827 66.3301 17.9828C66.1614 17.9828 65.9926 17.9827 65.8238 17.9825C65.3436 17.982 64.8634 17.9816 64.3834 17.985C64.2638 17.9858 64.2151 17.9594 64.2205 17.8285C64.2281 17.6364 64.2265 17.4435 64.225 17.2511ZM7.08555 12.0301C7.08768 12.0592 7.11189 12.0819 7.14109 12.0819H11.3071C11.3368 12.0819 11.3617 12.1045 11.3653 12.1339C11.3691 12.166 11.3725 12.195 11.3725 12.2241L11.3727 12.4488C11.3734 13.6867 11.3743 14.9247 11.3692 16.1627C11.3688 16.2335 11.3294 16.3251 11.2763 16.3704C11.0983 16.5224 10.9149 16.6723 10.7169 16.7973C9.99217 17.2547 9.186 17.4785 8.33947 17.5748C7.61983 17.6569 6.90101 17.6717 6.18833 17.5213C4.42553 17.1494 3.13561 16.1621 2.32431 14.5712C1.95381 13.8448 1.77955 13.0667 1.74648 12.2514C1.72054 11.6097 1.75302 10.9777 1.93222 10.359C2.28609 9.13749 2.99403 8.15312 4.00731 7.38535C5.07584 6.57578 6.28417 6.13756 7.63429 6.12049C8.08598 6.115 8.53927 6.13893 8.98995 6.17424C9.61237 6.22328 10.2127 6.37099 10.7783 6.6415C10.8531 6.67718 10.9268 6.71482 11.0068 6.75563C11.0584 6.782 11.1194 6.74447 11.119 6.68647C11.1187 6.63233 11.1182 6.57866 11.1177 6.5254C11.1156 6.3008 11.1135 6.08327 11.1238 5.86646C11.1307 5.7209 11.0747 5.66461 10.9474 5.61773C10.3228 5.38742 9.67627 5.26698 9.01447 5.21579C8.34045 5.16341 7.66736 5.13732 6.9921 5.21147C6.0713 5.3123 5.20039 5.57162 4.38612 6.00495C2.85006 6.82197 1.72232 8.01014 1.10112 9.63714C0.628838 10.8743 0.601907 12.1547 0.87399 13.4295C1.33637 15.5954 2.60768 17.1518 4.63503 18.0827C5.79149 18.614 7.01745 18.7268 8.27572 18.5916C9.01507 18.512 9.729 18.3411 10.408 18.0406C11.1276 17.7222 11.7817 17.3083 12.2995 16.7086C12.347 16.6535 12.3795 16.5656 12.3797 16.4928C12.3821 15.5196 12.3826 14.5465 12.3832 13.5732C12.3836 12.7885 12.3841 12.0035 12.3854 11.2186C12.3856 11.0997 12.3496 11.0656 12.2302 11.0672C11.8651 11.0716 11.4999 11.0709 11.1347 11.0702C11.0006 11.0699 10.8664 11.0697 10.7323 11.0697H7.27369C7.08003 11.0697 7.08003 11.0699 7.08003 11.2549L7.07994 11.3392C7.07975 11.5357 7.07955 11.7327 7.08042 11.9293C7.08056 11.9617 7.08293 11.9942 7.08555 12.0301ZM26.7822 17.0064C26.8068 16.9983 26.8321 17.0166 26.8321 17.0425C26.8321 17.1017 26.8323 17.1603 26.8324 17.2185C26.8331 17.4626 26.8337 17.699 26.8275 17.9352C26.8265 17.9709 26.7665 18.0251 26.7245 18.0365C26.6395 18.0596 26.5545 18.0851 26.4694 18.1105C26.2372 18.1799 26.0046 18.2495 25.7673 18.2746C24.4364 18.4154 23.2326 18.0662 22.1742 17.2598C21.0601 16.4112 20.3716 15.2943 20.1916 13.9109C20.1235 13.3866 20.1352 12.8498 20.1469 12.3172C20.1483 12.2517 20.1497 12.1864 20.151 12.1211C20.1742 10.9244 20.6158 9.88014 21.4047 8.98254C22.1902 8.08884 23.172 7.5064 24.3528 7.30298C25.9531 7.02756 27.3844 7.42303 28.6143 8.47622C29.5657 9.29072 30.1355 10.3271 30.3387 11.5562C30.3771 11.7898 30.3961 12.0293 30.3965 12.2663C30.4 13.7894 30.3997 15.3124 30.3994 16.8355L30.3993 18.1206C30.3993 18.2201 30.3185 18.3009 30.219 18.3009H29.5725C29.4662 18.3009 29.38 18.2147 29.38 18.1085C29.38 17.5121 29.3812 16.9158 29.3824 16.3196C29.3852 14.9644 29.388 13.6093 29.3764 12.2541C29.359 10.2029 27.8628 8.63417 26.0275 8.29457C23.8078 7.88381 21.6726 9.38724 21.232 11.537C21.188 11.7512 21.1607 11.9724 21.1579 12.1908C21.1565 12.2994 21.1537 12.4082 21.151 12.5171C21.139 12.983 21.1272 13.4501 21.2209 13.9109C21.5259 15.4097 22.408 16.4474 23.8265 17.0266C24.7683 17.4113 25.7263 17.3815 26.6792 17.0413C26.7115 17.0297 26.7441 17.019 26.7822 17.0064ZM10.5781 13.0082C10.5781 12.929 10.5139 12.8648 10.4347 12.8648H7.33417C7.1949 12.8648 7.0822 12.9777 7.08319 13.117C7.08462 13.3171 7.08602 13.5136 7.07903 13.7097C7.07448 13.837 7.11725 13.8666 7.23943 13.8661C7.58499 13.8637 7.93059 13.8638 8.27625 13.8638C8.67037 13.8638 9.0645 13.8639 9.4587 13.8604C9.59985 13.859 9.6369 13.9059 9.63472 14.0379C9.62819 14.4605 9.62992 14.8832 9.6339 15.3057C9.63472 15.401 9.60082 15.4517 9.50992 15.4844C8.6133 15.8075 7.68933 15.9387 6.74576 15.7914C5.40911 15.5827 4.46573 14.8351 3.89106 13.6297C3.60215 13.0238 3.53541 12.3762 3.54849 11.7128C3.56017 11.1401 3.68037 10.5956 3.96631 10.1011C4.79088 8.67459 6.06714 7.97448 7.70181 7.90544C8.16519 7.88601 8.63452 7.93349 9.0975 7.98292C9.78854 8.05689 10.4286 8.28287 10.9896 8.70264C11.0133 8.72034 11.0382 8.73654 11.0677 8.75582C11.0905 8.77074 11.1213 8.75439 11.1213 8.72702C11.1214 8.65907 11.1214 8.59187 11.1216 8.52542C11.122 8.23719 11.1225 7.96113 11.1175 7.68554C11.1169 7.64513 11.0725 7.58804 11.0333 7.56881C10.851 7.47937 10.6662 7.39286 10.4767 7.3193C9.80385 7.0584 9.10125 6.94973 8.3826 6.905C7.53606 6.85223 6.70714 6.91991 5.90871 7.21514C4.58196 7.70594 3.57462 8.55729 2.95382 9.83117C2.61521 10.5256 2.51679 11.2647 2.52986 12.0299C2.54352 12.8207 2.69916 13.5753 3.08095 14.269C3.95364 15.8542 5.30316 16.73 7.12735 16.8493C7.74795 16.8897 8.36835 16.8244 8.97667 16.6886C9.51472 16.5682 10.0279 16.3844 10.47 16.0406C10.5482 15.9795 10.5808 15.9148 10.5805 15.8135C10.5774 15.0864 10.5777 14.3592 10.5779 13.6319L10.5781 13.0082ZM34.983 12.8946C35.0165 13.0574 35.0475 13.2073 35.0897 13.3537C35.2622 13.9511 35.5606 14.4763 36.0115 14.9165C36.9618 15.8445 38.2927 15.5864 39.0341 14.8357C39.4438 14.421 39.67 13.9215 39.6802 13.3382C39.6818 13.2546 39.6838 13.171 39.6859 13.0874C39.6946 12.7306 39.7033 12.3729 39.6706 12.0195C39.5833 11.0793 38.8668 10.2945 37.9359 10.0848C37.1163 9.90039 36.4024 10.1252 35.7875 10.6741C34.9697 11.4044 34.2586 12.2348 33.5521 13.0667C32.9878 13.7307 32.4358 14.405 31.8838 15.0793C31.6501 15.3647 31.4163 15.6503 31.1817 15.935L31.1783 15.9393C31.1752 15.9434 31.1719 15.9476 31.1668 15.9515C31.1522 15.9628 31.1338 15.9478 31.1318 15.9295C31.1293 15.905 31.1266 15.8807 31.1266 15.8563C31.1266 15.7652 31.1263 15.6741 31.126 15.583C31.1251 15.238 31.1242 14.8931 31.1299 14.5481C31.1311 14.4741 31.1591 14.388 31.2039 14.3292C31.9318 13.3685 32.7232 12.4599 33.544 11.5772L33.5578 11.5624C34.0017 11.0847 34.4462 10.6064 34.9156 10.154C35.4523 9.63654 36.0743 9.23739 36.8175 9.07982C37.7026 8.89247 38.5203 9.09159 39.2547 9.60317C40.0104 10.1297 40.489 10.8447 40.6607 11.7498C40.6906 11.9075 40.7031 12.071 40.702 12.2316C40.7012 12.3543 40.702 12.4773 40.7028 12.6003C40.705 12.963 40.7074 13.3264 40.668 13.6848C40.5278 14.9547 39.5623 16.0391 38.3001 16.3952C36.9184 16.7849 35.5105 16.2349 34.6958 14.9885C34.4475 14.6081 34.2679 14.1981 34.1641 13.7579C34.1495 13.6955 34.1707 13.6046 34.2105 13.5537C34.3594 13.3629 34.5142 13.1764 34.6688 12.9899C34.7359 12.9091 34.8031 12.8279 34.8697 12.7467C34.8823 12.7315 34.8921 12.714 34.9052 12.6906C34.9142 12.6748 34.9375 12.6784 34.9414 12.6962C34.9562 12.7648 34.9698 12.8307 34.983 12.8946ZM26.8357 15.2751V15.2733C26.8354 15.2072 26.8352 15.1402 26.8351 15.0724C26.8351 15.0491 26.8092 15.0351 26.7897 15.0479C26.7531 15.0719 26.7258 15.0899 26.6981 15.1072C26.1551 15.4457 25.5604 15.5774 24.9299 15.4881C23.7786 15.3251 22.9683 14.3788 22.9683 13.2269C22.9683 13.1321 22.9676 13.0373 22.9669 12.9425C22.9652 12.7181 22.9635 12.4935 22.9713 12.2695C22.9776 12.0872 22.9969 11.9012 23.0414 11.7245C23.3156 10.6334 24.3178 10.0081 25.265 10.0247C26.0735 10.0391 26.709 10.3598 27.1739 11.0089C27.4699 11.4221 27.5781 11.895 27.5781 12.3954C27.5785 13.4 27.5785 14.4046 27.5784 15.4091L27.5783 16.6164C27.5783 16.7536 27.5785 16.8908 27.5786 17.0279C27.5791 17.4077 27.5797 17.7875 27.5763 18.1673C27.5753 18.2754 27.6032 18.3191 27.7207 18.3146C27.8786 18.3086 28.037 18.3098 28.1953 18.311C28.2639 18.3116 28.3327 18.3122 28.4013 18.3121C28.5878 18.3121 28.5882 18.3121 28.5882 18.1307L28.5885 16.9731C28.5889 15.4304 28.5892 13.8878 28.5856 12.3454C28.585 12.1176 28.5674 11.8868 28.525 11.6633C28.0567 9.19674 25.129 8.21964 23.2364 9.72677C22.3893 10.4018 21.9409 11.2793 21.9501 12.3697C21.9525 12.6575 21.952 12.9452 21.9501 13.2328C21.9461 13.8223 22.1045 14.368 22.4063 14.8727C23.1214 16.0691 24.4372 16.6861 25.8277 16.4741C26.1468 16.4254 26.4557 16.3336 26.7266 16.1501C26.7733 16.1188 26.8291 16.0592 26.8306 16.0111C26.8372 15.7694 26.8365 15.5275 26.8357 15.2751ZM21.0698 7.78969C21.1792 7.84823 21.2051 7.99555 21.1207 8.08652L20.767 8.46767C20.6566 8.58654 20.4856 8.62644 20.3359 8.56404C20.1585 8.49017 19.982 8.41659 19.798 8.37519C18.1843 8.0131 16.7455 8.31557 15.5851 9.54549C15.0673 10.0944 14.779 10.7686 14.6678 11.5082C14.6152 11.8569 14.5951 12.2135 14.5938 12.5669C14.5887 13.9181 14.5894 15.2694 14.59 16.6208C14.5903 17.1214 14.5905 17.6221 14.5904 18.1228C14.5904 18.3128 14.5902 18.3128 14.3987 18.3131C14.3313 18.3131 14.2638 18.3127 14.1964 18.3123C14.0324 18.3115 13.8683 18.3107 13.7044 18.3148C13.6076 18.3173 13.5712 18.2819 13.5805 18.1903C13.5821 18.1753 13.5817 18.16 13.5811 18.1447C13.5809 18.1374 13.5807 18.1301 13.5807 18.1228L13.5809 16.4699C13.5811 15.0925 13.5814 13.715 13.5801 12.3375C13.5791 11.2261 13.855 10.1956 14.5066 9.28187C15.277 8.20119 16.3402 7.56644 17.6437 7.32201C18.6572 7.13193 19.6546 7.19471 20.62 7.57114C20.773 7.63082 20.9186 7.70876 21.0698 7.78969ZM19.5062 10.1321C19.6177 10.1615 19.7333 10.1079 19.7854 10.005L20.0916 9.40052C20.1168 9.35079 20.095 9.28974 20.0446 9.26597C19.978 9.23469 19.9116 9.20357 19.8422 9.18204C19.2525 8.99784 18.6517 8.96177 18.0438 9.07044C16.5257 9.34217 15.4102 10.5917 15.3925 12.1936C15.3767 13.5935 15.3804 14.9938 15.3841 16.394C15.3856 16.9811 15.3872 17.5684 15.3873 18.1553C15.3873 18.1869 15.3895 18.2186 15.3916 18.2498C15.3934 18.2762 15.4154 18.297 15.4419 18.297H16.2193C16.3217 18.297 16.4047 18.214 16.4047 18.1116L16.4047 16.6447C16.4045 15.1778 16.4044 13.7109 16.4056 12.244C16.4057 11.8607 16.4925 11.4947 16.6768 11.157C17.1823 10.2317 18.1208 9.92942 19.0911 10.043C19.2308 10.0593 19.3682 10.0957 19.5062 10.1321ZM32.1983 3.23085C32.1983 2.94785 32.4277 2.71841 32.7108 2.71841H33.167C33.1861 2.71841 33.2018 2.73347 33.2029 2.75255C33.2034 2.76003 33.2038 2.7674 33.2043 2.77469C33.2062 2.80699 33.2081 2.83763 33.2081 2.86829L33.2083 4.34141C33.2083 5.56785 33.2083 6.79433 33.2099 8.02072C33.2101 8.10819 33.1823 8.16647 33.1193 8.22999C32.917 8.43347 32.7193 8.64137 32.5216 8.84927C32.4519 8.92262 32.3821 8.99604 32.3121 9.06924C32.2914 9.09107 32.2713 9.11349 32.2473 9.14034C32.2301 9.15947 32.1983 9.14769 32.1983 9.12197V3.23085ZM34.0049 7.51323V7.53558C34.0049 7.59814 34.075 7.63509 34.1266 7.59974C34.198 7.55109 34.2692 7.50191 34.3403 7.45274C34.5222 7.32701 34.7041 7.20126 34.8916 7.08422C34.9858 7.02537 35.018 6.96456 35.0176 6.85883C35.0154 6.08417 35.0156 5.30963 35.0159 4.53512C35.016 4.28898 35.0161 4.04285 35.0161 3.79672C35.0161 3.49993 35.0161 3.20313 35.0158 2.90633C35.0158 2.70625 35.0157 2.70625 34.8204 2.70605H34.1932C34.0055 2.70625 34.0051 2.70625 34.0051 2.88652C34.0049 4.42876 34.0049 5.971 34.0049 7.51323Z" fill="#00B041"/>
</g>
</g>
</g>
<defs>
<clipPath id="clip0_1_4822">
<rect width="77.25" height="24" fill="white" transform="translate(0.700195 0.549927)"/>
</clipPath>
<clipPath id="clip1_1_4822">
<rect width="77.25" height="24" fill="white" transform="translate(0.700195 0.549927)"/>
</clipPath>
<clipPath id="clip2_1_4822">
<rect width="77.25" height="24" fill="white" transform="translate(0.700195 0.549927)"/>
</clipPath>
</defs>
</svg>
