<svg width="35" height="23" viewBox="0 0 35 23" fill="none" xmlns="http://www.w3.org/2000/svg">
<g clip-path="url(#clip0_1_442)">
<g clip-path="url(#clip1_1_442)">
<g clip-path="url(#clip2_1_442)">
<path d="M33.25 1.03223H1.75C0.783502 1.03223 0 1.81573 0 2.78223V21.1572C0 22.1237 0.783502 22.9072 1.75 22.9072H33.25C34.2165 22.9072 35 22.1237 35 21.1572V2.78223C35 1.81573 34.2165 1.03223 33.25 1.03223Z" fill="white"/>
<path d="M8.75 3.21973V11.9424V20.7197H17.4997H26.25V11.97V3.21973H17.5031H8.75Z" fill="white"/>
<path d="M23.1291 7.51307L23.6891 5.99057H26.25V3.21973H8.75V20.7197H26.25V17.9547H23.835L22.9425 16.9106L22.015 17.9547H15.155V12.3956H12.8917L15.7208 5.99057H18.4741L19.1392 7.44307V5.99057H22.5575L23.1291 7.51307ZM21.1983 8.52223L21.1925 7.90973L21.4258 8.52223L22.5634 11.5614H23.695L24.8384 8.52223L25.06 7.91557V11.5614H26.25V6.89473H24.2725L23.3741 9.26309L23.135 9.90473L22.89 9.26309L21.9859 6.89473H20.0083V11.5614H21.1983V8.52223ZM18.6375 11.5614H20.0083L17.955 6.89473H16.3625L14.2975 11.5614H15.6508L16.0125 10.6631H18.2758L18.6375 11.5614ZM16.9109 8.47559L17.1442 7.89223L17.3775 8.47559L17.8617 9.65389H16.4267L16.9109 8.47559ZM16.1116 12.4014V17.0506H20.0083V16.0414H17.3017V15.2306H19.9558V14.2272H17.3017V13.4106H20.0083V12.4014H16.1116ZM24.3425 17.0506H25.8884L23.7066 14.7172L25.8884 12.4014H24.3659L22.96 13.9122L21.56 12.4014H20.0083L22.1841 14.7347L20.0083 17.0506H21.5133L22.9309 15.5339L24.3425 17.0506ZM24.9316 14.7114L26.25 16.0531V13.3872L24.9316 14.7114Z" fill="#006FCF"/>
<path fill-rule="evenodd" clip-rule="evenodd" d="M33.25 1.46973H1.75C1.02513 1.46973 0.4375 2.05735 0.4375 2.78223V21.1572C0.4375 21.8821 1.02513 22.4697 1.75 22.4697H33.25C33.9749 22.4697 34.5625 21.8821 34.5625 21.1572V2.78223C34.5625 2.05735 33.9749 1.46973 33.25 1.46973ZM1.75 1.03223C0.783501 1.03223 0 1.81573 0 2.78223V21.1572C0 22.1237 0.783501 22.9072 1.75 22.9072H33.25C34.2164 22.9072 35 22.1237 35 21.1572V2.78223C35 1.81573 34.2164 1.03223 33.25 1.03223H1.75Z" fill="#DDDDD8"/>
</g>
</g>
</g>
<defs>
<clipPath id="clip0_1_442">
<rect y="0.969727" width="35" height="22" rx="5" fill="white"/>
</clipPath>
<clipPath id="clip1_1_442">
<rect width="35" height="22" fill="white" transform="translate(0 0.969727)"/>
</clipPath>
<clipPath id="clip2_1_442">
<rect width="35" height="21.875" fill="white" transform="translate(0 1.03223)"/>
</clipPath>
</defs>
</svg>
