<svg width="35" height="23" viewBox="0 0 35 23" fill="none" xmlns="http://www.w3.org/2000/svg">
<g clip-path="url(#clip0_1_5129)">
<g clip-path="url(#clip1_1_5129)">
<g clip-path="url(#clip2_1_5129)">
<path d="M33.25 0.472656H1.75C0.783502 0.472656 0 1.25616 0 2.22266V20.5977C0 21.5642 0.783502 22.3477 1.75 22.3477H33.25C34.2165 22.3477 35 21.5642 35 20.5977V2.22266C35 1.25616 34.2165 0.472656 33.25 0.472656Z" fill="white"/>
<path d="M8.75 2.66016V11.3828V20.1602H17.4997H26.25V11.4104V2.66016H17.5031H8.75Z" fill="white"/>
<path d="M23.1291 6.9535L23.6891 5.431H26.25V2.66016H8.75V20.1602H26.25V17.3952H23.835L22.9425 16.351L22.015 17.3952H15.155V11.836H12.8917L15.7208 5.431H18.4741L19.1392 6.8835V5.431H22.5575L23.1291 6.9535ZM21.1983 7.96266L21.1925 7.35016L21.4258 7.96266L22.5634 11.0018H23.695L24.8384 7.96266L25.06 7.356V11.0018H26.25V6.33516H24.2725L23.3741 8.70352L23.135 9.34516L22.89 8.70352L21.9859 6.33516H20.0083V11.0018H21.1983V7.96266ZM18.6375 11.0018H20.0083L17.955 6.33516H16.3625L14.2975 11.0018H15.6508L16.0125 10.1035H18.2758L18.6375 11.0018ZM16.9109 7.91602L17.1442 7.33266L17.3775 7.91602L17.8617 9.09432H16.4267L16.9109 7.91602ZM16.1116 11.8418V16.491H20.0083V15.4818H17.3017V14.671H19.9558V13.6677H17.3017V12.851H20.0083V11.8418H16.1116ZM24.3425 16.491H25.8884L23.7066 14.1577L25.8884 11.8418H24.3659L22.96 13.3527L21.56 11.8418H20.0083L22.1841 14.1752L20.0083 16.491H21.5133L22.9309 14.9743L24.3425 16.491ZM24.9316 14.1518L26.25 15.4935V12.8277L24.9316 14.1518Z" fill="#006FCF"/>
<path fill-rule="evenodd" clip-rule="evenodd" d="M33.25 0.910156H1.75C1.02513 0.910156 0.4375 1.49778 0.4375 2.22266V20.5977C0.4375 21.3225 1.02513 21.9102 1.75 21.9102H33.25C33.9749 21.9102 34.5625 21.3225 34.5625 20.5977V2.22266C34.5625 1.49778 33.9749 0.910156 33.25 0.910156ZM1.75 0.472656C0.783501 0.472656 0 1.25616 0 2.22266V20.5977C0 21.5642 0.783501 22.3477 1.75 22.3477H33.25C34.2164 22.3477 35 21.5642 35 20.5977V2.22266C35 1.25616 34.2164 0.472656 33.25 0.472656H1.75Z" fill="#DDDDD8"/>
</g>
</g>
</g>
<defs>
<clipPath id="clip0_1_5129">
<rect y="0.410156" width="35" height="22" rx="5" fill="white"/>
</clipPath>
<clipPath id="clip1_1_5129">
<rect width="35" height="22" fill="white" transform="translate(0 0.410156)"/>
</clipPath>
<clipPath id="clip2_1_5129">
<rect width="35" height="21.875" fill="white" transform="translate(0 0.472656)"/>
</clipPath>
</defs>
</svg>
