<svg width="39" height="25" viewBox="0 0 39 25" fill="none" xmlns="http://www.w3.org/2000/svg">
<g clip-path="url(#clip0_1_4699)">
<g clip-path="url(#clip1_1_4699)">
<g clip-path="url(#clip2_1_4699)">
<path d="M36.6404 0.553101H2.08942C1.02931 0.553101 0.169922 1.41249 0.169922 2.4726V22.6273C0.169922 23.6875 1.02931 24.5469 2.08942 24.5469H36.6404C37.7005 24.5469 38.5599 23.6875 38.5599 22.6273V2.4726C38.5599 1.41249 37.7005 0.553101 36.6404 0.553101Z" fill="white"/>
<path d="M9.76758 2.95251V12.52V22.1475H19.3648H28.9626V12.5503V2.95251H19.3685H9.76758Z" fill="white"/>
<path d="M25.5394 7.6617L26.1536 5.99173H28.9626V2.95251H9.76758V22.1475H28.9626V19.1147H26.3137L25.3347 17.9694L24.3174 19.1147H16.7929V13.0171H14.3104L17.4136 5.99173H20.4336L21.163 7.58492V5.99173H24.9124L25.5394 7.6617ZM23.4216 8.7686L23.4152 8.09677L23.6712 8.7686L24.9189 12.1021H26.1601L27.4143 8.7686L27.6573 8.10318V12.1021H28.9626V6.98346H26.7935L25.8081 9.58122L25.5459 10.285L25.2771 9.58122L24.2855 6.98346H22.1164V12.1021H23.4216V8.7686ZM20.6128 12.1021H22.1164L19.8641 6.98346H18.1174L15.8524 12.1021H17.3368L17.7335 11.1168H20.2161L20.6128 12.1021ZM18.7189 8.71744L18.9748 8.07758L19.2307 8.71744L19.7618 10.0099H18.1878L18.7189 8.71744ZM17.8422 13.0235V18.123H22.1164V17.016H19.1475V16.1267H22.0588V15.0262H19.1475V14.1304H22.1164V13.0235H17.8422ZM26.8703 18.123H28.566L26.1728 15.5636L28.566 13.0235H26.896L25.3539 14.6807L23.8183 13.0235H22.1164L24.5029 15.5828L22.1164 18.123H23.7671L25.322 16.4594L26.8703 18.123ZM27.5165 15.5572L28.9626 17.0289V14.1048L27.5165 15.5572Z" fill="#006FCF"/>
<path fill-rule="evenodd" clip-rule="evenodd" d="M36.6404 1.03298H2.08942C1.29434 1.03298 0.649797 1.67752 0.649797 2.4726V22.6273C0.649797 23.4224 1.29434 24.067 2.08942 24.067H36.6404C37.4356 24.067 38.08 23.4224 38.08 22.6273V2.4726C38.08 1.67752 37.4356 1.03298 36.6404 1.03298ZM2.08942 0.553101C1.02931 0.553101 0.169922 1.41249 0.169922 2.4726V22.6273C0.169922 23.6875 1.02931 24.5469 2.08942 24.5469H36.6404C37.7005 24.5469 38.5599 23.6875 38.5599 22.6273V2.4726C38.5599 1.41249 37.7005 0.553101 36.6404 0.553101H2.08942Z" fill="#DDDDD8"/>
</g>
</g>
</g>
<defs>
<clipPath id="clip0_1_4699">
<rect width="38.39" height="24" fill="white" transform="translate(0.169922 0.549927)"/>
</clipPath>
<clipPath id="clip1_1_4699">
<rect width="38.39" height="24" fill="white" transform="translate(0.169922 0.549927)"/>
</clipPath>
<clipPath id="clip2_1_4699">
<rect width="38.39" height="23.9937" fill="white" transform="translate(0.169922 0.553101)"/>
</clipPath>
</defs>
</svg>
