<svg width="35" height="23" viewBox="0 0 35 23" fill="none" xmlns="http://www.w3.org/2000/svg">
<g clip-path="url(#clip0_1_2227)">
<g clip-path="url(#clip1_1_2227)">
<g clip-path="url(#clip2_1_2227)">
<path d="M33.25 0.54248H1.75C0.783502 0.54248 0 1.32598 0 2.29248V20.6675C0 21.634 0.783502 22.4175 1.75 22.4175H33.25C34.2165 22.4175 35 21.634 35 20.6675V2.29248C35 1.32598 34.2165 0.54248 33.25 0.54248Z" fill="white"/>
<path d="M8.75 2.72998V11.4527V20.23H17.4997H26.25V11.4802V2.72998H17.5031H8.75Z" fill="white"/>
<path d="M23.1291 7.02332L23.6891 5.50082H26.25V2.72998H8.75V20.23H26.25V17.465H23.835L22.9425 16.4208L22.015 17.465H15.155V11.9058H12.8917L15.7208 5.50082H18.4741L19.1392 6.95332V5.50082H22.5575L23.1291 7.02332ZM21.1983 8.03248L21.1925 7.41998L21.4258 8.03248L22.5634 11.0716H23.695L24.8384 8.03248L25.06 7.42582V11.0716H26.25V6.40498H24.2725L23.3741 8.77334L23.135 9.41498L22.89 8.77334L21.9859 6.40498H20.0083V11.0716H21.1983V8.03248ZM18.6375 11.0716H20.0083L17.955 6.40498H16.3625L14.2975 11.0716H15.6508L16.0125 10.1733H18.2758L18.6375 11.0716ZM16.9109 7.98584L17.1442 7.40248L17.3775 7.98584L17.8617 9.16414H16.4267L16.9109 7.98584ZM16.1116 11.9116V16.5608H20.0083V15.5516H17.3017V14.7408H19.9558V13.7375H17.3017V12.9208H20.0083V11.9116H16.1116ZM24.3425 16.5608H25.8884L23.7066 14.2275L25.8884 11.9116H24.3659L22.96 13.4225L21.56 11.9116H20.0083L22.1841 14.245L20.0083 16.5608H21.5133L22.9309 15.0441L24.3425 16.5608ZM24.9316 14.2216L26.25 15.5633V12.8975L24.9316 14.2216Z" fill="#006FCF"/>
<path fill-rule="evenodd" clip-rule="evenodd" d="M33.25 0.97998H1.75C1.02513 0.97998 0.4375 1.56761 0.4375 2.29248V20.6675C0.4375 21.3924 1.02513 21.98 1.75 21.98H33.25C33.9749 21.98 34.5625 21.3924 34.5625 20.6675V2.29248C34.5625 1.56761 33.9749 0.97998 33.25 0.97998ZM1.75 0.54248C0.783501 0.54248 0 1.32598 0 2.29248V20.6675C0 21.634 0.783501 22.4175 1.75 22.4175H33.25C34.2164 22.4175 35 21.634 35 20.6675V2.29248C35 1.32598 34.2164 0.54248 33.25 0.54248H1.75Z" fill="#DDDDD8"/>
</g>
</g>
</g>
<defs>
<clipPath id="clip0_1_2227">
<rect y="0.47998" width="35" height="22" rx="5" fill="white"/>
</clipPath>
<clipPath id="clip1_1_2227">
<rect width="35" height="22" fill="white" transform="translate(0 0.47998)"/>
</clipPath>
<clipPath id="clip2_1_2227">
<rect width="35" height="21.875" fill="white" transform="translate(0 0.54248)"/>
</clipPath>
</defs>
</svg>
