<svg width="40" height="25" viewBox="0 0 40 25" fill="none" xmlns="http://www.w3.org/2000/svg">
<g clip-path="url(#clip0_1_4714)">
<g clip-path="url(#clip1_1_4714)">
<g clip-path="url(#clip2_1_4714)">
<path d="M37.4205 0.793091H2.8695C1.94191 0.793091 1.18994 1.54506 1.18994 2.47265V22.6274C1.18994 23.555 1.94191 24.3069 2.8695 24.3069H37.4205C38.3481 24.3069 39.1001 23.555 39.1001 22.6274V2.47265C39.1001 1.54506 38.3481 0.793091 37.4205 0.793091Z" fill="white"/>
<path d="M3.80469 9.85367C3.80469 9.80204 3.81848 9.76101 3.84536 9.7301C3.87271 9.6997 3.91312 9.6842 3.96734 9.6842H6.32115C6.49026 9.6842 6.64987 9.70738 6.79983 9.75417C6.9494 9.80093 7.08703 9.86541 7.2123 9.94758C7.33724 10.0299 7.45054 10.1281 7.55141 10.2427C7.6518 10.3565 7.73714 10.48 7.80711 10.6128C7.87696 10.7452 7.93056 10.8848 7.96744 11.0308C8.00431 11.1766 8.02264 11.3249 8.02264 11.4746C8.02264 11.6958 7.98246 11.9117 7.90308 12.1231C7.82311 12.3342 7.70931 12.5223 7.56228 12.6867C7.41488 12.851 7.23795 12.9845 7.03194 13.0861C6.82521 13.1883 6.59698 13.2407 6.34654 13.2429H5.23056V14.9964C5.23056 15.1019 5.17415 15.1543 5.06122 15.1543H3.96734C3.91789 15.1543 3.87868 15.1414 3.84927 15.1162C3.81971 15.0902 3.80469 15.0501 3.80469 14.9964V9.85367ZM6.5788 11.467C6.5788 11.3933 6.56598 11.3196 6.54009 11.246C6.51409 11.1725 6.47709 11.1065 6.42788 11.049C6.37879 10.9914 6.31906 10.9441 6.24922 10.9071C6.17901 10.8705 6.09988 10.8518 6.01158 10.8518H5.23071V12.0822H6.01158C6.09988 12.0822 6.17949 12.0644 6.25092 12.0288C6.32211 11.9932 6.38195 11.9474 6.42958 11.891C6.47745 11.8342 6.51409 11.7694 6.54022 11.6957C6.56598 11.6218 6.5788 11.5459 6.5788 11.467Z" fill="#941F7F"/>
<path d="M10.2033 9.8283C10.2055 9.81376 10.2134 9.7979 10.2271 9.78043C10.2405 9.7632 10.2575 9.74734 10.2769 9.73256C10.2963 9.71754 10.3176 9.70631 10.3398 9.69763C10.3615 9.68908 10.3825 9.68481 10.402 9.68481H11.3454C11.3869 9.68481 11.4224 9.69763 11.4522 9.7234C11.4815 9.74928 11.5034 9.77189 11.5182 9.79178L11.6101 10.0016L13.5442 14.9893C13.564 15.0385 13.56 15.0781 13.533 15.109C13.5064 15.1395 13.4596 15.155 13.3932 15.155H12.3363C12.2794 15.155 12.2359 15.1446 12.2055 15.1239C12.1746 15.1025 12.1505 15.0678 12.1336 15.0186C12.0844 14.8936 12.0365 14.7689 11.99 14.6448C11.943 14.5208 11.8962 14.3966 11.8497 14.2709H9.8936C9.84708 14.3966 9.79981 14.5209 9.75194 14.6448C9.70407 14.7688 9.65683 14.8934 9.61007 15.0186C9.57794 15.1096 9.51592 15.155 9.42239 15.155H8.33559C8.28883 15.155 8.25048 15.1426 8.21958 15.1182C8.18882 15.0936 8.18306 15.0567 8.20322 15.0074L10.2033 9.8283ZM10.8738 11.405C10.827 11.5303 10.7796 11.6653 10.7318 11.81C10.6839 11.9551 10.6366 12.1011 10.5899 12.2483C10.5436 12.3959 10.4962 12.5412 10.4484 12.6849C10.4005 12.8288 10.3532 12.9631 10.3065 13.0884H11.4373L10.8738 11.405Z" fill="#941F7F"/>
<path d="M15.1779 11.7033L16.0675 9.79874C16.0821 9.76944 16.0945 9.74794 16.1042 9.73451C16.1143 9.72083 16.1239 9.71106 16.1337 9.70473C16.1435 9.69873 16.1541 9.69506 16.1649 9.69386C16.1761 9.69276 16.1889 9.68995 16.2037 9.68481H17.6218C17.6393 9.68481 17.6534 9.69055 17.6645 9.70142C17.6754 9.71241 17.6809 9.72548 17.6809 9.74C17.6809 9.76699 17.6636 9.79802 17.6297 9.83197L15.8835 12.9226V14.9821C15.8835 15.0971 15.8271 15.1549 15.7144 15.1549H14.6118C14.5629 15.1549 14.5254 15.1394 14.498 15.1088C14.4712 15.0778 14.4576 15.0358 14.4576 14.9821V12.9155L12.7153 9.83197C12.6835 9.8002 12.6675 9.76956 12.6675 9.74C12.6675 9.72548 12.6726 9.71241 12.6823 9.70142C12.6921 9.69055 12.7055 9.68481 12.7228 9.68481H14.1411C14.1581 9.68995 14.1716 9.69276 14.1813 9.69386C14.1914 9.69506 14.2011 9.69873 14.2111 9.70473C14.2208 9.71106 14.2305 9.72083 14.2403 9.73451C14.2504 9.74794 14.2638 9.76956 14.2809 9.79874L15.1779 11.7033Z" fill="#941F7F"/>
<path d="M18.1968 9.84623C18.1968 9.80204 18.2102 9.76394 18.2372 9.73219C18.2641 9.69994 18.3048 9.68432 18.3587 9.68432H19.5636C19.5975 9.68432 19.6334 9.69287 19.6703 9.70971C19.7072 9.7273 19.7389 9.75674 19.766 9.79837C20.0779 10.3017 20.3872 10.7976 20.6942 11.2864C21.0013 11.7752 21.3121 12.2714 21.6261 12.7747V9.82402C21.6359 9.77992 21.6552 9.74512 21.6851 9.72082C21.7145 9.69639 21.7492 9.6842 21.7879 9.6842H22.8377C22.8899 9.6842 22.9329 9.69788 22.9672 9.72631C23.0015 9.75465 23.0187 9.79458 23.0187 9.84611V15.0105C23.0187 15.0597 23.004 15.0957 22.9745 15.1192C22.9448 15.1427 22.9045 15.1545 22.853 15.1545H21.6778C21.6458 15.1545 21.6178 15.1433 21.5933 15.1209C21.5686 15.0991 21.5428 15.0698 21.516 15.0328C21.189 14.4924 20.8664 13.9583 20.5469 13.4303C20.228 12.9024 19.9038 12.3682 19.5747 11.8279V14.9921C19.5747 15.0461 19.5623 15.0867 19.5375 15.1138C19.5131 15.1408 19.4688 15.1545 19.4052 15.1545H18.359C18.3025 15.1545 18.2615 15.1391 18.2356 15.108C18.2098 15.0774 18.197 15.04 18.197 14.996L18.1968 9.84623Z" fill="#941F7F"/>
<path d="M31.6646 15.0773C31.6399 15.0356 31.6166 14.9925 31.5948 14.9485C31.5729 14.9039 31.553 14.8597 31.536 14.8158C31.2188 13.9807 30.9035 13.1532 30.5892 12.3329C30.2749 11.5126 29.9593 10.6851 29.6419 9.85015C29.6419 9.83769 29.6402 9.82694 29.6369 9.81694C29.633 9.80703 29.6313 9.79738 29.6313 9.78762C29.6313 9.71888 29.6767 9.68444 29.7676 9.68444H30.9539C31.0475 9.68444 31.1106 9.73121 31.1454 9.82426L32.2723 13.18L33.3149 9.82426C33.3492 9.73121 33.4166 9.68444 33.5174 9.68444H34.7151C34.771 9.68444 34.8114 9.69481 34.8344 9.71556C34.8579 9.73634 34.8697 9.76406 34.8697 9.79849C34.8697 9.8179 34.8682 9.83157 34.8658 9.83916V9.85003L34.2101 11.7284L34.7039 13.1761L35.8976 9.82402C35.9316 9.73097 35.999 9.6842 36.0996 9.6842H37.2604C37.3165 9.6842 37.3561 9.69457 37.3799 9.71532C37.4032 9.73608 37.4149 9.76382 37.4149 9.79825C37.4149 9.81766 37.414 9.83133 37.4111 9.83892V9.84979C37.2443 10.2818 37.0735 10.7129 36.8993 11.1426C36.7246 11.5723 36.5497 12.002 36.3748 12.4316C36.1984 12.8615 36.0242 13.2922 35.8512 13.7226C35.678 14.1538 35.5091 14.5844 35.3447 15.0137C35.3351 15.0412 35.3133 15.0709 35.2785 15.1044C35.244 15.1375 35.2025 15.1543 35.1533 15.1543H35.1422H34.2506C34.1966 15.1543 34.1554 15.1436 34.1273 15.1226C34.0992 15.1019 34.0788 15.0742 34.0664 15.0397L33.4845 13.507C33.4012 13.7309 33.3189 13.9499 33.2378 14.1649C33.1565 14.3798 33.0756 14.5992 32.9948 14.8223C32.9826 14.8569 32.9682 14.8927 32.9521 14.9308C32.9365 14.9691 32.9173 15.005 32.895 15.0378C32.8729 15.0709 32.8477 15.0988 32.8194 15.1207C32.7916 15.1431 32.7585 15.1543 32.722 15.1543H32.7109H31.8196C31.7411 15.1548 31.689 15.1289 31.6646 15.0773Z" fill="#941F7F"/>
<path fill-rule="evenodd" clip-rule="evenodd" d="M26.8199 12.5014L28.3732 10.3932L28.5712 10.1238C28.6103 10.0707 28.6849 10.0591 28.7365 10.0998C29.4592 10.6705 29.9232 11.5545 29.9232 12.5469C29.9232 14.2679 28.528 15.663 26.8072 15.663C25.0861 15.663 23.6909 14.2679 23.6909 12.5469C23.6909 10.8259 25.0861 9.43079 26.8072 9.43079C27.3072 9.43079 27.7801 9.54867 28.1988 9.75816C28.2633 9.79031 28.2811 9.87265 28.2386 9.9306L27.8557 10.4516C27.8214 10.4982 27.7587 10.5132 27.7057 10.49C27.4308 10.3696 27.1268 10.3029 26.8072 10.3029C25.5679 10.3029 24.5631 11.3075 24.5631 12.5469C24.5631 13.7862 25.5679 14.7909 26.8072 14.7909C28.0464 14.7909 29.0513 13.7862 29.0513 12.5469C29.0513 12.1727 28.9596 11.8199 28.7977 11.5097L26.9837 13.9783C26.9391 14.0391 26.8499 14.0438 26.799 13.9878L26.6929 13.8708C26.6917 13.8696 26.6905 13.8683 26.6893 13.867L25.2202 12.2539C25.1794 12.2091 25.1787 12.1407 25.2188 12.095L25.7073 11.536C25.7533 11.4834 25.8344 11.4813 25.8832 11.5316L26.8199 12.5014Z" fill="url(#paint0_linear_1_4714)"/>
<path d="M37.4205 0.793091H2.8695C1.94191 0.793091 1.18994 1.54506 1.18994 2.47265V22.6274C1.18994 23.555 1.94191 24.3069 2.8695 24.3069H37.4205C38.3481 24.3069 39.1001 23.555 39.1001 22.6274V2.47265C39.1001 1.54506 38.3481 0.793091 37.4205 0.793091Z" stroke="#D8D8D8" stroke-width="0.479875"/>
</g>
</g>
</g>
<defs>
<linearGradient id="paint0_linear_1_4714" x1="28.3461" y1="11.0152" x2="25.7474" y2="13.5974" gradientUnits="userSpaceOnUse">
<stop stop-color="#E83762"/>
<stop offset="1" stop-color="#9A1F81"/>
</linearGradient>
<clipPath id="clip0_1_4714">
<rect width="38.39" height="24" fill="white" transform="translate(0.950195 0.549927)"/>
</clipPath>
<clipPath id="clip1_1_4714">
<rect width="38.39" height="24" fill="white" transform="translate(0.950195 0.549927)"/>
</clipPath>
<clipPath id="clip2_1_4714">
<rect width="38.39" height="23.9937" fill="white" transform="translate(0.950195 0.553101)"/>
</clipPath>
</defs>
</svg>
