<svg width="39" height="25" viewBox="0 0 39 25" fill="none" xmlns="http://www.w3.org/2000/svg">
<g clip-path="url(#clip0_1_4775)">
<g clip-path="url(#clip1_1_4775)">
<g clip-path="url(#clip2_1_4775)">
<path d="M36.4903 0.793091H1.93933C1.01173 0.793091 0.259766 1.54506 0.259766 2.47265V22.6274C0.259766 23.555 1.01173 24.307 1.93933 24.307H36.4903C37.4179 24.307 38.1699 23.555 38.1699 22.6274V2.47265C38.1699 1.54506 37.4179 0.793091 36.4903 0.793091Z" fill="#113566"/>
<path fill-rule="evenodd" clip-rule="evenodd" d="M16.4839 9.63168H17.5035V12.2826H18.2172V9.63168H19.2368V9.07092H16.4839V9.63168ZM19.5936 12.2826H20.3073V10.9571H21.7347V12.2826H22.3975V9.07092H21.7347V10.3454H20.3073V9.07092H19.5936V12.2826ZM23.4717 10.435C23.1793 11.1848 22.8983 11.9073 22.8474 12.0405L22.7547 12.2826H23.4616L23.746 11.5179L24.8698 11.519L25.1561 12.2826H25.8653L25.7972 12.1169C25.7598 12.0258 25.4786 11.3032 25.1722 10.5112L24.615 9.07128L24.0033 9.07169L23.4717 10.435ZM26.119 12.2826H26.8325V9.07092H26.119V12.2826ZM29.2909 9.22626C28.55 9.59655 28.2127 10.4432 28.4843 11.2509C28.6045 11.6084 28.9898 12.0279 29.3423 12.1851C29.6861 12.3384 30.266 12.353 30.5988 12.2167C30.8001 12.1343 30.8301 12.133 30.9086 12.204C30.9674 12.2572 31.0986 12.2826 31.3148 12.2826H31.6342L31.2215 11.7897L31.3371 11.6155C31.5413 11.3084 31.5991 11.1006 31.5984 10.6768C31.5975 10.1914 31.4892 9.91188 31.1663 9.56143C30.839 9.20658 30.5213 9.07092 30.017 9.07092C29.6564 9.07092 29.5611 9.09132 29.2909 9.22626ZM32.0325 12.2826H32.7463V11.212H33.3005L33.6218 11.7281C33.7984 12.0119 33.9685 12.2539 33.9997 12.2659C34.0309 12.2778 34.2085 12.2808 34.3942 12.2724L34.732 12.2571L34.3956 11.7218C34.2106 11.4274 34.0501 11.1631 34.0391 11.1344C34.0278 11.1057 34.0858 11.0425 34.1681 10.994C34.35 10.8865 34.5816 10.4425 34.5816 10.2011C34.5816 9.7654 34.3179 9.3355 33.9479 9.16743C33.7727 9.08789 33.6067 9.07296 32.8864 9.07203L32.0325 9.07092V12.2826ZM30.3884 9.73982C30.7819 9.93026 31.007 10.4367 30.9064 10.9045C30.8287 11.2652 30.7869 11.3078 30.6427 11.1725C30.5472 11.0828 30.4616 11.0591 30.2322 11.0591C30.0729 11.0591 29.9424 11.0738 29.9424 11.0918C29.9424 11.1098 30.0453 11.2449 30.1708 11.392C30.3898 11.6483 30.3946 11.6607 30.2855 11.6899C30.0542 11.752 29.76 11.718 29.5601 11.6063C29.1587 11.3822 28.9603 10.7203 29.1549 10.2546C29.3814 9.71259 29.892 9.4995 30.3884 9.73982ZM33.6129 9.69658C33.683 9.7314 33.7823 9.84566 33.8337 9.95041C33.9121 10.1107 33.9174 10.1692 33.868 10.3194C33.7778 10.5923 33.6535 10.6513 33.1681 10.6513H32.7463V9.63168L33.1158 9.63245C33.319 9.63286 33.5429 9.66172 33.6129 9.69658ZM24.5126 10.4241C24.6179 10.7196 24.6925 10.973 24.6786 10.9871C24.6645 11.0011 24.4819 11.0059 24.2726 10.9976L23.8922 10.9826L24.0958 10.4346C24.2079 10.1332 24.3043 9.88659 24.3103 9.88659C24.3163 9.88659 24.4072 10.1284 24.5126 10.4241Z" fill="white"/>
<path fill-rule="evenodd" clip-rule="evenodd" d="M16.5146 16.074H17.1304V15.1504H17.5773C17.976 15.1504 18.0448 15.1384 18.2139 15.0392C18.7854 14.7043 18.798 13.8531 18.2373 13.459L18.0468 13.3251L16.5146 13.2975V16.074ZM19.1567 14.48C18.9044 15.1269 18.6621 15.7502 18.6181 15.8651L18.5382 16.074H19.148L19.3933 15.4143L20.3631 15.4152L20.61 16.074H21.2219L21.1631 15.9311C21.1308 15.8524 20.8881 15.2291 20.6237 14.5458L20.1432 13.3035L19.6154 13.3038L19.1567 14.48ZM20.9128 13.3206C20.9128 13.3302 21.1404 13.7354 21.4186 14.2211L21.9244 15.1041V16.074H22.4962V15.1596L22.984 14.3083C23.2523 13.8402 23.4905 13.4224 23.5133 13.3801C23.5511 13.3101 23.5261 13.3031 23.2339 13.3031H22.9129L22.6056 13.8806C22.4366 14.1982 22.2785 14.4852 22.2543 14.5183C22.2212 14.5637 22.1284 14.4205 21.8804 13.9416L21.5506 13.3046L21.2317 13.3039C21.0563 13.3035 20.9128 13.311 20.9128 13.3206ZM23.7717 16.074H24.3856L24.4093 14.4078L25.0689 15.6342H25.3916L26.0807 14.3395L26.1045 16.074H26.6746V13.2993L26.0423 13.3251L25.6452 14.0618C25.4269 14.467 25.2376 14.7982 25.2246 14.7979C25.2117 14.7975 25.0228 14.4612 24.8052 14.0504L24.4093 13.3036L23.7717 13.3031V16.074ZM27.2461 16.074H29.2695V15.5902H27.862V14.8865H29.0495V14.4467H27.862V13.787H29.2253V13.3031H27.2461V16.074ZM29.6212 16.074H30.235L30.259 14.4104L31.6197 16.074H32.1281V13.3031H31.5143L31.4903 15.0165L30.0961 13.3031H29.6212V16.074ZM32.4362 13.787H33.3158V16.074H33.9315V13.787H34.8111V13.3031H32.4362V13.787ZM17.9483 13.9329C18.0971 14.1058 18.096 14.4087 17.946 14.5586C17.8493 14.6554 17.8013 14.6666 17.4842 14.6666H17.1304V13.7776L17.4865 13.7938C17.8121 13.8086 17.8517 13.8205 17.9483 13.9329ZM20.0548 14.4706C20.1457 14.7256 20.2101 14.9442 20.198 14.9563C20.1859 14.9684 20.0282 14.9725 19.8477 14.9654L19.5195 14.9525L19.6952 14.4797C19.7919 14.2196 19.8751 14.0069 19.8803 14.0069C19.8854 14.0069 19.964 14.2155 20.0548 14.4706Z" fill="white"/>
<path fill-rule="evenodd" clip-rule="evenodd" d="M5.61027 8.02898C5.28695 8.08834 4.89441 8.22482 4.6396 8.36645C4.36514 8.51901 3.99436 8.88928 3.86081 9.14421C3.65437 9.53826 3.64758 9.60484 3.62536 11.4523C3.61437 12.3685 3.61833 13.5763 3.63419 14.1362C3.65953 15.0299 3.67104 15.1819 3.72877 15.3799C3.94846 16.134 4.48726 16.7133 5.19875 16.9602C5.70399 17.1356 5.35265 17.1246 10.7541 17.1355C15.3114 17.1229 15.7259 17.1375 15.7433 17.0921C15.7701 17.0223 15.7603 17.0135 15.3447 16.6185C14.2319 15.5608 12.9866 14.3523 12.965 14.3091C12.9514 14.2819 12.9328 13.3087 12.9237 12.1464C12.9075 10.084 12.9054 10.0272 12.8385 9.78633C12.5925 8.90031 12.0143 8.32276 11.1201 8.06996C10.874 8.00038 10.8664 8.00019 8.35904 7.99306C6.31686 7.98726 5.80071 7.99402 5.61027 8.02898ZM7.73882 9.13461C7.76354 9.16439 7.77155 9.39214 7.76575 9.89817L7.75747 10.6193L7.2947 10.6357C6.79093 10.6536 6.64687 10.6944 6.53216 10.8517C6.45252 10.9608 6.4048 11.3087 6.42421 11.6386C6.43328 11.7931 6.42745 11.941 6.41108 11.9702C6.3845 12.0177 6.30707 12.023 5.63105 12.023C5.01865 12.023 4.87378 12.0149 4.84398 11.979C4.81699 11.9464 4.81008 11.6664 4.81754 10.9069C4.82723 9.92125 4.83054 9.87165 4.89792 9.70384C4.97287 9.5171 5.14937 9.31142 5.30264 9.23217C5.53557 9.11172 5.69293 9.09634 6.71249 9.09423C7.5177 9.09258 7.71022 9.10016 7.73882 9.13461ZM11.2168 9.17331C11.4646 9.27418 11.5871 9.38568 11.6984 9.61173L11.7989 9.8157V12.0076H10.2255L10.2081 11.514C10.1899 10.9971 10.1706 10.9093 10.0514 10.7987C9.9265 10.683 9.80785 10.6565 9.33083 10.6376L8.86807 10.6193L8.85976 9.89817C8.85372 9.37273 8.86154 9.16494 8.88844 9.13252C8.91965 9.0949 9.09111 9.0896 9.99191 9.09843C10.989 9.10817 11.0687 9.11304 11.2168 9.17331ZM6.38313 13.132C6.41895 13.1547 6.42843 13.2552 6.4303 13.6329C6.43215 14.0062 6.44314 14.1248 6.48261 14.198C6.60051 14.4166 6.73243 14.4601 7.27771 14.4601C7.56413 14.4601 7.71068 14.472 7.73585 14.4972C7.76255 14.5239 7.77287 14.7348 7.77287 15.2519C7.77287 15.9444 7.77066 15.9708 7.70948 16.0036C7.66562 16.027 7.3448 16.0333 6.6683 16.0239C5.76762 16.0114 5.6751 16.0051 5.49534 15.9437C5.16461 15.8307 4.98422 15.6747 4.86792 15.4011C4.81252 15.2708 4.7904 13.2113 4.84371 13.1471C4.87383 13.1108 5.0128 13.1028 5.6094 13.1032C6.01034 13.1035 6.35849 13.1164 6.38313 13.132ZM12.9557 15.9794C12.9557 15.9922 12.0534 16.0027 10.9505 16.0027C8.98631 16.0027 8.94393 16.0014 8.88349 15.941C8.82562 15.8831 8.82178 15.8382 8.82178 15.2182C8.82178 14.6583 8.82922 14.5497 8.87025 14.5086C8.91015 14.4687 9.00325 14.4601 9.39574 14.4601C10.1633 14.4601 10.1895 14.4358 10.2051 13.7072L10.2157 13.2166L11.5857 14.5864C12.3392 15.3397 12.9557 15.9666 12.9557 15.9794Z" fill="white"/>
<path d="M10.9505 16.0027C12.0534 16.0027 12.9557 15.9922 12.9557 15.9794C12.9557 15.9666 12.3392 15.3397 11.5857 14.5863L10.2156 13.2166L10.2051 13.7072C10.1895 14.4358 10.1633 14.4601 9.39573 14.4601C9.00324 14.4601 8.91015 14.4687 8.87024 14.5086C8.82922 14.5497 8.82178 14.6583 8.82178 15.2182C8.82178 15.8381 8.82562 15.8831 8.88349 15.9409C8.94393 16.0014 8.9863 16.0027 10.9505 16.0027Z" fill="#21AA97"/>
<path d="M36.4903 0.793091H1.93933C1.01173 0.793091 0.259766 1.54506 0.259766 2.47265V22.6274C0.259766 23.555 1.01173 24.307 1.93933 24.307H36.4903C37.4179 24.307 38.1699 23.555 38.1699 22.6274V2.47265C38.1699 1.54506 37.4179 0.793091 36.4903 0.793091Z" stroke="#DDDDD8" stroke-width="0.479875"/>
</g>
</g>
</g>
<defs>
<clipPath id="clip0_1_4775">
<rect width="38.39" height="24" fill="white" transform="translate(0.0200195 0.549927)"/>
</clipPath>
<clipPath id="clip1_1_4775">
<rect width="38.39" height="24" fill="white" transform="translate(0.0200195 0.549927)"/>
</clipPath>
<clipPath id="clip2_1_4775">
<rect width="38.39" height="23.9937" fill="white" transform="translate(0.0200195 0.553101)"/>
</clipPath>
</defs>
</svg>
