<svg width="35" height="23" viewBox="0 0 35 23" fill="none" xmlns="http://www.w3.org/2000/svg">
<g clip-path="url(#clip0_1_2244)">
<g clip-path="url(#clip1_1_2244)">
<g clip-path="url(#clip2_1_2244)">
<path d="M33.25 0.54248H1.75C0.783502 0.54248 0 1.32598 0 2.29248V20.6675C0 21.634 0.783502 22.4175 1.75 22.4175H33.25C34.2165 22.4175 35 21.634 35 20.6675V2.29248C35 1.32598 34.2165 0.54248 33.25 0.54248Z" fill="white"/>
<path fill-rule="evenodd" clip-rule="evenodd" d="M33.25 0.97998H1.75C1.02513 0.97998 0.4375 1.56761 0.4375 2.29248V20.6675C0.4375 21.3924 1.02513 21.98 1.75 21.98H33.25C33.9749 21.98 34.5625 21.3924 34.5625 20.6675V2.29248C34.5625 1.56761 33.9749 0.97998 33.25 0.97998ZM1.75 0.54248C0.783501 0.54248 0 1.32598 0 2.29248V20.6675C0 21.634 0.783501 22.4175 1.75 22.4175H33.25C34.2164 22.4175 35 21.634 35 20.6675V2.29248C35 1.32598 34.2164 0.54248 33.25 0.54248H1.75Z" fill="#DDDDD8"/>
<path d="M10.477 11.3955V15.3977C10.477 15.7222 10.2607 15.7222 9.93616 15.6141C7.88096 14.7487 6.69109 12.0445 7.44827 9.77299C7.88096 8.58314 8.74629 7.60961 9.93616 7.17695C10.3688 6.96061 10.477 7.06878 10.477 7.39329V11.3955ZM12.6404 11.3955V7.39329C12.6404 7.06878 12.6404 7.06878 12.9649 7.17695C15.2364 8.0423 16.4263 10.7465 15.5609 13.018C15.1282 14.2079 14.2629 15.1814 13.073 15.6141C12.6404 15.8304 12.6404 15.7222 12.6404 15.3977V11.3955ZM20.4285 3.82373H11.5587C15.6691 3.82373 18.9141 7.17695 18.9141 11.3955C18.9141 15.6141 15.6691 18.9673 11.5587 18.9673H20.4285C24.5389 18.9673 27.7839 15.6141 27.7839 11.3955C27.7839 7.17695 24.5389 3.82373 20.4285 3.82373Z" fill="#3086C8"/>
</g>
</g>
</g>
<defs>
<clipPath id="clip0_1_2244">
<rect y="0.47998" width="35" height="22" rx="5" fill="white"/>
</clipPath>
<clipPath id="clip1_1_2244">
<rect width="35" height="22" fill="white" transform="translate(0 0.47998)"/>
</clipPath>
<clipPath id="clip2_1_2244">
<rect width="35" height="21.875" fill="white" transform="translate(0 0.54248)"/>
</clipPath>
</defs>
</svg>
