<svg width="35" height="23" viewBox="0 0 35 23" fill="none" xmlns="http://www.w3.org/2000/svg">
<g clip-path="url(#clip0_1_5146)">
<g clip-path="url(#clip1_1_5146)">
<g clip-path="url(#clip2_1_5146)">
<path d="M33.25 0.472656H1.75C0.783502 0.472656 0 1.25616 0 2.22266V20.5977C0 21.5642 0.783502 22.3477 1.75 22.3477H33.25C34.2165 22.3477 35 21.5642 35 20.5977V2.22266C35 1.25616 34.2165 0.472656 33.25 0.472656Z" fill="white"/>
<path fill-rule="evenodd" clip-rule="evenodd" d="M33.25 0.910156H1.75C1.02513 0.910156 0.4375 1.49778 0.4375 2.22266V20.5977C0.4375 21.3225 1.02513 21.9102 1.75 21.9102H33.25C33.9749 21.9102 34.5625 21.3225 34.5625 20.5977V2.22266C34.5625 1.49778 33.9749 0.910156 33.25 0.910156ZM1.75 0.472656C0.783501 0.472656 0 1.25616 0 2.22266V20.5977C0 21.5642 0.783501 22.3477 1.75 22.3477H33.25C34.2164 22.3477 35 21.5642 35 20.5977V2.22266C35 1.25616 34.2164 0.472656 33.25 0.472656H1.75Z" fill="#DDDDD8"/>
<path d="M10.477 11.3257V15.3279C10.477 15.6524 10.2607 15.6524 9.93616 15.5442C7.88096 14.6789 6.69109 11.9747 7.44827 9.70316C7.88096 8.51332 8.74629 7.53979 9.93616 7.10713C10.3688 6.89078 10.477 6.99895 10.477 7.32347V11.3257ZM12.6404 11.3257V7.32347C12.6404 6.99895 12.6404 6.99895 12.9649 7.10713C15.2364 7.97248 16.4263 10.6767 15.5609 12.9482C15.1282 14.1381 14.2629 15.1116 13.073 15.5442C12.6404 15.7606 12.6404 15.6524 12.6404 15.3279V11.3257ZM20.4285 3.75391H11.5587C15.6691 3.75391 18.9141 7.10712 18.9141 11.3257C18.9141 15.5442 15.6691 18.8975 11.5587 18.8975H20.4285C24.5389 18.8975 27.7839 15.5442 27.7839 11.3257C27.7839 7.10712 24.5389 3.75391 20.4285 3.75391Z" fill="#3086C8"/>
</g>
</g>
</g>
<defs>
<clipPath id="clip0_1_5146">
<rect y="0.410156" width="35" height="22" rx="5" fill="white"/>
</clipPath>
<clipPath id="clip1_1_5146">
<rect width="35" height="22" fill="white" transform="translate(0 0.410156)"/>
</clipPath>
<clipPath id="clip2_1_5146">
<rect width="35" height="21.875" fill="white" transform="translate(0 0.472656)"/>
</clipPath>
</defs>
</svg>
