<svg width="35" height="23" viewBox="0 0 35 23" fill="none" xmlns="http://www.w3.org/2000/svg">
<g clip-path="url(#clip0_1_459)">
<g clip-path="url(#clip1_1_459)">
<g clip-path="url(#clip2_1_459)">
<path d="M33.25 1.03223H1.75C0.783502 1.03223 0 1.81573 0 2.78223V21.1572C0 22.1237 0.783502 22.9072 1.75 22.9072H33.25C34.2165 22.9072 35 22.1237 35 21.1572V2.78223C35 1.81573 34.2165 1.03223 33.25 1.03223Z" fill="white"/>
<path fill-rule="evenodd" clip-rule="evenodd" d="M33.25 1.46973H1.75C1.02513 1.46973 0.4375 2.05735 0.4375 2.78223V21.1572C0.4375 21.8821 1.02513 22.4697 1.75 22.4697H33.25C33.9749 22.4697 34.5625 21.8821 34.5625 21.1572V2.78223C34.5625 2.05735 33.9749 1.46973 33.25 1.46973ZM1.75 1.03223C0.783501 1.03223 0 1.81573 0 2.78223V21.1572C0 22.1237 0.783501 22.9072 1.75 22.9072H33.25C34.2164 22.9072 35 22.1237 35 21.1572V2.78223C35 1.81573 34.2164 1.03223 33.25 1.03223H1.75Z" fill="#DDDDD8"/>
<path d="M10.477 11.8853V15.8875C10.477 16.212 10.2607 16.212 9.93616 16.1038C7.88096 15.2385 6.69109 12.5343 7.44827 10.2627C7.88096 9.07289 8.74629 8.09936 9.93616 7.6667C10.3688 7.45035 10.477 7.55852 10.477 7.88304V11.8853ZM12.6404 11.8853V7.88304C12.6404 7.55852 12.6404 7.55852 12.9649 7.6667C15.2364 8.53205 16.4263 11.2363 15.5609 13.5078C15.1282 14.6976 14.2629 15.6712 13.073 16.1038C12.6404 16.3202 12.6404 16.212 12.6404 15.8875V11.8853ZM20.4285 4.31348H11.5587C15.6691 4.31348 18.9141 7.6667 18.9141 11.8853C18.9141 16.1038 15.6691 19.457 11.5587 19.457H20.4285C24.5389 19.457 27.7839 16.1038 27.7839 11.8853C27.7839 7.6667 24.5389 4.31348 20.4285 4.31348Z" fill="#3086C8"/>
</g>
</g>
</g>
<defs>
<clipPath id="clip0_1_459">
<rect y="0.969727" width="35" height="22" rx="5" fill="white"/>
</clipPath>
<clipPath id="clip1_1_459">
<rect width="35" height="22" fill="white" transform="translate(0 0.969727)"/>
</clipPath>
<clipPath id="clip2_1_459">
<rect width="35" height="21.875" fill="white" transform="translate(0 1.03223)"/>
</clipPath>
</defs>
</svg>
