<svg width="39" height="25" viewBox="0 0 39 25" fill="none" xmlns="http://www.w3.org/2000/svg">
<g clip-path="url(#clip0_1_4762)">
<g clip-path="url(#clip1_1_4762)">
<g clip-path="url(#clip2_1_4762)">
<path d="M35.3259 24.5499C36.3115 24.5499 37.12 23.7333 37.12 22.738V2.35705C37.12 1.36651 36.3115 0.549927 35.3259 0.549927H2.31414C1.32857 0.549927 0.52002 1.36651 0.52002 2.35705V22.738C0.52002 23.7333 1.32857 24.5499 2.31414 24.5499H35.3259Z" fill="#0047BA"/>
<path d="M14.8893 12.9966H12.9966C12.4409 12.9966 11.7222 13.3929 11.5161 13.9195L11.703 12.9097H9.38876L8.36816 18.7176H10.6824L11.3244 15.0406H13.816C13.816 15.0406 13.4998 16.8622 13.356 17.6788C13.2171 18.4953 13.7634 18.6934 14.0364 18.6934H15.2487L16.0392 14.1756C15.9626 13.5281 15.5313 12.9966 14.8893 12.9966Z" fill="white"/>
<path d="M7.72607 12.9097L7.29004 15.403L9.04852 12.9097H7.72607Z" fill="white"/>
<path d="M10.4714 3.81177H2.72846L2.39307 5.73488H5.09544L4.01257 11.939H6.34602L7.42888 5.73488H10.136L10.4714 3.81177Z" fill="#FFCD00"/>
<path d="M12.0723 10.035L12.4125 8.09261H10.3377L9.99754 10.035H12.0723ZM8.80444 11.9388C8.16244 11.9388 7.73121 11.4072 7.84141 10.7598L8.44032 7.36301C8.55049 6.71552 9.16864 6.18884 9.81072 6.18884H13.6055C14.2476 6.18884 14.6788 6.71552 14.5638 7.36301L13.9696 10.7598C13.8546 11.4072 13.2366 11.9388 12.5945 11.9388H8.80444Z" fill="#FFCD00"/>
<path d="M24.0796 10.035L24.4198 8.09258H27.424L27.7594 6.18884H23.8927C23.2507 6.18884 22.6326 6.71552 22.5176 7.36301L21.9234 10.7598C21.8133 11.4073 22.2445 11.9388 22.8866 11.9388H26.6478L26.9784 10.035H24.0796Z" fill="#FFCD00"/>
<path d="M19.355 10.035H16.8107L17.4815 6.18884H15.4548L14.6546 10.7598C14.5397 11.4072 14.9756 11.9388 15.6177 11.9388H17.5918C18.2339 11.9388 18.7561 11.5522 19.1729 11.0546C19.1729 11.0546 19.3982 11.7213 19.724 11.8711C20.0498 12.021 21.0416 11.9871 21.0416 11.9871L22.0574 6.1937H20.0306L19.355 10.035Z" fill="#FFCD00"/>
<path d="M33.9693 6.21768H32.0767C31.5209 6.21768 30.9842 6.61389 30.7735 7.14056L31.3196 4.01917H29.1875L27.8027 11.9386H29.9397L30.5818 8.26159H32.8961C32.8961 8.26159 32.5798 10.0832 32.436 10.8998C32.2923 11.7115 32.8433 11.9097 33.1117 11.9097H34.1418L34.9324 7.39185C35.0426 6.74436 34.6114 6.21768 33.9693 6.21768Z" fill="#FFCD00"/>
<path d="M26.3704 20.6508C25.5079 20.6508 24.9234 19.9357 25.0767 19.0659L25.8769 14.4997C26.0254 13.63 26.8591 12.9149 27.7263 12.9149H32.5561C33.4186 12.9149 34.0031 13.63 33.8498 14.4997L33.0544 19.0659C32.9011 19.9357 32.0722 20.6508 31.2049 20.6508H26.3704ZM30.8695 18.5151L31.4781 15.0506H28.0522L27.4437 18.5151H30.8695Z" fill="#FFCD00"/>
<path d="M21.6837 18.5151H18.2579L18.8664 15.0506H24.4197L24.7838 12.9149H18.5358C17.6733 12.9149 16.8396 13.63 16.6911 14.4997L15.8909 19.0659C15.7424 19.9357 16.3221 20.6508 17.1846 20.6508H22.0143C22.8768 20.6508 23.7105 19.9357 23.859 19.0659L24.3478 16.2634H22.0719L21.6837 18.5151Z" fill="#FFCD00"/>
</g>
</g>
</g>
<defs>
<clipPath id="clip0_1_4762">
<rect width="37.5" height="24" fill="white" transform="translate(0.52002 0.549927)"/>
</clipPath>
<clipPath id="clip1_1_4762">
<rect width="37.5" height="24" fill="white" transform="translate(0.52002 0.549927)"/>
</clipPath>
<clipPath id="clip2_1_4762">
<rect width="37.5" height="24" fill="white" transform="translate(0.52002 0.549927)"/>
</clipPath>
</defs>
</svg>
