<svg width="71" height="13" viewBox="0 0 71 13" fill="none" xmlns="http://www.w3.org/2000/svg">
<path d="M4.80642 9.657C3.69213 9.657 2.73571 9.267 1.92785 8.46843C1.11999 7.67914 0.720703 6.67628 0.720703 5.45057C0.720703 4.22486 1.11999 3.222 1.92785 2.43271C2.73571 1.63414 3.71999 1.24414 4.8807 1.24414C5.74427 1.24414 6.52428 1.45771 7.19285 1.89414C7.8707 2.32128 8.36285 2.93414 8.65999 3.72343H7.05356C6.61713 2.897 5.89285 2.47914 4.87142 2.47914C4.05428 2.47914 3.3857 2.74843 2.8657 3.29628C2.3457 3.84414 2.0857 4.55914 2.0857 5.45985C2.0857 6.36057 2.3457 7.07557 2.8657 7.62343C3.3857 8.17128 4.0357 8.44057 4.80642 8.44057C5.57713 8.44057 6.19927 8.23628 6.65427 7.81843C7.10927 7.40057 7.38785 6.84343 7.48071 6.12843H4.4257V5.06985H8.9107V6.12843C8.78999 7.11271 8.34427 7.94843 7.60142 8.63557C6.84927 9.32271 5.9207 9.657 4.80642 9.657Z" fill="#00B490"/>
<path d="M13.0336 9.69407C12.0957 9.69407 11.3157 9.38764 10.7028 8.76549C10.09 8.14335 9.79285 7.33549 9.79285 6.32335C9.79285 5.31121 10.1086 4.50335 10.74 3.88121C11.3714 3.25907 12.1514 2.95264 13.0893 2.95264C14.0271 2.95264 14.8071 3.25907 15.4386 3.88121C16.07 4.50335 16.3857 5.31121 16.3857 6.31406C16.3857 7.31692 16.0607 8.13407 15.42 8.75621C14.7793 9.37835 13.9807 9.69407 13.0428 9.69407H13.0336ZM14.4264 7.96692C14.8164 7.57692 15.0114 7.01978 15.0114 6.32335C15.0114 5.62692 14.8257 5.06978 14.445 4.67978C14.0643 4.28978 13.6093 4.09478 13.0707 4.09478C12.5321 4.09478 12.0771 4.28978 11.715 4.67978C11.3436 5.06978 11.1671 5.61764 11.1671 6.32335C11.1671 7.02906 11.3436 7.57692 11.7057 7.96692C12.0678 8.35692 12.5136 8.55192 13.0428 8.55192C13.5721 8.55192 14.0364 8.35692 14.4357 7.95764L14.4264 7.96692Z" fill="#00B490"/>
<path d="M20.5085 9.69407C19.5707 9.69407 18.7907 9.38764 18.1778 8.76549C17.565 8.14335 17.2678 7.33549 17.2678 6.32335C17.2678 5.31121 17.5835 4.50335 18.215 3.88121C18.8464 3.25907 19.6264 2.95264 20.5643 2.95264C21.5021 2.95264 22.2821 3.25907 22.9135 3.88121C23.545 4.50335 23.8607 5.31121 23.8607 6.31406C23.8607 7.31692 23.5357 8.13407 22.895 8.75621C22.2543 9.37835 21.4557 9.69407 20.5178 9.69407H20.5085ZM21.9014 7.96692C22.2914 7.57692 22.4864 7.01978 22.4864 6.32335C22.4864 5.62692 22.3007 5.06978 21.92 4.67978C21.5393 4.28978 21.0843 4.09478 20.5457 4.09478C20.0071 4.09478 19.5521 4.28978 19.19 4.67978C18.8185 5.06978 18.6421 5.61764 18.6421 6.32335C18.6421 7.02906 18.8185 7.57692 19.1807 7.96692C19.5428 8.35692 19.9885 8.55192 20.5178 8.55192C21.0471 8.55192 21.5114 8.35692 21.9107 7.95764L21.9014 7.96692Z" fill="#00B490"/>
<path d="M25.6157 8.73764C25.0307 8.10621 24.7336 7.28907 24.7336 6.29549C24.7336 5.30192 25.0214 4.49407 25.6064 3.88121C26.1914 3.26835 26.9157 2.95264 27.7793 2.95264C28.29 2.95264 28.7357 3.07335 29.1257 3.30549C29.5157 3.53764 29.8129 3.84407 30.0264 4.22478V3.06407H31.3729V9.70335C31.3729 10.6226 31.0943 11.3655 30.5372 11.9505C29.98 12.5262 29.2372 12.8234 28.3086 12.8234C27.38 12.8234 26.6279 12.6191 26.0429 12.2012C25.4672 11.7834 25.1329 11.2262 25.0586 10.5112H26.3864C26.4886 10.8548 26.7022 11.1241 27.0364 11.3376C27.3707 11.5512 27.7886 11.6534 28.2807 11.6534C28.7729 11.6534 29.2 11.4862 29.525 11.1519C29.8593 10.8176 30.0264 10.3348 30.0264 9.70335V8.37549C29.8036 8.77478 29.5064 9.09978 29.1257 9.34121C28.745 9.58264 28.2993 9.70335 27.7886 9.70335C26.925 9.70335 26.21 9.38764 25.625 8.74692L25.6157 8.73764ZM29.4414 7.92049C29.8314 7.52121 30.0172 6.98264 30.0172 6.31406C30.0172 5.64549 29.8222 5.10692 29.4414 4.71692C29.0607 4.32692 28.5964 4.12264 28.0672 4.12264C27.5379 4.12264 27.0736 4.31764 26.6929 4.70764C26.3122 5.09764 26.1172 5.62692 26.1172 6.29549C26.1172 6.96407 26.3122 7.50264 26.6929 7.91121C27.0829 8.31978 27.5379 8.52407 28.0672 8.52407C28.5964 8.52407 29.0607 8.32906 29.4414 7.92978V7.92049Z" fill="#00B490"/>
<path d="M33.1279 9.58262V0.807617H34.465V9.58262H33.1279Z" fill="#00B490"/>
<path d="M38.9407 9.69407C38.0029 9.69407 37.2414 9.38765 36.6564 8.7655C36.0714 8.14336 35.7743 7.3355 35.7743 6.31407C35.7743 5.29264 36.0714 4.4755 36.6657 3.86264C37.26 3.24979 38.0307 2.94336 38.9686 2.94336C39.9064 2.94336 40.6772 3.2405 41.2622 3.8255C41.8472 4.4105 42.1443 5.18122 42.1443 6.12836C42.1443 6.3605 42.1257 6.57407 42.0979 6.76907H37.1486C37.1764 7.31693 37.3621 7.74407 37.6964 8.06907C38.0307 8.38479 38.4486 8.55193 38.9407 8.55193C39.665 8.55193 40.1757 8.2455 40.4729 7.64193H41.9121C41.7171 8.2455 41.3643 8.73765 40.8443 9.11836C40.3243 9.49907 39.6929 9.69407 38.9314 9.69407H38.9407ZM40.2222 4.56836C39.8786 4.25265 39.4607 4.0855 38.9686 4.0855C38.4764 4.0855 38.0679 4.24336 37.7336 4.56836C37.3993 4.88407 37.2136 5.3205 37.1671 5.84979H40.7514C40.7514 5.31122 40.5657 4.88407 40.2222 4.56836Z" fill="#00B490"/>
<path d="M51.9128 2.04262C52.4143 2.50691 52.665 3.08262 52.665 3.76976C52.665 4.45691 52.4328 5.04191 51.9593 5.52476C51.4857 6.00762 50.7614 6.23976 49.7864 6.23976H48.31V9.58262H46.9728V1.34619H49.7864C50.7057 1.34619 51.4207 1.57833 51.9221 2.04262H51.9128ZM48.3007 5.19048H49.7771C50.2878 5.19048 50.6686 5.06976 50.91 4.81905C51.1607 4.57762 51.2814 4.23405 51.2814 3.79762C51.2814 3.36119 51.1607 3.01762 50.91 2.77619C50.6593 2.53476 50.2786 2.40476 49.7771 2.40476H48.3007V5.19048Z" fill="#00B490"/>
<path d="M53.9371 9.58262V0.807617H55.2743V9.58262H53.9371Z" fill="#00B490"/>
<path d="M57.4657 8.73764C56.8807 8.10621 56.5836 7.28907 56.5836 6.29549C56.5836 5.30192 56.8714 4.49407 57.4564 3.88121C58.0414 3.26835 58.7657 2.95264 59.6293 2.95264C60.14 2.95264 60.5857 3.07335 60.9757 3.30549C61.3657 3.53764 61.6628 3.84407 61.8764 4.22478V3.06407H63.2228V9.59192H61.8764V8.37549C61.6536 8.77478 61.3564 9.09978 60.9757 9.34121C60.595 9.58264 60.1493 9.70335 59.6386 9.70335C58.775 9.70335 58.06 9.38764 57.475 8.74692L57.4657 8.73764ZM61.2914 7.92049C61.6814 7.52121 61.8671 6.98264 61.8671 6.31406C61.8671 5.64549 61.6721 5.10692 61.2914 4.71692C60.9107 4.32692 60.4464 4.12264 59.9171 4.12264C59.3878 4.12264 58.9236 4.31764 58.5428 4.70764C58.1621 5.09764 57.9671 5.62692 57.9671 6.29549C57.9671 6.96407 58.1621 7.50264 58.5428 7.91121C58.9328 8.31978 59.3878 8.52407 59.9171 8.52407C60.4464 8.52407 60.9107 8.32906 61.2914 7.92978V7.92049Z" fill="#00B490"/>
<path d="M66.7607 9.4804L64.2164 3.05469H65.7021L67.5221 8.03183L69.4071 3.05469H70.7907L66.8257 12.6561H65.4421L66.7514 9.4804H66.7607Z" fill="#00B490"/>
</svg>
