<svg width="13" height="20" viewBox="0 0 13 20" fill="none" xmlns="http://www.w3.org/2000/svg">
<path d="M4.10653 14.3865C4.23934 14.5271 4.40145 14.5974 4.59286 14.5974C4.78427 14.5974 4.95028 14.5271 5.09091 14.3865L9.23934 10.238L5.09091 6.0896C5.00497 5.99585 4.8995 5.9314 4.7745 5.89624C4.6495 5.86108 4.52645 5.85913 4.40536 5.89038C4.28427 5.92163 4.1788 5.98218 4.08895 6.07202C3.99911 6.16187 3.93856 6.26733 3.90731 6.38843C3.87606 6.50952 3.87802 6.63062 3.91317 6.75171C3.94833 6.8728 4.01278 6.98022 4.10653 7.07397L7.27059 10.238L4.10653 13.4138C3.96591 13.5466 3.89559 13.7087 3.89559 13.9001C3.89559 14.0916 3.96591 14.2537 4.10653 14.3865Z" fill="#00B490"/>
</svg>
