<svg width="35" height="23" viewBox="0 0 35 23" fill="none" xmlns="http://www.w3.org/2000/svg">
<g clip-path="url(#clip0_1_2302)">
<g clip-path="url(#clip1_1_2302)">
<g clip-path="url(#clip2_1_2302)">
<path d="M33.25 0.54248H1.75C0.783502 0.54248 0 1.32598 0 2.29248V20.6675C0 21.634 0.783502 22.4175 1.75 22.4175H33.25C34.2165 22.4175 35 21.634 35 20.6675V2.29248C35 1.32598 34.2165 0.54248 33.25 0.54248Z" fill="white"/>
<path fill-rule="evenodd" clip-rule="evenodd" d="M10.2812 4.47998C9.07314 4.47998 8.09375 5.45937 8.09375 6.66748V12.6806C8.69523 12.9488 9.31643 13.1152 9.94505 13.1152C10.7696 13.1152 11.227 12.6134 11.227 11.9411V9.18052H13.2708V11.9411C13.2708 13.0166 12.607 13.8862 10.3305 13.8862C10.3305 13.8862 9.13034 13.8862 8.09375 13.6416V18.48H11.5938C12.8019 18.48 13.7812 17.5006 13.7812 16.2925V4.47998H10.2812Z" fill="#1E4F8F"/>
<path fill-rule="evenodd" clip-rule="evenodd" d="M16.8438 4.47998C15.6356 4.47998 14.6562 5.45937 14.6562 6.66748V9.68142C15.2794 9.25076 16.2776 8.99424 17.8054 9.06354C17.8054 9.06354 18.711 9.09946 19.6702 9.34187V10.3455C19.1958 10.1037 18.613 9.87963 17.8772 9.82538C16.5875 9.72738 15.8165 10.3546 15.8165 11.466C15.8165 12.5775 16.5875 13.2047 17.8772 13.1067C18.613 13.0525 19.2049 12.8199 19.6702 12.5775V13.5902C18.711 13.8327 17.8054 13.8686 17.8054 13.8686C16.2776 13.9379 15.2794 13.6813 14.6562 13.2507V18.48H18.1562C19.3644 18.48 20.3438 17.5006 20.3438 16.2925V4.47998H16.8438Z" fill="#D8203B"/>
<path fill-rule="evenodd" clip-rule="evenodd" d="M23.4062 4.47998C22.1981 4.47998 21.2188 5.45937 21.2188 6.66748V9.18048H24.4127C24.4576 9.18048 24.5074 9.18306 24.5521 9.18538C24.5884 9.18728 24.6214 9.18899 24.6455 9.18899C25.4074 9.22493 25.9717 9.61958 25.9717 10.301C25.9717 10.8297 25.5863 11.287 24.8872 11.3857V11.4125C25.6583 11.466 26.2502 11.8967 26.2502 12.5598C26.2502 13.2858 25.6047 13.7516 24.7356 13.7516H21.2188V18.48H24.7188C25.9269 18.48 26.9062 17.5006 26.9062 16.2925V4.47998H23.4062ZM23.4627 9.88814H22.216V11.0446H23.4627C23.5073 11.0446 23.5699 11.0446 23.5974 11.0355C23.8573 10.9911 24.0717 10.7846 24.0717 10.471C24.0717 10.1574 23.8575 9.94237 23.5974 9.89728C23.5852 9.89728 23.5664 9.89551 23.5452 9.89352C23.5183 9.891 23.4876 9.88814 23.4627 9.88814ZM23.5883 13.0081C23.6327 13.0081 23.7136 12.9989 23.749 12.9898C24.0181 12.9362 24.2338 12.7029 24.2338 12.3802C24.2338 12.0666 24.0181 11.8248 23.749 11.7706C23.7136 11.7621 23.6327 11.7529 23.5883 11.7529H22.216V13.0081H23.5883Z" fill="#4DAD47"/>
<path fill-rule="evenodd" clip-rule="evenodd" d="M33.25 0.97998H1.75C1.02513 0.97998 0.4375 1.56761 0.4375 2.29248V20.6675C0.4375 21.3924 1.02513 21.98 1.75 21.98H33.25C33.9749 21.98 34.5625 21.3924 34.5625 20.6675V2.29248C34.5625 1.56761 33.9749 0.97998 33.25 0.97998ZM1.75 0.54248C0.783501 0.54248 0 1.32598 0 2.29248V20.6675C0 21.634 0.783501 22.4175 1.75 22.4175H33.25C34.2164 22.4175 35 21.634 35 20.6675V2.29248C35 1.32598 34.2164 0.54248 33.25 0.54248H1.75Z" fill="#DDDDD8"/>
</g>
</g>
</g>
<defs>
<clipPath id="clip0_1_2302">
<rect y="0.47998" width="35" height="22" rx="5" fill="white"/>
</clipPath>
<clipPath id="clip1_1_2302">
<rect width="35" height="22" fill="white" transform="translate(0 0.47998)"/>
</clipPath>
<clipPath id="clip2_1_2302">
<rect width="35" height="21.875" fill="white" transform="translate(0 0.54248)"/>
</clipPath>
</defs>
</svg>
