<svg width="35" height="23" viewBox="0 0 35 23" fill="none" xmlns="http://www.w3.org/2000/svg">
<g clip-path="url(#clip0_1_517)">
<g clip-path="url(#clip1_1_517)">
<g clip-path="url(#clip2_1_517)">
<path d="M33.25 1.03223H1.75C0.783502 1.03223 0 1.81573 0 2.78223V21.1572C0 22.1237 0.783502 22.9072 1.75 22.9072H33.25C34.2165 22.9072 35 22.1237 35 21.1572V2.78223C35 1.81573 34.2165 1.03223 33.25 1.03223Z" fill="white"/>
<path fill-rule="evenodd" clip-rule="evenodd" d="M10.2812 4.96973C9.07314 4.96973 8.09375 5.94911 8.09375 7.15723V13.1704C8.69523 13.4386 9.31643 13.605 9.94505 13.605C10.7696 13.605 11.227 13.1032 11.227 12.4308V9.67027H13.2708V12.4308C13.2708 13.5063 12.607 14.376 10.3305 14.376C10.3305 14.376 9.13034 14.376 8.09375 14.1314V18.9697H11.5938C12.8019 18.9697 13.7812 17.9903 13.7812 16.7822V4.96973H10.2812Z" fill="#1E4F8F"/>
<path fill-rule="evenodd" clip-rule="evenodd" d="M16.8438 4.96973C15.6356 4.96973 14.6562 5.94911 14.6562 7.15723V10.1712C15.2794 9.74051 16.2776 9.48398 17.8054 9.55328C17.8054 9.55328 18.711 9.5892 19.6702 9.83162V10.8352C19.1958 10.5935 18.613 10.3694 17.8772 10.3151C16.5875 10.2171 15.8165 10.8444 15.8165 11.9558C15.8165 13.0672 16.5875 13.6945 17.8772 13.5965C18.613 13.5422 19.2049 13.3096 19.6702 13.0672V14.08C18.711 14.3224 17.8054 14.3583 17.8054 14.3583C16.2776 14.4276 15.2794 14.1711 14.6562 13.7404V18.9697H18.1562C19.3644 18.9697 20.3438 17.9903 20.3438 16.7822V4.96973H16.8438Z" fill="#D8203B"/>
<path fill-rule="evenodd" clip-rule="evenodd" d="M23.4062 4.96973C22.1981 4.96973 21.2188 5.94911 21.2188 7.15723V9.67023H24.4127C24.4576 9.67023 24.5074 9.67281 24.5521 9.67513C24.5884 9.67703 24.6214 9.67874 24.6455 9.67874C25.4074 9.71468 25.9717 10.1093 25.9717 10.7908C25.9717 11.3194 25.5863 11.7768 24.8872 11.8754V11.9022C25.6583 11.9558 26.2502 12.3864 26.2502 13.0496C26.2502 13.7755 25.6047 14.2414 24.7356 14.2414H21.2188V18.9697H24.7188C25.9269 18.9697 26.9062 17.9903 26.9062 16.7822V4.96973H23.4062ZM23.4627 10.3779H22.216V11.5344H23.4627C23.5073 11.5344 23.5699 11.5344 23.5974 11.5252C23.8573 11.4808 24.0717 11.2743 24.0717 10.9607C24.0717 10.6471 23.8575 10.4321 23.5974 10.387C23.5852 10.387 23.5664 10.3853 23.5452 10.3833C23.5183 10.3807 23.4876 10.3779 23.4627 10.3779ZM23.5883 13.4978C23.6327 13.4978 23.7136 13.4887 23.749 13.4795C24.0181 13.4259 24.2338 13.1927 24.2338 12.8699C24.2338 12.5563 24.0181 12.3145 23.749 12.2603C23.7136 12.2518 23.6327 12.2427 23.5883 12.2427H22.216V13.4978H23.5883Z" fill="#4DAD47"/>
<path fill-rule="evenodd" clip-rule="evenodd" d="M33.25 1.46973H1.75C1.02513 1.46973 0.4375 2.05735 0.4375 2.78223V21.1572C0.4375 21.8821 1.02513 22.4697 1.75 22.4697H33.25C33.9749 22.4697 34.5625 21.8821 34.5625 21.1572V2.78223C34.5625 2.05735 33.9749 1.46973 33.25 1.46973ZM1.75 1.03223C0.783501 1.03223 0 1.81573 0 2.78223V21.1572C0 22.1237 0.783501 22.9072 1.75 22.9072H33.25C34.2164 22.9072 35 22.1237 35 21.1572V2.78223C35 1.81573 34.2164 1.03223 33.25 1.03223H1.75Z" fill="#DDDDD8"/>
</g>
</g>
</g>
<defs>
<clipPath id="clip0_1_517">
<rect y="0.969727" width="35" height="22" rx="5" fill="white"/>
</clipPath>
<clipPath id="clip1_1_517">
<rect width="35" height="22" fill="white" transform="translate(0 0.969727)"/>
</clipPath>
<clipPath id="clip2_1_517">
<rect width="35" height="21.875" fill="white" transform="translate(0 1.03223)"/>
</clipPath>
</defs>
</svg>
