<svg width="35" height="23" viewBox="0 0 35 23" fill="none" xmlns="http://www.w3.org/2000/svg">
<g clip-path="url(#clip0_1_5204)">
<g clip-path="url(#clip1_1_5204)">
<g clip-path="url(#clip2_1_5204)">
<path d="M33.25 0.472656H1.75C0.783502 0.472656 0 1.25616 0 2.22266V20.5977C0 21.5642 0.783502 22.3477 1.75 22.3477H33.25C34.2165 22.3477 35 21.5642 35 20.5977V2.22266C35 1.25616 34.2165 0.472656 33.25 0.472656Z" fill="white"/>
<path fill-rule="evenodd" clip-rule="evenodd" d="M10.2812 4.41016C9.07314 4.41016 8.09375 5.38954 8.09375 6.59766V12.6108C8.69523 12.879 9.31643 13.0454 9.94505 13.0454C10.7696 13.0454 11.227 12.5436 11.227 11.8713V9.1107H13.2708V11.8713C13.2708 12.9467 12.607 13.8164 10.3305 13.8164C10.3305 13.8164 9.13034 13.8164 8.09375 13.5718V18.4102H11.5938C12.8019 18.4102 13.7812 17.4308 13.7812 16.2227V4.41016H10.2812Z" fill="#1E4F8F"/>
<path fill-rule="evenodd" clip-rule="evenodd" d="M16.8438 4.41016C15.6356 4.41016 14.6562 5.38954 14.6562 6.59766V9.61159C15.2794 9.18094 16.2776 8.92441 17.8054 8.99371C17.8054 8.99371 18.711 9.02963 19.6702 9.27205V10.2757C19.1958 10.0339 18.613 9.8098 17.8772 9.75555C16.5875 9.65755 15.8165 10.2848 15.8165 11.3962C15.8165 12.5076 16.5875 13.1349 17.8772 13.0369C18.613 12.9827 19.2049 12.7501 19.6702 12.5076V13.5204C18.711 13.7628 17.8054 13.7988 17.8054 13.7988C16.2776 13.8681 15.2794 13.6115 14.6562 13.1809V18.4102H18.1562C19.3644 18.4102 20.3438 17.4308 20.3438 16.2227V4.41016H16.8438Z" fill="#D8203B"/>
<path fill-rule="evenodd" clip-rule="evenodd" d="M23.4062 4.41016C22.1981 4.41016 21.2188 5.38954 21.2188 6.59766V9.11066H24.4127C24.4576 9.11066 24.5074 9.11324 24.5521 9.11556C24.5884 9.11746 24.6214 9.11917 24.6455 9.11917C25.4074 9.15511 25.9717 9.54975 25.9717 10.2312C25.9717 10.7598 25.5863 11.2172 24.8872 11.3159V11.3426C25.6583 11.3962 26.2502 11.8268 26.2502 12.49C26.2502 13.2159 25.6047 13.6818 24.7356 13.6818H21.2188V18.4102H24.7188C25.9269 18.4102 26.9062 17.4308 26.9062 16.2227V4.41016H23.4062ZM23.4627 9.81831H22.216V10.9748H23.4627C23.5073 10.9748 23.5699 10.9748 23.5974 10.9657C23.8573 10.9212 24.0717 10.7147 24.0717 10.4011C24.0717 10.0875 23.8575 9.87254 23.5974 9.82746C23.5852 9.82746 23.5664 9.82568 23.5452 9.82369C23.5183 9.82118 23.4876 9.81831 23.4627 9.81831ZM23.5883 12.9382C23.6327 12.9382 23.7136 12.9291 23.749 12.9199C24.0181 12.8664 24.2338 12.6331 24.2338 12.3104C24.2338 11.9967 24.0181 11.755 23.749 11.7007C23.7136 11.6922 23.6327 11.6831 23.5883 11.6831H22.216V12.9382H23.5883Z" fill="#4DAD47"/>
<path fill-rule="evenodd" clip-rule="evenodd" d="M33.25 0.910156H1.75C1.02513 0.910156 0.4375 1.49778 0.4375 2.22266V20.5977C0.4375 21.3225 1.02513 21.9102 1.75 21.9102H33.25C33.9749 21.9102 34.5625 21.3225 34.5625 20.5977V2.22266C34.5625 1.49778 33.9749 0.910156 33.25 0.910156ZM1.75 0.472656C0.783501 0.472656 0 1.25616 0 2.22266V20.5977C0 21.5642 0.783501 22.3477 1.75 22.3477H33.25C34.2164 22.3477 35 21.5642 35 20.5977V2.22266C35 1.25616 34.2164 0.472656 33.25 0.472656H1.75Z" fill="#DDDDD8"/>
</g>
</g>
</g>
<defs>
<clipPath id="clip0_1_5204">
<rect y="0.410156" width="35" height="22" rx="5" fill="white"/>
</clipPath>
<clipPath id="clip1_1_5204">
<rect width="35" height="22" fill="white" transform="translate(0 0.410156)"/>
</clipPath>
<clipPath id="clip2_1_5204">
<rect width="35" height="21.875" fill="white" transform="translate(0 0.472656)"/>
</clipPath>
</defs>
</svg>
