<svg width="39" height="25" viewBox="0 0 39 25" fill="none" xmlns="http://www.w3.org/2000/svg">
<g clip-path="url(#clip0_1_4706)">
<g clip-path="url(#clip1_1_4706)">
<g clip-path="url(#clip2_1_4706)">
<path d="M0.560059 2.4726C0.560059 1.41249 1.41945 0.553101 2.47956 0.553101H37.0306C38.0906 0.553101 38.9501 1.41249 38.9501 2.4726V22.6273C38.9501 23.6875 38.0906 24.5469 37.0306 24.5469H2.47956C1.41945 24.5469 0.560059 23.6875 0.560059 22.6273V2.4726Z" fill="white"/>
<path fill-rule="evenodd" clip-rule="evenodd" d="M37.0306 1.03298H2.47956C1.68448 1.03298 1.03993 1.67752 1.03993 2.4726V22.6273C1.03993 23.4224 1.68448 24.067 2.47956 24.067H37.0306C37.8257 24.067 38.4702 23.4224 38.4702 22.6273V2.4726C38.4702 1.67752 37.8257 1.03298 37.0306 1.03298ZM2.47956 0.553101C1.41945 0.553101 0.560059 1.41249 0.560059 2.4726V22.6273C0.560059 23.6875 1.41945 24.5469 2.47956 24.5469H37.0306C38.0906 24.5469 38.9501 23.6875 38.9501 22.6273V2.4726C38.9501 1.41249 38.0906 0.553101 37.0306 0.553101H2.47956Z" fill="#DDDDD8"/>
<path fill-rule="evenodd" clip-rule="evenodd" d="M11.8374 4.87195C10.5122 4.87195 9.43799 5.9462 9.43799 7.27132V13.8669C10.0977 14.1611 10.7791 14.3436 11.4686 14.3436C12.373 14.3436 12.8747 13.7932 12.8747 13.0557V10.0278H15.1165V13.0557C15.1165 14.2354 14.3883 15.1893 11.8914 15.1893C11.8914 15.1893 10.575 15.1893 9.43799 14.921V20.2279H13.277C14.6021 20.2279 15.6764 19.1537 15.6764 17.8286V4.87195H11.8374Z" fill="#1E4F8F"/>
<path fill-rule="evenodd" clip-rule="evenodd" d="M19.0351 4.87195C17.71 4.87195 16.6357 5.9462 16.6357 7.27132V10.5772C17.3193 10.1048 18.4141 9.82344 20.0899 9.89945C20.0899 9.89945 21.0832 9.93885 22.1353 10.2048V11.3056C21.615 11.0404 20.9757 10.7946 20.1687 10.7351C18.754 10.6276 17.9083 11.3156 17.9083 12.5347C17.9083 13.7537 18.754 14.4418 20.1687 14.3342C20.9757 14.2748 21.625 14.0196 22.1353 13.7537V14.8646C21.0832 15.1305 20.0899 15.1699 20.0899 15.1699C18.4141 15.2459 17.3193 14.9645 16.6357 14.4922V20.2279H20.4747C21.7999 20.2279 22.8741 19.1537 22.8741 17.8286V4.87195H19.0351Z" fill="#D8203B"/>
<path fill-rule="evenodd" clip-rule="evenodd" d="M26.2334 4.87195C24.9082 4.87195 23.834 5.9462 23.834 7.27132V10.0277H27.3373C27.3865 10.0277 27.4412 10.0306 27.4902 10.0331C27.53 10.0352 27.5662 10.0371 27.5926 10.0371C28.4283 10.0765 29.0473 10.5094 29.0473 11.2568C29.0473 11.8366 28.6246 12.3383 27.8577 12.4465V12.4759C28.7035 12.5347 29.3528 13.007 29.3528 13.7344C29.3528 14.5306 28.6447 15.0416 27.6915 15.0416H23.834V20.2279H27.673C28.9982 20.2279 30.0724 19.1537 30.0724 17.8286V4.87195H26.2334ZM26.2953 10.8039H24.9279V12.0724H26.2953C26.3442 12.0724 26.4128 12.0724 26.4431 12.0624C26.7281 12.0137 26.9632 11.7872 26.9632 11.4432C26.9632 11.0992 26.7284 10.8634 26.4431 10.814C26.4296 10.814 26.409 10.812 26.3857 10.8098C26.3562 10.8071 26.3226 10.8039 26.2953 10.8039ZM26.433 14.226C26.4817 14.226 26.5705 14.216 26.6093 14.206C26.9045 14.1472 27.141 13.8913 27.141 13.5373C27.141 13.1933 26.9045 12.9282 26.6093 12.8687C26.5705 12.8593 26.4817 12.8493 26.433 12.8493H24.9279V14.226H26.433Z" fill="#4DAD47"/>
</g>
</g>
</g>
<defs>
<clipPath id="clip0_1_4706">
<rect width="38.39" height="24" fill="white" transform="translate(0.560059 0.549927)"/>
</clipPath>
<clipPath id="clip1_1_4706">
<rect width="38.39" height="24" fill="white" transform="translate(0.560059 0.549927)"/>
</clipPath>
<clipPath id="clip2_1_4706">
<rect width="38.39" height="23.9937" fill="white" transform="translate(0.560059 0.553101)"/>
</clipPath>
</defs>
</svg>
