<svg width="21" height="21" viewBox="0 0 21 21" fill="none" xmlns="http://www.w3.org/2000/svg">
<g clip-path="url(#clip0_1_37)">
<g clip-path="url(#clip1_1_37)">
<g clip-path="url(#clip2_1_37)">
<path d="M10.92 0.360001C5.40377 0.360001 0.920044 4.84372 0.920044 10.36C0.920044 15.8763 5.40377 20.36 10.92 20.36C16.4363 20.36 20.92 15.8763 20.92 10.36C20.92 4.84372 16.4363 0.360001 10.92 0.360001ZM19.4875 9.66233H15.2921C15.1061 6.85302 14.1386 4.17395 12.4921 1.90419C16.2596 2.60186 19.1712 5.76465 19.4875 9.66233ZM7.934 11.0577H13.8968C13.6921 13.8205 12.6596 16.4437 10.92 18.5926C9.17121 16.4437 8.13865 13.8019 7.9433 11.0577H7.934ZM7.934 9.66233C8.13865 6.89954 9.17121 4.27628 10.9107 2.12744C12.6596 4.27628 13.6921 6.91814 13.8875 9.66233H7.9247H7.934ZM9.33865 1.90419C7.70144 4.16465 6.734 6.84372 6.53865 9.66233H2.3526C2.66888 5.77395 5.58051 2.61116 9.34795 1.90419H9.33865ZM2.3526 11.0577H6.54795C6.734 13.867 7.70144 16.546 9.34795 18.8158C5.58051 18.1181 2.66888 14.9553 2.3526 11.0577ZM12.4921 18.8158C14.1293 16.5553 15.0968 13.8763 15.2921 11.0577H19.4875C19.1712 14.946 16.2596 18.1088 12.4921 18.8158Z" fill="white"/>
</g>
</g>
</g>
<defs>
<clipPath id="clip0_1_37">
<rect x="0.920044" y="0.360001" width="20" height="20" rx="8" fill="white"/>
</clipPath>
<clipPath id="clip1_1_37">
<rect width="20" height="20" fill="white" transform="translate(0.920044 0.360001)"/>
</clipPath>
<clipPath id="clip2_1_37">
<rect width="20" height="20" fill="white" transform="translate(0.920044 0.360001)"/>
</clipPath>
</defs>
</svg>
