<svg width="28" height="29" viewBox="0 0 28 29" fill="none" xmlns="http://www.w3.org/2000/svg">
<path fill-rule="evenodd" clip-rule="evenodd" d="M26.5 14.3403C26.5 21.2439 20.9036 26.8403 14 26.8403C7.09644 26.8403 1.5 21.2439 1.5 14.3403C1.5 7.43677 7.09644 1.84033 14 1.84033C20.9036 1.84033 26.5 7.43677 26.5 14.3403ZM28 14.3403C28 22.0723 21.732 28.3403 14 28.3403C6.26801 28.3403 0 22.0723 0 14.3403C0 6.60834 6.26801 0.340332 14 0.340332C21.732 0.340332 28 6.60834 28 14.3403ZM14 9.42133C15.602 9.42133 15.792 9.42733 16.4245 9.45633C16.8049 9.46085 17.1818 9.5307 17.5385 9.66283C17.7974 9.76268 18.0324 9.91561 18.2286 10.1118C18.4247 10.3079 18.5777 10.543 18.6775 10.8018C18.8097 11.1586 18.8795 11.5354 18.884 11.9158C18.913 12.5483 18.919 12.7383 18.919 14.3408C18.919 15.9433 18.913 16.1323 18.884 16.7648C18.8795 17.1452 18.8097 17.5221 18.6775 17.8788C18.5777 18.1377 18.4247 18.3727 18.2286 18.5689C18.0324 18.765 17.7974 18.918 17.5385 19.0178C17.1818 19.15 16.8049 19.2198 16.4245 19.2243C15.792 19.2533 15.602 19.2593 14 19.2593C12.398 19.2593 12.208 19.2533 11.5755 19.2243C11.1951 19.2198 10.8183 19.15 10.4615 19.0178C10.2027 18.918 9.96761 18.765 9.77144 18.5689C9.57528 18.3727 9.42235 18.1377 9.3225 17.8788C9.19037 17.5221 9.12052 17.1452 9.116 16.7648C9.087 16.1323 9.081 15.9423 9.081 14.3403C9.081 12.7383 9.087 12.5483 9.116 11.9158C9.12052 11.5354 9.19037 11.1586 9.3225 10.8018C9.42235 10.543 9.57528 10.3079 9.77144 10.1118C9.96761 9.91561 10.2027 9.76268 10.4615 9.66283C10.8183 9.5307 11.1951 9.46085 11.5755 9.45633C12.208 9.42733 12.398 9.42133 14 9.42133ZM14 8.34033C12.3705 8.34033 12.166 8.34733 11.526 8.37633C11.0284 8.38638 10.5361 8.48071 10.07 8.65533C9.67137 8.80948 9.30933 9.04522 9.00711 9.34744C8.70489 9.64966 8.46915 10.0117 8.315 10.4103C8.14033 10.8765 8.04599 11.369 8.036 11.8668C8.007 12.5068 8 12.7103 8 14.3403C8 15.9703 8.007 16.1743 8.036 16.8143C8.04605 17.3119 8.14038 17.8042 8.315 18.2703C8.46915 18.669 8.70489 19.031 9.00711 19.3332C9.30933 19.6354 9.67137 19.8712 10.07 20.0253C10.5362 20.2 11.0287 20.2943 11.5265 20.3043C12.1665 20.3333 12.3705 20.3403 14 20.3403C15.6295 20.3403 15.834 20.3333 16.474 20.3043C16.9718 20.2943 17.4643 20.2 17.9305 20.0253C18.3292 19.8712 18.6912 19.6354 18.9934 19.3332C19.2956 19.031 19.5314 18.669 19.6855 18.2703C19.86 17.8041 19.9542 17.3116 19.964 16.8138C19.993 16.1738 20 15.9703 20 14.3403C20 12.7103 19.993 12.5063 19.964 11.8663C19.954 11.3687 19.8596 10.8764 19.685 10.4103C19.5309 10.0117 19.2951 9.64966 18.9929 9.34744C18.6907 9.04522 18.3287 8.80948 17.93 8.65533C17.4638 8.48083 16.9713 8.38666 16.4735 8.37683C15.8335 8.34683 15.63 8.34033 14 8.34033ZM17.75 11.3402C17.75 11.7544 17.4142 12.0902 17 12.0902C16.5858 12.0902 16.25 11.7544 16.25 11.3402C16.25 10.926 16.5858 10.5902 17 10.5902C17.4142 10.5902 17.75 10.926 17.75 11.3402ZM12.3333 11.8458C12.8266 11.5161 13.4067 11.3402 14 11.3402C14.7957 11.3402 15.5587 11.6563 16.1213 12.2189C16.6839 12.7815 17 13.5446 17 14.3402C17 14.9335 16.8241 15.5136 16.4944 16.0069C16.1648 16.5003 15.6962 16.8848 15.1481 17.1118C14.5999 17.3389 13.9967 17.3983 13.4147 17.2826C12.8328 17.1668 12.2982 16.8811 11.8787 16.4615C11.4591 16.042 11.1734 15.5074 11.0576 14.9255C10.9419 14.3435 11.0013 13.7403 11.2284 13.1921C11.4554 12.644 11.8399 12.1754 12.3333 11.8458ZM12.9181 15.9594C13.2383 16.1734 13.6148 16.2876 14 16.2876C14.5165 16.2876 15.0118 16.0825 15.377 15.7172C15.7423 15.352 15.9474 14.8567 15.9474 14.3402C15.9474 13.955 15.8332 13.5785 15.6192 13.2583C15.4052 12.938 15.1011 12.6884 14.7453 12.541C14.3894 12.3936 13.9978 12.3551 13.6201 12.4302C13.2423 12.5053 12.8953 12.6908 12.623 12.9632C12.3506 13.2355 12.1651 13.5825 12.09 13.9603C12.0149 14.338 12.0534 14.7296 12.2008 15.0854C12.3482 15.4413 12.5978 15.7454 12.9181 15.9594Z" fill="#00B490"/>
</svg>
