<svg width="120" height="36" viewBox="0 0 120 36" fill="none" xmlns="http://www.w3.org/2000/svg">
<g clip-path="url(#clip0_1_368)">
<g clip-path="url(#clip1_1_368)">
<g clip-path="url(#clip2_1_368)">
<path d="M102.696 35.4897H17.3043C7.76785 35.4897 0.0142822 27.7361 0.0142822 18.1997C0.0142822 8.66324 7.76785 0.909668 17.3043 0.909668H102.696C112.232 0.909668 119.986 8.66324 119.986 18.1997C119.986 27.7361 112.232 35.4897 102.696 35.4897ZM17.3043 2.02395C8.39 2.02395 1.12857 9.2761 1.12857 18.1997C1.12857 27.1232 8.38071 34.3754 17.3043 34.3754H102.696C111.619 34.3754 118.871 27.114 118.871 18.1997C118.871 9.28538 111.619 2.02395 102.696 2.02395H17.3043Z" fill="#00B490"/>
<path d="M33.1271 22.6009C33.0993 22.6751 32.7371 23.9659 31.8178 25.2937C31.0286 26.4451 30.2114 27.5966 28.93 27.6151C27.6671 27.6337 27.2586 26.863 25.81 26.863C24.3614 26.863 23.9157 27.5966 22.7178 27.643C21.4828 27.6894 20.5264 26.3894 19.7371 25.2473C18.1214 22.9073 16.8771 18.6173 18.5486 15.748C19.3657 14.3087 20.8514 13.3987 22.4578 13.3709C23.6743 13.3523 24.8257 14.188 25.5593 14.188C26.2928 14.188 27.7136 13.1666 29.1807 13.3151C29.7936 13.343 31.5207 13.5751 32.635 15.1816C32.5514 15.2373 30.5736 16.4073 30.5921 18.7751C30.62 21.6351 33.1086 22.5823 33.1271 22.5916M28.215 11.783C28.8743 10.9751 29.3107 9.86086 29.1993 8.75586C28.2521 8.793 27.1007 9.38729 26.4136 10.1859C25.81 10.8916 25.2714 12.0151 25.42 13.1109C26.4693 13.1759 27.5557 12.563 28.215 11.783Z" fill="#00B490"/>
<path d="M45.8207 23.5851L45.1521 21.6815H41.2428L40.5743 23.5851H38.9771L42.32 14.2344H44.0935L47.4364 23.5851H45.8207ZM41.6514 20.4837H44.725L43.1928 16.0915L41.6514 20.4837Z" fill="#00B490"/>
<path d="M52.9985 16.064C53.9921 16.064 54.8185 16.4168 55.4871 17.1225C56.1464 17.8283 56.4807 18.7383 56.4807 19.8618C56.4807 20.9854 56.1464 21.9047 55.4778 22.629C54.8092 23.3533 53.9828 23.7154 52.9985 23.7154C52.4135 23.7154 51.9028 23.5761 51.4664 23.3068C51.0299 23.0375 50.6771 22.6661 50.4171 22.2111V27.114H48.8849V16.194H50.4171V17.5125C50.6678 17.0854 51.0114 16.7325 51.4571 16.4725C51.9028 16.2125 52.4135 16.0733 52.9985 16.0733V16.064ZM54.2521 21.6911C54.6978 21.2268 54.9207 20.614 54.9207 19.8525C54.9207 19.0911 54.6978 18.4875 54.2521 18.0511C53.8064 17.6147 53.2771 17.3918 52.6642 17.3918C52.0514 17.3918 51.5221 17.6147 51.0764 18.0604C50.6307 18.5061 50.4078 19.1097 50.4078 19.8711C50.4078 20.6325 50.6307 21.2361 51.0764 21.6911C51.5221 22.1461 52.0421 22.369 52.6549 22.369C53.2678 22.369 53.7971 22.1368 54.2428 21.6725L54.2521 21.6911Z" fill="#00B490"/>
<path d="M62.1078 16.064C63.1014 16.064 63.9278 16.4168 64.5964 17.1225C65.2557 17.8283 65.59 18.7383 65.59 19.8618C65.59 20.9854 65.2557 21.9047 64.5871 22.629C63.9186 23.3533 63.0921 23.7154 62.1078 23.7154C61.5228 23.7154 61.0121 23.5761 60.5757 23.3068C60.1393 23.0375 59.7864 22.6661 59.5264 22.2111V27.114H57.9943V16.194H59.5264V17.5125C59.7771 17.0854 60.1207 16.7325 60.5664 16.4725C61.0121 16.2125 61.5228 16.0733 62.1078 16.0733V16.064ZM63.3614 21.6911C63.8071 21.2268 64.03 20.614 64.03 19.8525C64.03 19.0911 63.8071 18.4875 63.3614 18.0511C62.9157 17.6147 62.3864 17.3918 61.7736 17.3918C61.1607 17.3918 60.6314 17.6147 60.1857 18.0604C59.74 18.5061 59.5171 19.1097 59.5171 19.8711C59.5171 20.6325 59.74 21.2361 60.1857 21.6911C60.6314 22.1461 61.1514 22.369 61.7643 22.369C62.3771 22.369 62.9064 22.1368 63.3521 21.6725L63.3614 21.6911Z" fill="#00B490"/>
<path d="M74.04 15.3766C73.585 15.3766 73.2136 15.488 72.9257 15.7295C72.6378 15.9616 72.4986 16.3052 72.4986 16.7416C72.4986 17.178 72.6657 17.5216 73.0093 17.7538C73.3528 17.9859 73.7614 18.153 74.2443 18.2645C74.7271 18.3759 75.21 18.4966 75.6928 18.6359C76.1757 18.7752 76.5843 19.0352 76.9278 19.4066C77.2714 19.7873 77.4386 20.3166 77.4386 21.0038C77.4386 21.6909 77.1507 22.313 76.5657 22.8609C75.9807 23.4088 75.2007 23.678 74.2257 23.678C73.2507 23.678 72.4521 23.4459 71.8486 22.9909C71.2357 22.5359 70.9386 21.9045 70.9386 21.0966H72.5821C72.6193 21.5052 72.7678 21.8395 73.0371 22.0809C73.3064 22.3223 73.6964 22.443 74.2164 22.443C74.7364 22.443 75.145 22.313 75.4421 22.0438C75.7393 21.7745 75.8878 21.4588 75.8878 21.0873C75.8878 20.7159 75.795 20.4373 75.6093 20.2238C75.4236 20.0195 75.1914 19.8616 74.8943 19.7595C74.6064 19.6573 74.2814 19.5645 73.9378 19.4809C73.585 19.3973 73.2414 19.3045 72.8793 19.2023C72.5264 19.0909 72.2014 18.9609 71.9136 18.7845C71.6257 18.6173 71.3843 18.3666 71.1986 18.0416C71.0128 17.7166 70.92 17.3173 70.92 16.8438C70.92 16.0266 71.2171 15.3766 71.8021 14.8752C72.3871 14.3738 73.1486 14.1323 74.0864 14.1323C75.0243 14.1323 75.7671 14.3459 76.3336 14.773C76.9 15.2002 77.2064 15.8223 77.2714 16.6395H75.5814C75.5443 16.2773 75.3957 15.9802 75.1264 15.7388C74.8571 15.4973 74.495 15.3766 74.04 15.3766Z" fill="#00B490"/>
<path d="M82.8428 17.4378H81.0414V21.5328C81.0414 21.8114 81.1064 22.0064 81.2364 22.1271C81.3664 22.2478 81.5893 22.3128 81.905 22.3128H82.8428V23.5943H81.6357C80.215 23.5943 79.5 22.9071 79.5 21.5421V17.4471H78.6271V16.1936H79.5V14.355H81.0414V16.1936H82.8428V17.4471V17.4378Z" fill="#00B490"/>
<path d="M87.4671 23.7061C86.39 23.7061 85.4985 23.3533 84.8021 22.6475C84.1057 21.9418 83.7528 21.0225 83.7528 19.8804C83.7528 18.7383 84.1149 17.819 84.8392 17.1133C85.5635 16.4075 86.455 16.0547 87.5321 16.0547C88.6092 16.0547 89.5007 16.4075 90.225 17.1133C90.9492 17.819 91.3114 18.7383 91.3114 19.8711C91.3114 21.004 90.9399 21.9325 90.2064 22.6383C89.4635 23.344 88.5535 23.6968 87.4764 23.6968L87.4671 23.7061ZM89.0549 21.7468C89.5007 21.3011 89.7235 20.679 89.7235 19.8804C89.7235 19.0818 89.51 18.4597 89.0735 18.0233C88.6371 17.5868 88.1171 17.3547 87.4949 17.3547C86.8728 17.3547 86.3528 17.5775 85.9349 18.0233C85.5171 18.469 85.3035 19.0911 85.3035 19.8897C85.3035 20.6883 85.5078 21.3104 85.9257 21.7561C86.3435 22.2018 86.8542 22.4247 87.4671 22.4247C88.08 22.4247 88.6092 22.2018 89.0549 21.7561V21.7468Z" fill="#00B490"/>
<path d="M94.3571 16.1847V17.4754C94.8307 16.5375 95.5735 16.064 96.5764 16.064V17.6518H96.1864C95.5828 17.6518 95.1278 17.8004 94.8214 18.1068C94.515 18.4133 94.3571 18.9425 94.3571 19.6947V23.5947H92.825V16.194H94.3571V16.1847Z" fill="#00B490"/>
<path d="M101.099 23.7061C100.021 23.7061 99.1485 23.3533 98.48 22.6568C97.8114 21.9604 97.4771 21.0318 97.4771 19.8711C97.4771 18.7104 97.8207 17.7911 98.4985 17.0947C99.1764 16.3983 100.059 16.0547 101.136 16.0547C102.213 16.0547 103.095 16.389 103.764 17.0575C104.432 17.7261 104.766 18.599 104.766 19.6668C104.766 19.9268 104.748 20.1683 104.711 20.3911H99.0371C99.0743 21.0133 99.2785 21.4961 99.6593 21.8583C100.04 22.2204 100.514 22.4061 101.089 22.4061C101.925 22.4061 102.51 22.0625 102.854 21.3754H104.506C104.284 22.0533 103.875 22.6104 103.281 23.0468C102.686 23.4833 101.962 23.6968 101.089 23.6968L101.099 23.7061ZM102.566 17.8933C102.176 17.5311 101.693 17.3454 101.126 17.3454C100.56 17.3454 100.086 17.5311 99.7057 17.8933C99.325 18.2554 99.1114 18.7475 99.0557 19.3511H103.169C103.169 18.7383 102.956 18.2554 102.566 17.8933Z" fill="#00B490"/>
</g>
</g>
</g>
<defs>
<clipPath id="clip0_1_368">
<rect y="0.909668" width="120" height="34.58" rx="5" fill="white"/>
</clipPath>
<clipPath id="clip1_1_368">
<rect width="120" height="34.58" fill="white" transform="translate(0 0.909668)"/>
</clipPath>
<clipPath id="clip2_1_368">
<rect width="119.971" height="34.58" fill="white" transform="translate(0.0142822 0.909668)"/>
</clipPath>
</defs>
</svg>
