<svg width="28" height="29" viewBox="0 0 28 29" fill="none" xmlns="http://www.w3.org/2000/svg">
<path fill-rule="evenodd" clip-rule="evenodd" d="M26.5 14.9697C26.5 21.8733 20.9036 27.4697 14 27.4697C7.09644 27.4697 1.5 21.8733 1.5 14.9697C1.5 8.06617 7.09644 2.46973 14 2.46973C20.9036 2.46973 26.5 8.06617 26.5 14.9697ZM28 14.9697C28 22.7017 21.732 28.9697 14 28.9697C6.26801 28.9697 0 22.7017 0 14.9697C0 7.23774 6.26801 0.969727 14 0.969727C21.732 0.969727 28 7.23774 28 14.9697ZM14 10.0507C15.602 10.0507 15.792 10.0567 16.4245 10.0857C16.8049 10.0902 17.1818 10.1601 17.5385 10.2922C17.7974 10.3921 18.0324 10.545 18.2286 10.7412C18.4247 10.9373 18.5777 11.1724 18.6775 11.4312C18.8097 11.788 18.8795 12.1648 18.884 12.5452C18.913 13.1777 18.919 13.3677 18.919 14.9702C18.919 16.5727 18.913 16.7617 18.884 17.3942C18.8795 17.7746 18.8097 18.1515 18.6775 18.5082C18.5777 18.7671 18.4247 19.0021 18.2286 19.1983C18.0324 19.3944 17.7974 19.5474 17.5385 19.6472C17.1818 19.7794 16.8049 19.8492 16.4245 19.8537C15.792 19.8827 15.602 19.8887 14 19.8887C12.398 19.8887 12.208 19.8827 11.5755 19.8537C11.1951 19.8492 10.8183 19.7794 10.4615 19.6472C10.2027 19.5474 9.96761 19.3944 9.77144 19.1983C9.57528 19.0021 9.42235 18.7671 9.3225 18.5082C9.19037 18.1515 9.12052 17.7746 9.116 17.3942C9.087 16.7617 9.081 16.5717 9.081 14.9697C9.081 13.3677 9.087 13.1777 9.116 12.5452C9.12052 12.1648 9.19037 11.788 9.3225 11.4312C9.42235 11.1724 9.57528 10.9373 9.77144 10.7412C9.96761 10.545 10.2027 10.3921 10.4615 10.2922C10.8183 10.1601 11.1951 10.0902 11.5755 10.0857C12.208 10.0567 12.398 10.0507 14 10.0507ZM14 8.96973C12.3705 8.96973 12.166 8.97673 11.526 9.00573C11.0284 9.01578 10.5361 9.11011 10.07 9.28473C9.67137 9.43888 9.30933 9.67462 9.00711 9.97684C8.70489 10.2791 8.46915 10.6411 8.315 11.0397C8.14033 11.5059 8.04599 11.9984 8.036 12.4962C8.007 13.1362 8 13.3397 8 14.9697C8 16.5997 8.007 16.8037 8.036 17.4437C8.04605 17.9413 8.14038 18.4336 8.315 18.8997C8.46915 19.2984 8.70489 19.6604 9.00711 19.9626C9.30933 20.2648 9.67137 20.5006 10.07 20.6547C10.5362 20.8294 11.0287 20.9237 11.5265 20.9337C12.1665 20.9627 12.3705 20.9697 14 20.9697C15.6295 20.9697 15.834 20.9627 16.474 20.9337C16.9718 20.9237 17.4643 20.8294 17.9305 20.6547C18.3292 20.5006 18.6912 20.2648 18.9934 19.9626C19.2956 19.6604 19.5314 19.2984 19.6855 18.8997C19.86 18.4335 19.9542 17.941 19.964 17.4432C19.993 16.8032 20 16.5997 20 14.9697C20 13.3397 19.993 13.1357 19.964 12.4957C19.954 11.9981 19.8596 11.5058 19.685 11.0397C19.5309 10.6411 19.2951 10.2791 18.9929 9.97684C18.6907 9.67462 18.3287 9.43888 17.93 9.28473C17.4638 9.11023 16.9713 9.01606 16.4735 9.00623C15.8335 8.97623 15.63 8.96973 14 8.96973ZM17.75 11.9696C17.75 12.3838 17.4142 12.7196 17 12.7196C16.5858 12.7196 16.25 12.3838 16.25 11.9696C16.25 11.5554 16.5858 11.2196 17 11.2196C17.4142 11.2196 17.75 11.5554 17.75 11.9696ZM12.3333 12.4752C12.8266 12.1455 13.4067 11.9696 14 11.9696C14.7957 11.9696 15.5587 12.2857 16.1213 12.8483C16.6839 13.4109 17 14.174 17 14.9696C17 15.5629 16.8241 16.143 16.4944 16.6363C16.1648 17.1297 15.6962 17.5142 15.1481 17.7412C14.5999 17.9683 13.9967 18.0277 13.4147 17.912C12.8328 17.7962 12.2982 17.5105 11.8787 17.0909C11.4591 16.6714 11.1734 16.1368 11.0576 15.5549C10.9419 14.9729 11.0013 14.3697 11.2284 13.8215C11.4554 13.2734 11.8399 12.8048 12.3333 12.4752ZM12.9181 16.5888C13.2383 16.8028 13.6148 16.917 14 16.917C14.5165 16.917 15.0118 16.7119 15.377 16.3466C15.7423 15.9814 15.9474 15.4861 15.9474 14.9696C15.9474 14.5844 15.8332 14.2079 15.6192 13.8877C15.4052 13.5674 15.1011 13.3178 14.7453 13.1704C14.3894 13.023 13.9978 12.9845 13.6201 13.0596C13.2423 13.1347 12.8953 13.3202 12.623 13.5926C12.3506 13.8649 12.1651 14.2119 12.09 14.5897C12.0149 14.9674 12.0534 15.359 12.2008 15.7148C12.3482 16.0707 12.5978 16.3748 12.9181 16.5888Z" fill="#00B490"/>
</svg>
