<svg width="28" height="29" viewBox="0 0 28 29" fill="none" xmlns="http://www.w3.org/2000/svg">
<path fill-rule="evenodd" clip-rule="evenodd" d="M26.5 14.3403C26.5 21.2439 20.9036 26.8403 14 26.8403C7.09644 26.8403 1.5 21.2439 1.5 14.3403C1.5 7.43677 7.09644 1.84033 14 1.84033C20.9036 1.84033 26.5 7.43677 26.5 14.3403ZM28 14.3403C28 22.0723 21.732 28.3403 14 28.3403C6.26801 28.3403 0 22.0723 0 14.3403C0 6.60834 6.26801 0.340332 14 0.340332C21.732 0.340332 28 6.60834 28 14.3403ZM13.692 7.57003C14.1483 7.38629 14.5361 7.34033 14.9468 7.34033L14.9467 7.36331H16.9771V9.61419H15.768C15.403 9.61419 15.1748 9.70607 15.0608 9.91277C14.9695 10.0277 14.9467 10.2573 14.9467 10.5788V11.5894H17L16.7491 13.8403H14.9468V20.3403H12.3004V13.8403H11V11.5894H12.3004V10.2344C12.3004 8.83331 12.7566 7.96048 13.692 7.57003Z" fill="#00B490"/>
</svg>
