<svg width="28" height="29" viewBox="0 0 28 29" fill="none" xmlns="http://www.w3.org/2000/svg">
<path d="M14 28.2197C21.3178 28.2197 27.25 22.2875 27.25 14.9697C27.25 7.65195 21.3178 1.71973 14 1.71973C6.68223 1.71973 0.75 7.65195 0.75 14.9697C0.75 22.2875 6.68223 28.2197 14 28.2197Z" stroke="#00B490" stroke-width="1.5"/>
<path d="M18.5042 10.7922C18.4112 10.7452 18.3209 10.6957 18.2307 10.6409C17.9736 10.4792 17.7412 10.2887 17.5306 10.0748C17.0083 9.50617 16.8141 8.92707 16.743 8.52274H16.7458C16.6856 8.18624 16.7102 7.96973 16.7157 7.96973H14.3393V16.7398C14.3393 16.8571 14.3393 16.9745 14.3338 17.0893C14.3338 17.1023 14.3311 17.118 14.3311 17.131C14.3311 17.1363 14.3311 17.1441 14.3284 17.1493V17.1545C14.3229 17.2328 14.3119 17.311 14.2955 17.3867C14.2791 17.4649 14.2573 17.5406 14.2326 17.6136C14.208 17.6893 14.1752 17.7623 14.1397 17.8327C14.1041 17.9032 14.0658 17.9736 14.0193 18.0388C13.9756 18.104 13.9264 18.1692 13.8744 18.2292C13.8224 18.2892 13.765 18.3466 13.7076 18.4014C13.6474 18.4562 13.5845 18.5057 13.5189 18.5527C13.4533 18.5997 13.3849 18.6414 13.3111 18.6805C13.1607 18.7614 13.0021 18.824 12.8352 18.8657C12.6684 18.9075 12.4989 18.9283 12.3266 18.9283C11.2191 18.9283 10.3221 18.0675 10.3221 17.0032C10.3221 15.9389 11.2191 15.0781 12.3266 15.0781C12.5372 15.0781 12.7423 15.1094 12.9446 15.172L12.9474 12.8634C12.797 12.8452 12.6438 12.8347 12.4934 12.8295C12.3403 12.8269 12.1899 12.8295 12.0367 12.84C11.8863 12.8504 11.7332 12.8713 11.5855 12.8973C11.4351 12.9234 11.2874 12.9573 11.1425 12.9965C10.9976 13.0382 10.8526 13.0852 10.7132 13.1399C10.5737 13.1947 10.4342 13.2573 10.3002 13.3251C10.1662 13.393 10.035 13.4686 9.90918 13.5495C9.78338 13.6303 9.66306 13.719 9.54547 13.8103C9.34037 13.9799 9.15168 14.1651 8.98213 14.366C8.80985 14.5668 8.65945 14.7807 8.52818 15.0077C8.427 15.172 8.04962 15.8372 8.00313 16.9119C7.97305 17.5223 8.16721 18.1562 8.25746 18.4171V18.4223C8.31488 18.5762 8.53912 19.1031 8.90283 19.5466C9.19817 19.9039 9.54274 20.2117 9.93379 20.4726V20.4674L9.93926 20.4726C11.0905 21.2187 12.3676 21.1691 12.3676 21.1691C12.5891 21.1613 13.3275 21.1691 14.1697 20.7882C15.1023 20.3683 15.6328 19.7396 15.6328 19.7396C15.8023 19.5518 15.9527 19.3535 16.0867 19.1396C16.2207 18.9283 16.3356 18.7066 16.4286 18.4744C16.6446 17.9345 16.7157 17.2875 16.7157 17.0293V12.3835C16.7458 12.3991 17.1286 12.6417 17.1286 12.6417C17.1286 12.6417 17.681 12.9808 18.5452 13.1999C19.1659 13.3564 20 13.3904 20 13.3904V11.1392C19.7047 11.1705 19.1112 11.0818 18.5042 10.7922Z" fill="#00B490"/>
</svg>
