<svg width="28" height="29" viewBox="0 0 28 29" fill="none" xmlns="http://www.w3.org/2000/svg">
<path d="M14 27.5903C21.3178 27.5903 27.25 21.6581 27.25 14.3403C27.25 7.02256 21.3178 1.09033 14 1.09033C6.68223 1.09033 0.75 7.02256 0.75 14.3403C0.75 21.6581 6.68223 27.5903 14 27.5903Z" stroke="#00B490" stroke-width="1.5"/>
<path d="M18.5042 10.1628C18.4112 10.1158 18.3209 10.0663 18.2307 10.0115C17.9736 9.84977 17.7412 9.65934 17.5306 9.44544C17.0083 8.87677 16.8141 8.29767 16.743 7.89334H16.7458C16.6856 7.55684 16.7102 7.34033 16.7157 7.34033H14.3393V16.1104C14.3393 16.2277 14.3393 16.3451 14.3338 16.4599C14.3338 16.4729 14.3311 16.4886 14.3311 16.5016C14.3311 16.5069 14.3311 16.5147 14.3284 16.5199V16.5251C14.3229 16.6034 14.3119 16.6816 14.2955 16.7573C14.2791 16.8355 14.2573 16.9112 14.2326 16.9842C14.208 17.0599 14.1752 17.1329 14.1397 17.2033C14.1041 17.2738 14.0658 17.3442 14.0193 17.4094C13.9756 17.4746 13.9264 17.5398 13.8744 17.5998C13.8224 17.6598 13.765 17.7172 13.7076 17.772C13.6474 17.8268 13.5845 17.8763 13.5189 17.9233C13.4533 17.9703 13.3849 18.012 13.3111 18.0511C13.1607 18.132 13.0021 18.1946 12.8352 18.2363C12.6684 18.2781 12.4989 18.2989 12.3266 18.2989C11.2191 18.2989 10.3221 17.4381 10.3221 16.3738C10.3221 15.3095 11.2191 14.4487 12.3266 14.4487C12.5372 14.4487 12.7423 14.48 12.9446 14.5426L12.9474 12.234C12.797 12.2158 12.6438 12.2053 12.4934 12.2001C12.3403 12.1975 12.1899 12.2001 12.0367 12.2106C11.8863 12.221 11.7332 12.2419 11.5855 12.2679C11.4351 12.294 11.2874 12.3279 11.1425 12.3671C10.9976 12.4088 10.8526 12.4558 10.7132 12.5105C10.5737 12.5653 10.4342 12.6279 10.3002 12.6957C10.1662 12.7636 10.035 12.8392 9.90918 12.9201C9.78338 13.0009 9.66306 13.0896 9.54547 13.1809C9.34037 13.3505 9.15168 13.5357 8.98213 13.7366C8.80985 13.9374 8.65945 14.1513 8.52818 14.3783C8.427 14.5426 8.04962 15.2078 8.00313 16.2825C7.97305 16.8929 8.16721 17.5268 8.25746 17.7877V17.7929C8.31488 17.9468 8.53912 18.4737 8.90283 18.9172C9.19817 19.2745 9.54274 19.5823 9.93379 19.8432V19.838L9.93926 19.8432C11.0905 20.5893 12.3676 20.5397 12.3676 20.5397C12.5891 20.5319 13.3275 20.5397 14.1697 20.1588C15.1023 19.7389 15.6328 19.1102 15.6328 19.1102C15.8023 18.9224 15.9527 18.7241 16.0867 18.5102C16.2207 18.2989 16.3356 18.0772 16.4286 17.845C16.6446 17.3051 16.7157 16.6581 16.7157 16.3999V11.7541C16.7458 11.7697 17.1286 12.0123 17.1286 12.0123C17.1286 12.0123 17.681 12.3514 18.5452 12.5705C19.1659 12.727 20 12.761 20 12.761V10.5098C19.7047 10.5411 19.1112 10.4524 18.5042 10.1628Z" fill="#00B490"/>
</svg>
