<svg width="120" height="35" viewBox="0 0 120 35" fill="none" xmlns="http://www.w3.org/2000/svg">
<g clip-path="url(#clip0_1_5050)">
<g clip-path="url(#clip1_1_5050)">
<g clip-path="url(#clip2_1_5050)">
<path d="M102.696 34.8603H17.3042C7.76773 34.8603 0.0141602 27.1067 0.0141602 17.5703C0.0141602 8.03385 7.76773 0.280273 17.3042 0.280273H102.696C112.232 0.280273 119.986 8.03385 119.986 17.5703C119.986 27.1067 112.232 34.8603 102.696 34.8603ZM17.3042 1.39456C8.38988 1.39456 1.12845 8.6467 1.12845 17.5703C1.12845 26.4938 8.38059 33.746 17.3042 33.746H102.696C111.619 33.746 118.871 26.4846 118.871 17.5703C118.871 8.65599 111.619 1.39456 102.696 1.39456H17.3042Z" fill="#00B490"/>
<path d="M33.1273 21.9715C33.0994 22.0458 32.7373 23.3365 31.818 24.6643C31.0287 25.8158 30.2115 26.9672 28.9301 26.9858C27.6673 27.0043 27.2587 26.2336 25.8101 26.2336C24.3615 26.2336 23.9158 26.9672 22.718 27.0136C21.483 27.06 20.5265 25.76 19.7373 24.6179C18.1215 22.2779 16.8772 17.9879 18.5487 15.1186C19.3658 13.6793 20.8515 12.7693 22.458 12.7415C23.6744 12.7229 24.8258 13.5586 25.5594 13.5586C26.293 13.5586 27.7137 12.5372 29.1808 12.6858C29.7937 12.7136 31.5208 12.9458 32.6351 14.5522C32.5515 14.6079 30.5737 15.7779 30.5923 18.1458C30.6201 21.0058 33.1087 21.9529 33.1273 21.9622M28.2151 11.1536C28.8744 10.3458 29.3108 9.23146 29.1994 8.12646C28.2523 8.16361 27.1008 8.75789 26.4137 9.55646C25.8101 10.2622 25.2715 11.3858 25.4201 12.4815C26.4694 12.5465 27.5558 11.9336 28.2151 11.1536Z" fill="#00B490"/>
<path d="M45.8206 22.9557L45.1521 21.0521H41.2428L40.5742 22.9557H38.9771L42.3199 13.605H44.0935L47.4363 22.9557H45.8206ZM41.6513 19.8543H44.7249L43.1928 15.4621L41.6513 19.8543Z" fill="#00B490"/>
<path d="M52.9983 15.4346C53.9919 15.4346 54.8183 15.7874 55.4869 16.4931C56.1462 17.1989 56.4805 18.1089 56.4805 19.2324C56.4805 20.356 56.1462 21.2753 55.4776 21.9996C54.809 22.7239 53.9826 23.086 52.9983 23.086C52.4133 23.086 51.9026 22.9467 51.4662 22.6774C51.0298 22.4081 50.6769 22.0367 50.4169 21.5817V26.4846H48.8848V15.5646H50.4169V16.8831C50.6676 16.456 51.0112 16.1031 51.4569 15.8431C51.9026 15.5831 52.4133 15.4439 52.9983 15.4439V15.4346ZM54.2519 21.0617C54.6976 20.5974 54.9205 19.9846 54.9205 19.2231C54.9205 18.4617 54.6976 17.8581 54.2519 17.4217C53.8062 16.9853 53.2769 16.7624 52.6641 16.7624C52.0512 16.7624 51.5219 16.9853 51.0762 17.431C50.6305 17.8767 50.4076 18.4803 50.4076 19.2417C50.4076 20.0031 50.6305 20.6067 51.0762 21.0617C51.5219 21.5167 52.0419 21.7396 52.6548 21.7396C53.2676 21.7396 53.7969 21.5074 54.2426 21.0431L54.2519 21.0617Z" fill="#00B490"/>
<path d="M62.1077 15.4346C63.1013 15.4346 63.9277 15.7874 64.5963 16.4931C65.2556 17.1989 65.5899 18.1089 65.5899 19.2324C65.5899 20.356 65.2556 21.2753 64.587 21.9996C63.9184 22.7239 63.092 23.086 62.1077 23.086C61.5227 23.086 61.012 22.9467 60.5756 22.6774C60.1391 22.4081 59.7863 22.0367 59.5263 21.5817V26.4846H57.9941V15.5646H59.5263V16.8831C59.777 16.456 60.1206 16.1031 60.5663 15.8431C61.012 15.5831 61.5227 15.4439 62.1077 15.4439V15.4346ZM63.3613 21.0617C63.807 20.5974 64.0299 19.9846 64.0299 19.2231C64.0299 18.4617 63.807 17.8581 63.3613 17.4217C62.9156 16.9853 62.3863 16.7624 61.7734 16.7624C61.1606 16.7624 60.6313 16.9853 60.1856 17.431C59.7399 17.8767 59.517 18.4803 59.517 19.2417C59.517 20.0031 59.7399 20.6067 60.1856 21.0617C60.6313 21.5167 61.1513 21.7396 61.7641 21.7396C62.377 21.7396 62.9063 21.5074 63.352 21.0431L63.3613 21.0617Z" fill="#00B490"/>
<path d="M74.0399 14.7472C73.5849 14.7472 73.2135 14.8586 72.9256 15.1001C72.6378 15.3322 72.4985 15.6758 72.4985 16.1122C72.4985 16.5486 72.6656 16.8922 73.0092 17.1244C73.3528 17.3565 73.7614 17.5236 74.2442 17.6351C74.7271 17.7465 75.2099 17.8672 75.6928 18.0065C76.1756 18.1458 76.5842 18.4058 76.9278 18.7772C77.2714 19.1579 77.4385 19.6872 77.4385 20.3744C77.4385 21.0615 77.1506 21.6836 76.5656 22.2315C75.9806 22.7794 75.2006 23.0486 74.2256 23.0486C73.2506 23.0486 72.4521 22.8165 71.8485 22.3615C71.2356 21.9065 70.9385 21.2751 70.9385 20.4672H72.5821C72.6192 20.8758 72.7678 21.2101 73.0371 21.4515C73.3063 21.6929 73.6964 21.8136 74.2164 21.8136C74.7364 21.8136 75.1449 21.6836 75.4421 21.4144C75.7392 21.1451 75.8878 20.8294 75.8878 20.4579C75.8878 20.0865 75.7949 19.8079 75.6092 19.5944C75.4235 19.3901 75.1913 19.2322 74.8942 19.1301C74.6063 19.0279 74.2814 18.9351 73.9378 18.8515C73.5849 18.7679 73.2414 18.6751 72.8792 18.5729C72.5264 18.4615 72.2014 18.3315 71.9135 18.1551C71.6256 17.9879 71.3842 17.7372 71.1985 17.4122C71.0128 17.0872 70.9199 16.6879 70.9199 16.2144C70.9199 15.3972 71.2171 14.7472 71.8021 14.2458C72.3871 13.7444 73.1485 13.5029 74.0863 13.5029C75.0242 13.5029 75.7671 13.7165 76.3335 14.1436C76.8999 14.5708 77.2063 15.1929 77.2713 16.0101H75.5813C75.5442 15.6479 75.3956 15.3508 75.1263 15.1094C74.8571 14.8679 74.4949 14.7472 74.0399 14.7472Z" fill="#00B490"/>
<path d="M82.8427 16.8084H81.0412V20.9034C81.0412 21.182 81.1062 21.377 81.2362 21.4977C81.3662 21.6184 81.5891 21.6834 81.9048 21.6834H82.8427V22.9649H81.6355C80.2148 22.9649 79.4998 22.2777 79.4998 20.9127V16.8177H78.627V15.5642H79.4998V13.7256H81.0412V15.5642H82.8427V16.8177V16.8084Z" fill="#00B490"/>
<path d="M87.4672 23.0767C86.3901 23.0767 85.4986 22.7239 84.8022 22.0182C84.1058 21.3124 83.7529 20.3932 83.7529 19.251C83.7529 18.1089 84.1151 17.1896 84.8394 16.4839C85.5636 15.7782 86.4551 15.4253 87.5322 15.4253C88.6094 15.4253 89.5008 15.7782 90.2251 16.4839C90.9494 17.1896 91.3115 18.1089 91.3115 19.2417C91.3115 20.3746 90.9401 21.3032 90.2065 22.0089C89.4636 22.7146 88.5536 23.0674 87.4765 23.0674L87.4672 23.0767ZM89.0551 21.1174C89.5008 20.6717 89.7236 20.0496 89.7236 19.251C89.7236 18.4524 89.5101 17.8303 89.0736 17.3939C88.6372 16.9574 88.1172 16.7253 87.4951 16.7253C86.8729 16.7253 86.3529 16.9482 85.9351 17.3939C85.5172 17.8396 85.3036 18.4617 85.3036 19.2603C85.3036 20.0589 85.5079 20.681 85.9258 21.1267C86.3436 21.5724 86.8544 21.7953 87.4672 21.7953C88.0801 21.7953 88.6094 21.5724 89.0551 21.1267V21.1174Z" fill="#00B490"/>
<path d="M94.3569 15.5553V16.846C94.8304 15.9081 95.5733 15.4346 96.5761 15.4346V17.0224H96.1861C95.5826 17.0224 95.1276 17.171 94.8211 17.4774C94.5147 17.7839 94.3569 18.3131 94.3569 19.0653V22.9653H92.8247V15.5646H94.3569V15.5553Z" fill="#00B490"/>
<path d="M101.098 23.0767C100.021 23.0767 99.1485 22.7239 98.4799 22.0274C97.8113 21.331 97.4771 20.4024 97.4771 19.2417C97.4771 18.081 97.8206 17.1617 98.4985 16.4653C99.1763 15.7689 100.058 15.4253 101.136 15.4253C102.213 15.4253 103.095 15.7596 103.763 16.4282C104.432 17.0967 104.766 17.9696 104.766 19.0374C104.766 19.2974 104.748 19.5389 104.711 19.7617H99.0371C99.0742 20.3839 99.2785 20.8667 99.6592 21.2289C100.04 21.591 100.513 21.7767 101.089 21.7767C101.925 21.7767 102.51 21.4332 102.853 20.746H104.506C104.283 21.4239 103.875 21.981 103.281 22.4174C102.686 22.8539 101.962 23.0674 101.089 23.0674L101.098 23.0767ZM102.566 17.2639C102.176 16.9017 101.693 16.716 101.126 16.716C100.56 16.716 100.086 16.9017 99.7056 17.2639C99.3249 17.626 99.1113 18.1182 99.0556 18.7217H103.169C103.169 18.1089 102.956 17.626 102.566 17.2639Z" fill="#00B490"/>
</g>
</g>
</g>
<defs>
<clipPath id="clip0_1_5050">
<rect y="0.280273" width="120" height="34.58" rx="5" fill="white"/>
</clipPath>
<clipPath id="clip1_1_5050">
<rect width="120" height="34.58" fill="white" transform="translate(0 0.280273)"/>
</clipPath>
<clipPath id="clip2_1_5050">
<rect width="119.971" height="34.58" fill="white" transform="translate(0.0141602 0.280273)"/>
</clipPath>
</defs>
</svg>
