<svg width="28" height="29" viewBox="0 0 28 29" fill="none" xmlns="http://www.w3.org/2000/svg">
<path fill-rule="evenodd" clip-rule="evenodd" d="M26.5 14.9697C26.5 21.8733 20.9036 27.4697 14 27.4697C7.09644 27.4697 1.5 21.8733 1.5 14.9697C1.5 8.06617 7.09644 2.46973 14 2.46973C20.9036 2.46973 26.5 8.06617 26.5 14.9697ZM28 14.9697C28 22.7017 21.732 28.9697 14 28.9697C6.26801 28.9697 0 22.7017 0 14.9697C0 7.23774 6.26801 0.969727 14 0.969727C21.732 0.969727 28 7.23774 28 14.9697ZM13.692 8.19943C14.1483 8.01569 14.5361 7.96973 14.9468 7.96973L14.9467 7.99271H16.9771V10.2436H15.768C15.403 10.2436 15.1748 10.3355 15.0608 10.5422C14.9695 10.657 14.9467 10.8867 14.9467 11.2082V12.2188H17L16.7491 14.4697H14.9468V20.9697H12.3004V14.4697H11V12.2188H12.3004V10.8637C12.3004 9.46271 12.7566 8.58988 13.692 8.19943Z" fill="#00B490"/>
</svg>
