<svg width="71" height="18" viewBox="0 0 71 18" fill="none" xmlns="http://www.w3.org/2000/svg">
<path d="M18.7884 6.73923H25.8666V8.05241H23.0834V15.4345H21.553V8.05241H18.7822V6.73923H18.7884ZM25.5642 9.13854H26.8725V10.3535H26.8972C26.9404 10.1817 27.0206 10.016 27.1378 9.8565C27.2551 9.69695 27.397 9.54354 27.5636 9.41468C27.7303 9.27968 27.9154 9.17536 28.119 9.08945C28.3227 9.00968 28.5325 8.96673 28.7423 8.96673C28.9028 8.96673 29.02 8.97286 29.0817 8.979C29.1434 8.98514 29.2051 8.99741 29.273 9.00354V10.3413C29.1743 10.3229 29.0755 10.3106 28.9706 10.2983C28.8657 10.286 28.767 10.2799 28.6683 10.2799C28.4338 10.2799 28.2116 10.329 28.0018 10.421C27.792 10.5131 27.613 10.6542 27.4587 10.8322C27.3044 11.0163 27.181 11.2372 27.0885 11.5072C26.9959 11.7772 26.9527 12.084 26.9527 12.4338V15.4283H25.558V9.13855L25.5642 9.13854ZM35.6847 15.4345H34.3148V14.557H34.2901C34.1173 14.876 33.8643 15.1276 33.5249 15.3179C33.1855 15.5081 32.8399 15.6063 32.4881 15.6063C31.655 15.6063 31.0503 15.4038 30.68 14.9926C30.3098 14.5815 30.1246 13.9617 30.1246 13.1333V9.13855H31.5193V12.9983C31.5193 13.5506 31.6242 13.9433 31.8402 14.1704C32.05 14.3974 32.3524 14.514 32.735 14.514C33.0312 14.514 33.2719 14.471 33.4693 14.379C33.6668 14.287 33.8273 14.1704 33.9445 14.017C34.0679 13.8697 34.1543 13.6856 34.2099 13.477C34.2654 13.2683 34.2901 13.0413 34.2901 12.7958V9.14468H35.6847V15.4345ZM38.0606 13.4156C38.1038 13.8206 38.2581 14.1029 38.5234 14.2685C38.7949 14.4281 39.1158 14.514 39.4923 14.514C39.6219 14.514 39.77 14.5017 39.9366 14.4833C40.1032 14.4649 40.2637 14.422 40.4056 14.3667C40.5537 14.3115 40.6709 14.2256 40.7697 14.1151C40.8623 14.0047 40.9054 13.8635 40.8993 13.6856C40.8931 13.5076 40.8252 13.3604 40.7018 13.2499C40.5784 13.1333 40.4241 13.0474 40.2328 12.9738C40.0415 12.9063 39.8255 12.8449 39.5787 12.7958C39.3318 12.7467 39.085 12.6915 38.832 12.6363C38.5728 12.581 38.3198 12.5074 38.0791 12.4276C37.8384 12.3479 37.6224 12.2374 37.4311 12.0963C37.2398 11.9613 37.0856 11.7833 36.9745 11.5685C36.8572 11.3538 36.8017 11.0899 36.8017 10.7708C36.8017 10.4272 36.8881 10.1449 37.0547 9.91173C37.2213 9.67854 37.4373 9.49445 37.6903 9.35332C37.9495 9.21218 38.2334 9.114 38.5481 9.05264C38.8628 8.99741 39.1652 8.96673 39.4491 8.96673C39.7761 8.96673 40.0909 9.00354 40.3871 9.07104C40.6833 9.13854 40.9548 9.249 41.1955 9.40854C41.4362 9.56195 41.6336 9.76445 41.7941 10.0099C41.9545 10.2554 42.0533 10.556 42.0965 10.9058H40.6401C40.5722 10.5745 40.4241 10.3474 40.1834 10.237C39.9428 10.1204 39.6651 10.0651 39.3565 10.0651C39.2578 10.0651 39.1405 10.0713 39.0048 10.0897C38.869 10.1081 38.7456 10.1388 38.6222 10.1817C38.5049 10.2247 38.4062 10.2922 38.3198 10.3781C38.2396 10.464 38.1964 10.5745 38.1964 10.7156C38.1964 10.8874 38.2581 11.0224 38.3753 11.1267C38.4926 11.231 38.6468 11.317 38.8381 11.3906C39.0294 11.4581 39.2454 11.5195 39.4923 11.5685C39.7391 11.6176 39.9921 11.6729 40.2513 11.7281C40.5043 11.7833 40.7512 11.857 40.998 11.9367C41.2449 12.0165 41.4608 12.127 41.6521 12.2681C41.8434 12.4092 41.9977 12.581 42.115 12.7897C42.2322 12.9983 42.2939 13.2622 42.2939 13.569C42.2939 13.9433 42.2075 14.2563 42.0348 14.5201C41.862 14.7779 41.6398 14.9926 41.3683 15.1522C41.0968 15.3117 40.7882 15.4345 40.455 15.5081C40.1217 15.5817 39.7885 15.6185 39.4614 15.6185C39.0603 15.6185 38.69 15.5756 38.3506 15.4835C38.0112 15.3915 37.715 15.2565 37.4682 15.0785C37.2213 14.8945 37.0239 14.6674 36.8819 14.3974C36.74 14.1274 36.6659 13.8022 36.6536 13.4279H38.0606V13.4156ZM42.6642 9.13854H43.7194V7.24855H45.1141V9.13854H46.373V10.1756H45.1141V13.5383C45.1141 13.6856 45.1203 13.8083 45.1326 13.9188C45.145 14.0231 45.1758 14.1151 45.219 14.1888C45.2622 14.2624 45.3301 14.3176 45.4227 14.3545C45.5152 14.3913 45.6325 14.4097 45.7929 14.4097C45.8917 14.4097 45.9904 14.4097 46.0891 14.4035C46.1879 14.3974 46.2866 14.3851 46.3853 14.3606V15.4345C46.2311 15.4529 46.0768 15.4651 45.9349 15.4835C45.7868 15.502 45.6386 15.5081 45.4844 15.5081C45.1141 15.5081 44.8179 15.4713 44.5957 15.4038C44.3736 15.3363 44.1946 15.2319 44.0712 15.097C43.9416 14.962 43.8614 14.7963 43.812 14.5938C43.7688 14.3913 43.738 14.1581 43.7318 13.9004V10.1879H42.6765V9.13854H42.6642ZM47.3604 9.13854H48.681V9.9915H48.7057C48.9031 9.62332 49.1747 9.36559 49.5264 9.20604C49.8782 9.0465 50.2546 8.96673 50.6681 8.96673C51.1679 8.96673 51.5999 9.05264 51.9701 9.23059C52.3404 9.40241 52.649 9.64173 52.8958 9.94854C53.1426 10.2554 53.3216 10.6113 53.445 11.0163C53.5684 11.4213 53.6302 11.857 53.6302 12.3172C53.6302 12.7406 53.5746 13.1517 53.4635 13.5445C53.3525 13.9433 53.1858 14.2931 52.9637 14.5999C52.7415 14.9067 52.4577 15.146 52.1121 15.3301C51.7665 15.5142 51.3654 15.6063 50.8964 15.6063C50.6927 15.6063 50.4891 15.5879 50.2854 15.551C50.0818 15.5142 49.8843 15.4529 49.6992 15.3731C49.5141 15.2933 49.3351 15.189 49.1808 15.0601C49.0204 14.9313 48.8908 14.784 48.7797 14.6183H48.755V17.7601H47.3604V9.13854ZM52.2355 12.2926C52.2355 12.0104 52.1985 11.7342 52.1244 11.4642C52.0504 11.1942 51.9393 10.961 51.7912 10.7524C51.6431 10.5438 51.4579 10.3781 51.242 10.2554C51.0198 10.1326 50.7668 10.0651 50.4829 10.0651C49.8967 10.0651 49.4524 10.2676 49.1561 10.6726C48.8599 11.0776 48.7118 11.6176 48.7118 12.2926C48.7118 12.6117 48.7489 12.9063 48.8291 13.1763C48.9093 13.4463 49.0204 13.6795 49.1808 13.8758C49.3351 14.0722 49.5202 14.2256 49.7362 14.336C49.9522 14.4526 50.2052 14.5079 50.4891 14.5079C50.81 14.5079 51.0753 14.4404 51.2975 14.3115C51.5197 14.1826 51.6986 14.0108 51.8406 13.8083C51.9825 13.5997 52.0874 13.3665 52.1491 13.1026C52.2046 12.8388 52.2355 12.5688 52.2355 12.2926ZM54.6978 6.73923H56.0924V8.05241H54.6978V6.73923ZM54.6978 9.13854H56.0924V15.4345H54.6978V9.13854ZM57.339 6.73923H58.7336V15.4345H57.339V6.73923ZM63.0102 15.6063C62.5041 15.6063 62.0536 15.5204 61.6587 15.3547C61.2638 15.189 60.9305 14.9558 60.6528 14.6674C60.3813 14.3729 60.1715 14.0231 60.0295 13.6181C59.8876 13.2131 59.8135 12.7651 59.8135 12.2804C59.8135 11.8017 59.8876 11.3599 60.0295 10.9549C60.1715 10.5499 60.3813 10.2001 60.6528 9.90559C60.9243 9.61104 61.2638 9.384 61.6587 9.21832C62.0536 9.05264 62.5041 8.96673 63.0102 8.96673C63.5162 8.96673 63.9667 9.05264 64.3616 9.21832C64.7566 9.384 65.0898 9.61718 65.3675 9.90559C65.639 10.2001 65.8488 10.5499 65.9908 10.9549C66.1327 11.3599 66.2068 11.8017 66.2068 12.2804C66.2068 12.7651 66.1327 13.2131 65.9908 13.6181C65.8488 14.0231 65.639 14.3729 65.3675 14.6674C65.096 14.962 64.7566 15.189 64.3616 15.3547C63.9667 15.5204 63.5162 15.6063 63.0102 15.6063ZM63.0102 14.5079C63.3187 14.5079 63.5902 14.4404 63.8186 14.3115C64.0469 14.1826 64.232 14.0108 64.3801 13.8022C64.5282 13.5935 64.6331 13.3542 64.7072 13.0904C64.7751 12.8265 64.8121 12.5565 64.8121 12.2804C64.8121 12.0104 64.7751 11.7465 64.7072 11.4765C64.6393 11.2065 64.5282 10.9733 64.3801 10.7647C64.232 10.556 64.0469 10.3904 63.8186 10.2615C63.5902 10.1326 63.3187 10.0651 63.0102 10.0651C62.7016 10.0651 62.4301 10.1326 62.2018 10.2615C61.9734 10.3904 61.7883 10.5622 61.6402 10.7647C61.4921 10.9733 61.3872 11.2065 61.3131 11.4765C61.2452 11.7465 61.2082 12.0104 61.2082 12.2804C61.2082 12.5565 61.2452 12.8265 61.3131 13.0904C61.381 13.3542 61.4921 13.5935 61.6402 13.8022C61.7883 14.0108 61.9734 14.1826 62.2018 14.3115C62.4301 14.4465 62.7016 14.5079 63.0102 14.5079ZM66.614 9.13854H67.6693V7.24855H69.064V9.13854H70.3228V10.1756H69.064V13.5383C69.064 13.6856 69.0701 13.8083 69.0825 13.9188C69.0948 14.0231 69.1257 14.1151 69.1689 14.1888C69.2121 14.2624 69.2799 14.3176 69.3725 14.3545C69.4651 14.3913 69.5823 14.4097 69.7428 14.4097C69.8415 14.4097 69.9402 14.4097 70.039 14.4035C70.1377 14.3974 70.2365 14.3851 70.3352 14.3606V15.4345C70.1809 15.4529 70.0266 15.4651 69.8847 15.4835C69.7366 15.502 69.5885 15.5081 69.4342 15.5081C69.064 15.5081 68.7677 15.4713 68.5456 15.4038C68.3234 15.3363 68.1445 15.2319 68.0211 15.097C67.8915 14.962 67.8112 14.7963 67.7619 14.5938C67.7187 14.3913 67.6878 14.1581 67.6816 13.9004V10.1879H66.6264V9.13854L66.614 9.13854Z" fill="#191919"/>
<path d="M17.1591 6.73923H10.7658L8.79111 0.688354L6.8102 6.73923L0.416992 6.73309L5.5945 10.4765L3.6136 16.5213L8.79111 12.784L13.9625 16.5213L11.9877 10.4765L17.1591 6.73923Z" fill="#00B67A"/>
<path d="M12.4319 11.8449L11.9876 10.4765L8.79102 12.7838L12.4319 11.8449Z" fill="#005128"/>
</svg>
