<svg width="101" height="19" viewBox="0 0 101 19" fill="none" xmlns="http://www.w3.org/2000/svg">
<path d="M0.228516 18.4913H18.6905V0.0499878H0.228516V18.4913Z" fill="#00B67A"/>
<path d="M15.9667 7.89598L5.49526 15.4943L7.02325 10.7983L3.02344 7.89598H7.9674L9.49507 3.19962L11.0227 7.89598H15.9667ZM9.49545 12.5924L12.3552 11.9915L13.4946 15.4943L9.49545 12.5924Z" fill="white"/>
<path d="M20.6304 18.4913H39.0924V0.0499878H20.6304V18.4913Z" fill="#00B67A"/>
<path d="M20.6304 18.4913H29.8614V0.0499878H20.6304V18.4913Z" fill="#00B67A"/>
<path d="M30.0824 12.5207L32.5347 11.9913L33.6689 15.5737L29.8232 12.7067L25.8275 15.5737L27.3783 10.8606L23.3184 7.94776H28.3366L29.8868 3.23434L31.4377 7.94776H36.4556L30.0824 12.5207Z" fill="white"/>
<path d="M41.0464 18.4913H59.5084V0.0499878H41.0464V18.4913Z" fill="#00B67A"/>
<path d="M41.0464 18.4913H50.2774V0.0499878H41.0464V18.4913Z" fill="#00B67A"/>
<path d="M56.7851 7.89598L46.3136 15.4943L47.8416 10.7983L43.8418 7.89598H48.7858L50.3134 3.19962L51.8411 7.89598L56.7851 7.89598ZM50.3138 12.5924L53.1736 11.9915L54.313 15.4943L50.3138 12.5924Z" fill="white"/>
<path d="M61.4624 18.4913H79.9244V0.0499878H61.4624V18.4913Z" fill="#00B67A"/>
<path d="M61.4624 18.4913H70.6934V0.0499878H61.4624V18.4913Z" fill="#00B67A"/>
<path d="M77.2006 7.89598L66.7295 15.4943L68.2571 10.7983L64.2573 7.89598H69.2013L70.729 3.19962L72.2566 7.89598L77.2006 7.89598ZM70.7293 12.5924L73.5891 11.9915L74.7285 15.4943L70.7293 12.5924Z" fill="white"/>
<path d="M81.8643 18.4913H100.326V0.0499878H81.8643V18.4913Z" fill="#DCDCE6"/>
<path d="M81.8643 18.4913H91.0953V0.0499878H81.8643V18.4913Z" fill="#00B67A"/>
<path d="M97.602 7.89598L87.1308 15.4943L88.6585 10.7983L84.6587 7.89598H89.6027L91.1303 3.19962L92.658 7.89598H97.602ZM91.1307 12.5924L93.9905 11.9915L95.1299 15.4943L91.1307 12.5924Z" fill="white"/>
</svg>
