<svg width="90" height="17" viewBox="0 0 90 17" fill="none" xmlns="http://www.w3.org/2000/svg">
<g clip-path="url(#clip0_1_262)">
<g opacity="0.15">
<path d="M7.81566 1.60902C7.97287 1.29048 8.42709 1.29048 8.5843 1.60902L10.4514 5.3922C10.5139 5.51869 10.6345 5.60636 10.7741 5.62664L14.9491 6.2333C15.3006 6.28438 15.441 6.71637 15.1866 6.96431L12.1656 9.90911C12.0646 10.0076 12.0185 10.1494 12.0423 10.2885L12.7555 14.4466C12.8155 14.7967 12.4481 15.0636 12.1337 14.8983L8.39941 12.9351C8.27456 12.8695 8.1254 12.8695 8.00055 12.9351L4.26633 14.8983C3.95192 15.0636 3.58445 14.7967 3.64449 14.4466L4.35767 10.2885C4.38151 10.1494 4.33542 10.0076 4.23441 9.90911L1.21336 6.96431C0.959001 6.71637 1.09936 6.28438 1.45088 6.2333L5.62587 5.62664C5.76546 5.60636 5.88613 5.51869 5.94856 5.3922L7.81566 1.60902Z" fill="#FDB457"/>
</g>
<path d="M7.81566 1.60902C7.97287 1.29048 8.42709 1.29048 8.5843 1.60902L10.4514 5.3922C10.5139 5.51869 10.6345 5.60636 10.7741 5.62664L14.9491 6.2333C15.3006 6.28438 15.441 6.71637 15.1866 6.96431L12.1656 9.90911C12.0646 10.0076 12.0185 10.1494 12.0423 10.2885L12.7555 14.4466C12.8155 14.7967 12.4481 15.0636 12.1337 14.8983L8.39941 12.9351C8.27456 12.8695 8.1254 12.8695 8.00055 12.9351L4.26633 14.8983C3.95192 15.0636 3.58445 14.7967 3.64449 14.4466L4.35767 10.2885C4.38151 10.1494 4.33542 10.0076 4.23441 9.90911L1.21336 6.96431C0.959001 6.71637 1.09936 6.28438 1.45088 6.2333L5.62587 5.62664C5.76546 5.60636 5.88613 5.51869 5.94856 5.3922L7.81566 1.60902Z" fill="#FDB457"/>
</g>
<g clip-path="url(#clip1_1_262)">
<g opacity="0.15">
<path d="M26.2057 1.60902C26.3629 1.29048 26.8171 1.29048 26.9743 1.60902L28.8414 5.3922C28.9039 5.51869 29.0245 5.60636 29.1641 5.62664L33.3391 6.2333C33.6906 6.28438 33.831 6.71637 33.5766 6.96431L30.5556 9.90911C30.4546 10.0076 30.4085 10.1494 30.4323 10.2885L31.1455 14.4466C31.2055 14.7967 30.8381 15.0636 30.5237 14.8983L26.7894 12.9351C26.6646 12.8695 26.5154 12.8695 26.3906 12.9351L22.6563 14.8983C22.3419 15.0636 21.9745 14.7967 22.0345 14.4466L22.7477 10.2885C22.7715 10.1494 22.7254 10.0076 22.6244 9.90911L19.6034 6.96431C19.349 6.71637 19.4894 6.28438 19.8409 6.2333L24.0159 5.62664C24.1555 5.60636 24.2761 5.51869 24.3386 5.3922L26.2057 1.60902Z" fill="#FDB457"/>
</g>
<path d="M26.2057 1.60902C26.3629 1.29048 26.8171 1.29048 26.9743 1.60902L28.8414 5.3922C28.9039 5.51869 29.0245 5.60636 29.1641 5.62664L33.3391 6.2333C33.6906 6.28438 33.831 6.71637 33.5766 6.96431L30.5556 9.90911C30.4546 10.0076 30.4085 10.1494 30.4323 10.2885L31.1455 14.4466C31.2055 14.7967 30.8381 15.0636 30.5237 14.8983L26.7894 12.9351C26.6646 12.8695 26.5154 12.8695 26.3906 12.9351L22.6563 14.8983C22.3419 15.0636 21.9745 14.7967 22.0345 14.4466L22.7477 10.2885C22.7715 10.1494 22.7254 10.0076 22.6244 9.90911L19.6034 6.96431C19.349 6.71637 19.4894 6.28438 19.8409 6.2333L24.0159 5.62664C24.1555 5.60636 24.2761 5.51869 24.3386 5.3922L26.2057 1.60902Z" fill="#FDB457"/>
</g>
<g clip-path="url(#clip2_1_262)">
<g opacity="0.15">
<path d="M44.5957 1.60902C44.7529 1.29048 45.2071 1.29048 45.3643 1.60902L47.2314 5.3922C47.2939 5.51869 47.4145 5.60636 47.5541 5.62664L51.7291 6.2333C52.0806 6.28438 52.221 6.71637 51.9666 6.96431L48.9456 9.90911C48.8446 10.0076 48.7985 10.1494 48.8223 10.2885L49.5355 14.4466C49.5955 14.7967 49.2281 15.0636 48.9137 14.8983L45.1794 12.9351C45.0546 12.8695 44.9054 12.8695 44.7806 12.9351L41.0463 14.8983C40.7319 15.0636 40.3645 14.7967 40.4245 14.4466L41.1377 10.2885C41.1615 10.1494 41.1154 10.0076 41.0144 9.90911L37.9934 6.96431C37.739 6.71637 37.8794 6.28438 38.2309 6.2333L42.4059 5.62664C42.5455 5.60636 42.6661 5.51869 42.7286 5.3922L44.5957 1.60902Z" fill="#FDB457"/>
</g>
<path d="M44.5957 1.60902C44.7529 1.29048 45.2071 1.29048 45.3643 1.60902L47.2314 5.3922C47.2939 5.51869 47.4145 5.60636 47.5541 5.62664L51.7291 6.2333C52.0806 6.28438 52.221 6.71637 51.9666 6.96431L48.9456 9.90911C48.8446 10.0076 48.7985 10.1494 48.8223 10.2885L49.5355 14.4466C49.5955 14.7967 49.2281 15.0636 48.9137 14.8983L45.1794 12.9351C45.0546 12.8695 44.9054 12.8695 44.7806 12.9351L41.0463 14.8983C40.7319 15.0636 40.3645 14.7967 40.4245 14.4466L41.1377 10.2885C41.1615 10.1494 41.1154 10.0076 41.0144 9.90911L37.9934 6.96431C37.739 6.71637 37.8794 6.28438 38.2309 6.2333L42.4059 5.62664C42.5455 5.60636 42.6661 5.51869 42.7286 5.3922L44.5957 1.60902Z" fill="#FDB457"/>
</g>
<g clip-path="url(#clip3_1_262)">
<g opacity="0.15">
<path d="M62.9957 1.60902C63.1529 1.29048 63.6071 1.29048 63.7643 1.60902L65.6314 5.3922C65.6939 5.51869 65.8145 5.60636 65.9541 5.62664L70.1291 6.2333C70.4806 6.28438 70.621 6.71637 70.3666 6.96431L67.3456 9.90911C67.2446 10.0076 67.1985 10.1494 67.2223 10.2885L67.9355 14.4466C67.9955 14.7967 67.6281 15.0636 67.3137 14.8983L63.5794 12.9351C63.4546 12.8695 63.3054 12.8695 63.1806 12.9351L59.4463 14.8983C59.1319 15.0636 58.7645 14.7967 58.8245 14.4466L59.5377 10.2885C59.5615 10.1494 59.5154 10.0076 59.4144 9.90911L56.3934 6.96431C56.139 6.71637 56.2794 6.28438 56.6309 6.2333L60.8059 5.62664C60.9455 5.60636 61.0661 5.51869 61.1286 5.3922L62.9957 1.60902Z" fill="#FDB457"/>
</g>
<path d="M62.9957 1.60902C63.1529 1.29048 63.6071 1.29048 63.7643 1.60902L65.6314 5.3922C65.6939 5.51869 65.8145 5.60636 65.9541 5.62664L70.1291 6.2333C70.4806 6.28438 70.621 6.71637 70.3666 6.96431L67.3456 9.90911C67.2446 10.0076 67.1985 10.1494 67.2223 10.2885L67.9355 14.4466C67.9955 14.7967 67.6281 15.0636 67.3137 14.8983L63.5794 12.9351C63.4546 12.8695 63.3054 12.8695 63.1806 12.9351L59.4463 14.8983C59.1319 15.0636 58.7645 14.7967 58.8245 14.4466L59.5377 10.2885C59.5615 10.1494 59.5154 10.0076 59.4144 9.90911L56.3934 6.96431C56.139 6.71637 56.2794 6.28438 56.6309 6.2333L60.8059 5.62664C60.9455 5.60636 61.0661 5.51869 61.1286 5.3922L62.9957 1.60902Z" fill="#FDB457"/>
</g>
<g clip-path="url(#clip4_1_262)">
<g opacity="0.15">
<path d="M81.3857 1.60902C81.5429 1.29048 81.9971 1.29048 82.1543 1.60902L84.0214 5.3922C84.0839 5.51869 84.2045 5.60636 84.3441 5.62664L88.5191 6.2333C88.8706 6.28438 89.011 6.71637 88.7566 6.96431L85.7356 9.90911C85.6346 10.0076 85.5885 10.1494 85.6123 10.2885L86.3255 14.4466C86.3855 14.7967 86.0181 15.0636 85.7037 14.8983L81.9694 12.9351C81.8446 12.8695 81.6954 12.8695 81.5706 12.9351L77.8363 14.8983C77.5219 15.0636 77.1545 14.7967 77.2145 14.4466L77.9277 10.2885C77.9515 10.1494 77.9054 10.0076 77.8044 9.90911L74.7834 6.96431C74.529 6.71637 74.6694 6.28438 75.0209 6.2333L79.1959 5.62664C79.3355 5.60636 79.4561 5.51869 79.5186 5.3922L81.3857 1.60902Z" fill="#FDB457"/>
</g>
<path d="M81.3857 1.60902C81.5429 1.29048 81.9971 1.29048 82.1543 1.60902L84.0214 5.3922C84.0839 5.51869 84.2045 5.60636 84.3441 5.62664L88.5191 6.2333C88.8706 6.28438 89.011 6.71637 88.7566 6.96431L85.7356 9.90911C85.6346 10.0076 85.5885 10.1494 85.6123 10.2885L86.3255 14.4466C86.3855 14.7967 86.0181 15.0636 85.7037 14.8983L81.9694 12.9351C81.8446 12.8695 81.6954 12.8695 81.5706 12.9351L77.8363 14.8983C77.5219 15.0636 77.1545 14.7967 77.2145 14.4466L77.9277 10.2885C77.9515 10.1494 77.9054 10.0076 77.8044 9.90911L74.7834 6.96431C74.529 6.71637 74.6694 6.28438 75.0209 6.2333L79.1959 5.62664C79.3355 5.60636 79.4561 5.51869 79.5186 5.3922L81.3857 1.60902Z" fill="#FDB457"/>
</g>
<defs>
<clipPath id="clip0_1_262">
<rect width="16" height="16" fill="white" transform="translate(0.199982 0.330078)"/>
</clipPath>
<clipPath id="clip1_1_262">
<rect width="16" height="16" fill="white" transform="translate(18.59 0.330078)"/>
</clipPath>
<clipPath id="clip2_1_262">
<rect width="16" height="16" fill="white" transform="translate(36.98 0.330078)"/>
</clipPath>
<clipPath id="clip3_1_262">
<rect width="16" height="16" fill="white" transform="translate(55.38 0.330078)"/>
</clipPath>
<clipPath id="clip4_1_262">
<rect width="16" height="16" fill="white" transform="translate(73.77 0.330078)"/>
</clipPath>
</defs>
</svg>
