<svg width="91" height="17" viewBox="0 0 91 17" fill="none" xmlns="http://www.w3.org/2000/svg">
<g clip-path="url(#clip0_1_293)">
<g opacity="0.15">
<path d="M8.14564 1.60902C8.30285 1.29048 8.75707 1.29048 8.91428 1.60902L10.7814 5.3922C10.8439 5.51869 10.9645 5.60636 11.1041 5.62664L15.2791 6.2333C15.6306 6.28438 15.771 6.71637 15.5166 6.96431L12.4956 9.90911C12.3946 10.0076 12.3485 10.1494 12.3723 10.2885L13.0855 14.4466C13.1455 14.7967 12.7781 15.0636 12.4637 14.8983L8.72939 12.9351C8.60454 12.8695 8.45538 12.8695 8.33053 12.9351L4.59631 14.8983C4.2819 15.0636 3.91443 14.7967 3.97447 14.4466L4.68765 10.2885C4.71149 10.1494 4.6654 10.0076 4.56439 9.90911L1.54334 6.96431C1.28898 6.71637 1.42934 6.28438 1.78086 6.2333L5.95585 5.62664C6.09544 5.60636 6.21611 5.51869 6.27854 5.3922L8.14564 1.60902Z" fill="#FDB457"/>
</g>
<path d="M8.14564 1.60902C8.30285 1.29048 8.75707 1.29048 8.91428 1.60902L10.7814 5.3922C10.8439 5.51869 10.9645 5.60636 11.1041 5.62664L15.2791 6.2333C15.6306 6.28438 15.771 6.71637 15.5166 6.96431L12.4956 9.90911C12.3946 10.0076 12.3485 10.1494 12.3723 10.2885L13.0855 14.4466C13.1455 14.7967 12.7781 15.0636 12.4637 14.8983L8.72939 12.9351C8.60454 12.8695 8.45538 12.8695 8.33053 12.9351L4.59631 14.8983C4.2819 15.0636 3.91443 14.7967 3.97447 14.4466L4.68765 10.2885C4.71149 10.1494 4.6654 10.0076 4.56439 9.90911L1.54334 6.96431C1.28898 6.71637 1.42934 6.28438 1.78086 6.2333L5.95585 5.62664C6.09544 5.60636 6.21611 5.51869 6.27854 5.3922L8.14564 1.60902Z" fill="#FDB457"/>
</g>
<g clip-path="url(#clip1_1_293)">
<g opacity="0.15">
<path d="M26.5357 1.60902C26.6929 1.29048 27.1471 1.29048 27.3043 1.60902L29.1714 5.3922C29.2339 5.51869 29.3545 5.60636 29.4941 5.62664L33.6691 6.2333C34.0206 6.28438 34.161 6.71637 33.9066 6.96431L30.8856 9.90911C30.7846 10.0076 30.7385 10.1494 30.7623 10.2885L31.4755 14.4466C31.5355 14.7967 31.1681 15.0636 30.8537 14.8983L27.1194 12.9351C26.9946 12.8695 26.8454 12.8695 26.7205 12.9351L22.9863 14.8983C22.6719 15.0636 22.3044 14.7967 22.3645 14.4466L23.0777 10.2885C23.1015 10.1494 23.0554 10.0076 22.9544 9.90911L19.9334 6.96431C19.679 6.71637 19.8194 6.28438 20.1709 6.2333L24.3459 5.62664C24.4855 5.60636 24.6061 5.51869 24.6686 5.3922L26.5357 1.60902Z" fill="#FDB457"/>
</g>
<path d="M26.5357 1.60902C26.6929 1.29048 27.1471 1.29048 27.3043 1.60902L29.1714 5.3922C29.2339 5.51869 29.3545 5.60636 29.4941 5.62664L33.6691 6.2333C34.0206 6.28438 34.161 6.71637 33.9066 6.96431L30.8856 9.90911C30.7846 10.0076 30.7385 10.1494 30.7623 10.2885L31.4755 14.4466C31.5355 14.7967 31.1681 15.0636 30.8537 14.8983L27.1194 12.9351C26.9946 12.8695 26.8454 12.8695 26.7205 12.9351L22.9863 14.8983C22.6719 15.0636 22.3044 14.7967 22.3645 14.4466L23.0777 10.2885C23.1015 10.1494 23.0554 10.0076 22.9544 9.90911L19.9334 6.96431C19.679 6.71637 19.8194 6.28438 20.1709 6.2333L24.3459 5.62664C24.4855 5.60636 24.6061 5.51869 24.6686 5.3922L26.5357 1.60902Z" fill="#FDB457"/>
</g>
<g clip-path="url(#clip2_1_293)">
<g opacity="0.15">
<path d="M44.9256 1.60902C45.0829 1.29048 45.5371 1.29048 45.6943 1.60902L47.5614 5.3922C47.6239 5.51869 47.7445 5.60636 47.8841 5.62664L52.0591 6.2333C52.4106 6.28438 52.551 6.71637 52.2966 6.96431L49.2756 9.90911C49.1746 10.0076 49.1285 10.1494 49.1523 10.2885L49.8655 14.4466C49.9255 14.7967 49.5581 15.0636 49.2437 14.8983L45.5094 12.9351C45.3845 12.8695 45.2354 12.8695 45.1105 12.9351L41.3763 14.8983C41.0619 15.0636 40.6944 14.7967 40.7545 14.4466L41.4677 10.2885C41.4915 10.1494 41.4454 10.0076 41.3444 9.90911L38.3233 6.96431C38.069 6.71637 38.2093 6.28438 38.5609 6.2333L42.7359 5.62664C42.8754 5.60636 42.9961 5.51869 43.0585 5.3922L44.9256 1.60902Z" fill="#FDB457"/>
</g>
<path d="M44.9256 1.60902C45.0829 1.29048 45.5371 1.29048 45.6943 1.60902L47.5614 5.3922C47.6239 5.51869 47.7445 5.60636 47.8841 5.62664L52.0591 6.2333C52.4106 6.28438 52.551 6.71637 52.2966 6.96431L49.2756 9.90911C49.1746 10.0076 49.1285 10.1494 49.1523 10.2885L49.8655 14.4466C49.9255 14.7967 49.5581 15.0636 49.2437 14.8983L45.5094 12.9351C45.3845 12.8695 45.2354 12.8695 45.1105 12.9351L41.3763 14.8983C41.0619 15.0636 40.6944 14.7967 40.7545 14.4466L41.4677 10.2885C41.4915 10.1494 41.4454 10.0076 41.3444 9.90911L38.3233 6.96431C38.069 6.71637 38.2093 6.28438 38.5609 6.2333L42.7359 5.62664C42.8754 5.60636 42.9961 5.51869 43.0585 5.3922L44.9256 1.60902Z" fill="#FDB457"/>
</g>
<g clip-path="url(#clip3_1_293)">
<g opacity="0.15">
<path d="M63.3156 1.60902C63.4728 1.29048 63.9271 1.29048 64.0843 1.60902L65.9513 5.3922C66.0138 5.51869 66.1344 5.60636 66.274 5.62664L70.449 6.2333C70.8005 6.28438 70.9409 6.71637 70.6865 6.96431L67.6655 9.90911C67.5645 10.0076 67.5184 10.1494 67.5422 10.2885L68.2554 14.4466C68.3154 14.7967 67.948 15.0636 67.6336 14.8983L63.8994 12.9351C63.7745 12.8695 63.6254 12.8695 63.5005 12.9351L59.7663 14.8983C59.4519 15.0636 59.0844 14.7967 59.1445 14.4466L59.8576 10.2885C59.8815 10.1494 59.8354 10.0076 59.7344 9.90911L56.7133 6.96431C56.459 6.71637 56.5993 6.28438 56.9508 6.2333L61.1258 5.62664C61.2654 5.60636 61.3861 5.51869 61.4485 5.3922L63.3156 1.60902Z" fill="#FDB457"/>
</g>
<path d="M63.3156 1.60902C63.4728 1.29048 63.9271 1.29048 64.0843 1.60902L65.9513 5.3922C66.0138 5.51869 66.1344 5.60636 66.274 5.62664L70.449 6.2333C70.8005 6.28438 70.9409 6.71637 70.6865 6.96431L67.6655 9.90911C67.5645 10.0076 67.5184 10.1494 67.5422 10.2885L68.2554 14.4466C68.3154 14.7967 67.948 15.0636 67.6336 14.8983L63.8994 12.9351C63.7745 12.8695 63.6254 12.8695 63.5005 12.9351L59.7663 14.8983C59.4519 15.0636 59.0844 14.7967 59.1445 14.4466L59.8576 10.2885C59.8815 10.1494 59.8354 10.0076 59.7344 9.90911L56.7133 6.96431C56.459 6.71637 56.5993 6.28438 56.9508 6.2333L61.1258 5.62664C61.2654 5.60636 61.3861 5.51869 61.4485 5.3922L63.3156 1.60902Z" fill="#FDB457"/>
</g>
<g clip-path="url(#clip4_1_293)">
<g opacity="0.15">
<path d="M81.7056 1.60902C81.8628 1.29048 82.3171 1.29048 82.4743 1.60902L84.3414 5.3922C84.4039 5.51869 84.5245 5.60636 84.6641 5.62664L88.8391 6.2333C89.1906 6.28438 89.331 6.71637 89.0766 6.96431L86.0556 9.90911C85.9546 10.0076 85.9085 10.1494 85.9323 10.2885L86.6455 14.4466C86.7055 14.7967 86.3381 15.0636 86.0237 14.8983L82.2894 12.9351C82.1645 12.8695 82.0154 12.8695 81.8905 12.9351L78.1563 14.8983C77.8419 15.0636 77.4744 14.7967 77.5345 14.4466L78.2476 10.2885C78.2715 10.1494 78.2254 10.0076 78.1244 9.90911L75.1033 6.96431C74.849 6.71637 74.9893 6.28438 75.3409 6.2333L79.5158 5.62664C79.6554 5.60636 79.7761 5.51869 79.8385 5.3922L81.7056 1.60902Z" fill="#FDB457"/>
</g>
<path d="M81.7056 1.60902C81.8628 1.29048 82.3171 1.29048 82.4743 1.60902L84.3414 5.3922C84.4039 5.51869 84.5245 5.60636 84.6641 5.62664L88.8391 6.2333C89.1906 6.28438 89.331 6.71637 89.0766 6.96431L86.0556 9.90911C85.9546 10.0076 85.9085 10.1494 85.9323 10.2885L86.6455 14.4466C86.7055 14.7967 86.3381 15.0636 86.0237 14.8983L82.2894 12.9351C82.1645 12.8695 82.0154 12.8695 81.8905 12.9351L78.1563 14.8983C77.8419 15.0636 77.4744 14.7967 77.5345 14.4466L78.2476 10.2885C78.2715 10.1494 78.2254 10.0076 78.1244 9.90911L75.1033 6.96431C74.849 6.71637 74.9893 6.28438 75.3409 6.2333L79.5158 5.62664C79.6554 5.60636 79.7761 5.51869 79.8385 5.3922L81.7056 1.60902Z" fill="#FDB457"/>
</g>
<defs>
<clipPath id="clip0_1_293">
<rect width="16" height="16" fill="white" transform="translate(0.529968 0.330078)"/>
</clipPath>
<clipPath id="clip1_1_293">
<rect width="16" height="16" fill="white" transform="translate(18.92 0.330078)"/>
</clipPath>
<clipPath id="clip2_1_293">
<rect width="16" height="16" fill="white" transform="translate(37.31 0.330078)"/>
</clipPath>
<clipPath id="clip3_1_293">
<rect width="16" height="16" fill="white" transform="translate(55.7 0.330078)"/>
</clipPath>
<clipPath id="clip4_1_293">
<rect width="16" height="16" fill="white" transform="translate(74.09 0.330078)"/>
</clipPath>
</defs>
</svg>
