<svg width="91" height="17" viewBox="0 0 91 17" fill="none" xmlns="http://www.w3.org/2000/svg">
<g clip-path="url(#clip0_1_231)">
<g opacity="0.15">
<path d="M8.49568 1.60902C8.65289 1.29048 9.10711 1.29048 9.26432 1.60902L11.1314 5.3922C11.1939 5.51869 11.3145 5.60636 11.4541 5.62664L15.6291 6.2333C15.9806 6.28438 16.121 6.71637 15.8666 6.96431L12.8456 9.90911C12.7446 10.0076 12.6985 10.1494 12.7223 10.2885L13.4355 14.4466C13.4955 14.7967 13.1281 15.0636 12.8137 14.8983L9.07943 12.9351C8.95458 12.8695 8.80542 12.8695 8.68057 12.9351L4.94635 14.8983C4.63194 15.0636 4.26447 14.7967 4.32451 14.4466L5.03769 10.2885C5.06153 10.1494 5.01544 10.0076 4.91443 9.90911L1.89338 6.96431C1.63902 6.71637 1.77938 6.28438 2.1309 6.2333L6.30589 5.62664C6.44548 5.60636 6.56615 5.51869 6.62858 5.3922L8.49568 1.60902Z" fill="#FDB457"/>
</g>
<path d="M8.49568 1.60902C8.65289 1.29048 9.10711 1.29048 9.26432 1.60902L11.1314 5.3922C11.1939 5.51869 11.3145 5.60636 11.4541 5.62664L15.6291 6.2333C15.9806 6.28438 16.121 6.71637 15.8666 6.96431L12.8456 9.90911C12.7446 10.0076 12.6985 10.1494 12.7223 10.2885L13.4355 14.4466C13.4955 14.7967 13.1281 15.0636 12.8137 14.8983L9.07943 12.9351C8.95458 12.8695 8.80542 12.8695 8.68057 12.9351L4.94635 14.8983C4.63194 15.0636 4.26447 14.7967 4.32451 14.4466L5.03769 10.2885C5.06153 10.1494 5.01544 10.0076 4.91443 9.90911L1.89338 6.96431C1.63902 6.71637 1.77938 6.28438 2.1309 6.2333L6.30589 5.62664C6.44548 5.60636 6.56615 5.51869 6.62858 5.3922L8.49568 1.60902Z" fill="#FDB457"/>
</g>
<g clip-path="url(#clip1_1_231)">
<g opacity="0.15">
<path d="M26.8857 1.60902C27.0429 1.29048 27.4971 1.29048 27.6543 1.60902L29.5214 5.3922C29.5839 5.51869 29.7045 5.60636 29.8441 5.62664L34.0191 6.2333C34.3706 6.28438 34.511 6.71637 34.2566 6.96431L31.2356 9.90911C31.1346 10.0076 31.0885 10.1494 31.1123 10.2885L31.8255 14.4466C31.8855 14.7967 31.5181 15.0636 31.2037 14.8983L27.4694 12.9351C27.3446 12.8695 27.1954 12.8695 27.0706 12.9351L23.3364 14.8983C23.022 15.0636 22.6545 14.7967 22.7145 14.4466L23.4277 10.2885C23.4515 10.1494 23.4055 10.0076 23.3044 9.90911L20.2834 6.96431C20.029 6.71637 20.1694 6.28438 20.5209 6.2333L24.6959 5.62664C24.8355 5.60636 24.9562 5.51869 25.0186 5.3922L26.8857 1.60902Z" fill="#FDB457"/>
</g>
<path d="M26.8857 1.60902C27.0429 1.29048 27.4971 1.29048 27.6543 1.60902L29.5214 5.3922C29.5839 5.51869 29.7045 5.60636 29.8441 5.62664L34.0191 6.2333C34.3706 6.28438 34.511 6.71637 34.2566 6.96431L31.2356 9.90911C31.1346 10.0076 31.0885 10.1494 31.1123 10.2885L31.8255 14.4466C31.8855 14.7967 31.5181 15.0636 31.2037 14.8983L27.4694 12.9351C27.3446 12.8695 27.1954 12.8695 27.0706 12.9351L23.3364 14.8983C23.022 15.0636 22.6545 14.7967 22.7145 14.4466L23.4277 10.2885C23.4515 10.1494 23.4055 10.0076 23.3044 9.90911L20.2834 6.96431C20.029 6.71637 20.1694 6.28438 20.5209 6.2333L24.6959 5.62664C24.8355 5.60636 24.9562 5.51869 25.0186 5.3922L26.8857 1.60902Z" fill="#FDB457"/>
</g>
<g clip-path="url(#clip2_1_231)">
<g opacity="0.15">
<path d="M45.2757 1.60902C45.4329 1.29048 45.8871 1.29048 46.0443 1.60902L47.9114 5.3922C47.9739 5.51869 48.0945 5.60636 48.2341 5.62664L52.4091 6.2333C52.7606 6.28438 52.901 6.71637 52.6466 6.96431L49.6256 9.90911C49.5246 10.0076 49.4785 10.1494 49.5023 10.2885L50.2155 14.4466C50.2755 14.7967 49.9081 15.0636 49.5937 14.8983L45.8594 12.9351C45.7346 12.8695 45.5854 12.8695 45.4606 12.9351L41.7263 14.8983C41.4119 15.0636 41.0445 14.7967 41.1045 14.4466L41.8177 10.2885C41.8415 10.1494 41.7954 10.0076 41.6944 9.90911L38.6734 6.96431C38.419 6.71637 38.5594 6.28438 38.9109 6.2333L43.0859 5.62664C43.2255 5.60636 43.3461 5.51869 43.4086 5.3922L45.2757 1.60902Z" fill="#FDB457"/>
</g>
<path d="M45.2757 1.60902C45.4329 1.29048 45.8871 1.29048 46.0443 1.60902L47.9114 5.3922C47.9739 5.51869 48.0945 5.60636 48.2341 5.62664L52.4091 6.2333C52.7606 6.28438 52.901 6.71637 52.6466 6.96431L49.6256 9.90911C49.5246 10.0076 49.4785 10.1494 49.5023 10.2885L50.2155 14.4466C50.2755 14.7967 49.9081 15.0636 49.5937 14.8983L45.8594 12.9351C45.7346 12.8695 45.5854 12.8695 45.4606 12.9351L41.7263 14.8983C41.4119 15.0636 41.0445 14.7967 41.1045 14.4466L41.8177 10.2885C41.8415 10.1494 41.7954 10.0076 41.6944 9.90911L38.6734 6.96431C38.419 6.71637 38.5594 6.28438 38.9109 6.2333L43.0859 5.62664C43.2255 5.60636 43.3461 5.51869 43.4086 5.3922L45.2757 1.60902Z" fill="#FDB457"/>
</g>
<g clip-path="url(#clip3_1_231)">
<g opacity="0.15">
<path d="M63.6657 1.60902C63.8229 1.29048 64.2771 1.29048 64.4343 1.60902L66.3014 5.3922C66.3639 5.51869 66.4845 5.60636 66.6241 5.62664L70.7991 6.2333C71.1506 6.28438 71.291 6.71637 71.0366 6.96431L68.0156 9.90911C67.9146 10.0076 67.8685 10.1494 67.8923 10.2885L68.6055 14.4466C68.6655 14.7967 68.2981 15.0636 67.9837 14.8983L64.2494 12.9351C64.1246 12.8695 63.9754 12.8695 63.8506 12.9351L60.1163 14.8983C59.8019 15.0636 59.4345 14.7967 59.4945 14.4466L60.2077 10.2885C60.2315 10.1494 60.1854 10.0076 60.0844 9.90911L57.0634 6.96431C56.809 6.71637 56.9494 6.28438 57.3009 6.2333L61.4759 5.62664C61.6155 5.60636 61.7361 5.51869 61.7986 5.3922L63.6657 1.60902Z" fill="#FDB457"/>
</g>
<path d="M63.6657 1.60902C63.8229 1.29048 64.2771 1.29048 64.4343 1.60902L66.3014 5.3922C66.3639 5.51869 66.4845 5.60636 66.6241 5.62664L70.7991 6.2333C71.1506 6.28438 71.291 6.71637 71.0366 6.96431L68.0156 9.90911C67.9146 10.0076 67.8685 10.1494 67.8923 10.2885L68.6055 14.4466C68.6655 14.7967 68.2981 15.0636 67.9837 14.8983L64.2494 12.9351C64.1246 12.8695 63.9754 12.8695 63.8506 12.9351L60.1163 14.8983C59.8019 15.0636 59.4345 14.7967 59.4945 14.4466L60.2077 10.2885C60.2315 10.1494 60.1854 10.0076 60.0844 9.90911L57.0634 6.96431C56.809 6.71637 56.9494 6.28438 57.3009 6.2333L61.4759 5.62664C61.6155 5.60636 61.7361 5.51869 61.7986 5.3922L63.6657 1.60902Z" fill="#FDB457"/>
</g>
<g clip-path="url(#clip4_1_231)">
<g opacity="0.15">
<path d="M82.0557 1.60902C82.2129 1.29048 82.6671 1.29048 82.8243 1.60902L84.6914 5.3922C84.7539 5.51869 84.8745 5.60636 85.0141 5.62664L89.1891 6.2333C89.5406 6.28438 89.681 6.71637 89.4266 6.96431L86.4056 9.90911C86.3046 10.0076 86.2585 10.1494 86.2823 10.2885L86.9955 14.4466C87.0555 14.7967 86.6881 15.0636 86.3737 14.8983L82.6394 12.9351C82.5146 12.8695 82.3654 12.8695 82.2406 12.9351L78.5063 14.8983C78.1919 15.0636 77.8245 14.7967 77.8845 14.4466L78.5977 10.2885C78.6215 10.1494 78.5754 10.0076 78.4744 9.90911L75.4534 6.96431C75.199 6.71637 75.3394 6.28438 75.6909 6.2333L79.8659 5.62664C80.0055 5.60636 80.1261 5.51869 80.1886 5.3922L82.0557 1.60902Z" fill="#FDB457"/>
</g>
<path d="M82.0557 1.60902C82.2129 1.29048 82.6671 1.29048 82.8243 1.60902L84.6914 5.3922C84.7539 5.51869 84.8745 5.60636 85.0141 5.62664L89.1891 6.2333C89.5406 6.28438 89.681 6.71637 89.4266 6.96431L86.4056 9.90911C86.3046 10.0076 86.2585 10.1494 86.2823 10.2885L86.9955 14.4466C87.0555 14.7967 86.6881 15.0636 86.3737 14.8983L82.6394 12.9351C82.5146 12.8695 82.3654 12.8695 82.2406 12.9351L78.5063 14.8983C78.1919 15.0636 77.8245 14.7967 77.8845 14.4466L78.5977 10.2885C78.6215 10.1494 78.5754 10.0076 78.4744 9.90911L75.4534 6.96431C75.199 6.71637 75.3394 6.28438 75.6909 6.2333L79.8659 5.62664C80.0055 5.60636 80.1261 5.51869 80.1886 5.3922L82.0557 1.60902Z" fill="#FDB457"/>
</g>
<defs>
<clipPath id="clip0_1_231">
<rect width="16" height="16" fill="white" transform="translate(0.880005 0.330078)"/>
</clipPath>
<clipPath id="clip1_1_231">
<rect width="16" height="16" fill="white" transform="translate(19.27 0.330078)"/>
</clipPath>
<clipPath id="clip2_1_231">
<rect width="16" height="16" fill="white" transform="translate(37.66 0.330078)"/>
</clipPath>
<clipPath id="clip3_1_231">
<rect width="16" height="16" fill="white" transform="translate(56.05 0.330078)"/>
</clipPath>
<clipPath id="clip4_1_231">
<rect width="16" height="16" fill="white" transform="translate(74.44 0.330078)"/>
</clipPath>
</defs>
</svg>
