<svg width="35" height="23" viewBox="0 0 35 23" fill="none" xmlns="http://www.w3.org/2000/svg">
<g clip-path="url(#clip0_1_525)">
<g clip-path="url(#clip1_1_525)">
<g clip-path="url(#clip2_1_525)">
<path d="M35 1.03223H0V22.9072H35V1.03223Z" fill="white"/>
<path fill-rule="evenodd" clip-rule="evenodd" d="M1.75 1.03223C0.783501 1.03223 0 1.81573 0 2.78223V21.1572C0 22.1237 0.783501 22.9072 1.75 22.9072H33.25C34.2164 22.9072 35 22.1237 35 21.1572V2.78223C35 1.81573 34.2164 1.03223 33.25 1.03223H1.75Z" fill="white"/>
<path fill-rule="evenodd" clip-rule="evenodd" d="M33.25 1.46973H1.75C1.02513 1.46973 0.4375 2.05735 0.4375 2.78223V21.1572C0.4375 21.8821 1.02513 22.4697 1.75 22.4697H33.25C33.9749 22.4697 34.5625 21.8821 34.5625 21.1572V2.78223C34.5625 2.05735 33.9749 1.46973 33.25 1.46973ZM1.75 1.03223C0.783501 1.03223 0 1.81573 0 2.78223V21.1572C0 22.1237 0.783501 22.9072 1.75 22.9072H33.25C34.2164 22.9072 35 22.1237 35 21.1572V2.78223C35 1.81573 34.2164 1.03223 33.25 1.03223H1.75Z" fill="#DDDDD8"/>
<path d="M7.68658 11.0949C7.68658 12.6892 8.31991 14.2182 9.44726 15.3455C10.5746 16.4729 12.1036 17.1062 13.6979 17.1062C15.2922 17.1062 16.8213 16.4729 17.9486 15.3455C19.076 14.2182 19.7093 12.6892 19.7093 11.0949C19.7093 9.50054 19.076 7.97154 17.9486 6.84419C16.8213 5.71684 15.2922 5.0835 13.6979 5.0835C12.1036 5.0835 10.5746 5.71684 9.44726 6.84419C8.31991 7.97154 7.68658 9.50054 7.68658 11.0949Z" fill="#EA001B"/>
<path d="M15.2907 11.0949C15.2907 11.8843 15.4462 12.666 15.7483 13.3953C16.0504 14.1246 16.4932 14.7873 17.0514 15.3455C17.6096 15.9037 18.2723 16.3465 19.0016 16.6486C19.7309 16.9507 20.5126 17.1062 21.3021 17.1062C22.0916 17.1062 22.8732 16.9507 23.6025 16.6486C24.3318 16.3465 24.9946 15.9037 25.5526 15.3455C26.1109 14.7873 26.5536 14.1246 26.8559 13.3953C27.158 12.666 27.3133 11.8843 27.3133 11.0949C27.3133 10.3054 27.158 9.52375 26.8559 8.79441C26.5536 8.06508 26.1109 7.4024 25.5526 6.84419C24.9946 6.28599 24.3318 5.84319 23.6025 5.5411C22.8732 5.23898 22.0916 5.0835 21.3021 5.0835C20.5126 5.0835 19.7309 5.23898 19.0016 5.5411C18.2723 5.84319 17.6096 6.28599 17.0514 6.84419C16.4932 7.4024 16.0504 8.06508 15.7483 8.79441C15.4462 9.52375 15.2907 10.3054 15.2907 11.0949Z" fill="#00A5FF"/>
<path d="M15.3018 11.1058C15.3018 12.9769 16.1569 14.6484 17.4973 15.7507C18.8539 14.6484 19.7206 12.9671 19.7206 11.0834C19.7206 9.2122 18.8656 7.54069 17.5251 6.43848C16.1685 7.54069 15.3018 9.22163 15.3018 11.1058Z" fill="#7475CF"/>
<path d="M26.8122 14.1068H26.8872V14.3019H26.9209V14.1068H26.9957V14.0776H26.8122V14.1068ZM27.2195 14.0776L27.1421 14.2575H27.1412L27.0631 14.0776H27.0226V14.3019H27.0568V14.1418H27.0581L27.1268 14.3019H27.1559L27.2245 14.1418H27.2259V14.3019H27.26V14.0776H27.2195Z" fill="#00A5FF"/>
<path d="M11.4238 18.5038C11.2713 18.5038 11.1138 18.5697 10.9524 18.7065C10.9268 18.659 10.9618 18.6065 10.9178 18.5572C10.8653 18.5549 10.8101 18.5522 10.7541 18.5522C10.7025 18.5522 10.6495 18.5545 10.5957 18.5621V20.16H10.9241C10.9528 20.1143 10.9434 20.0775 10.9434 20.0425C10.9443 19.8011 10.9434 19.5593 10.9438 19.318C10.9438 19.253 10.9452 19.1883 10.9622 19.1251C11.0098 18.9484 11.147 18.8452 11.3332 18.8452C11.3417 18.8452 11.3507 18.8456 11.3592 18.8456C11.5364 18.8546 11.6463 18.9604 11.6769 19.1543C11.6836 19.1969 11.6845 19.2404 11.6849 19.2835C11.6858 19.5427 11.6858 19.8025 11.6863 20.0618C11.6863 20.0936 11.6778 20.1273 11.7136 20.165C11.7293 20.1641 11.745 20.1636 11.7612 20.1636C11.8083 20.1636 11.8572 20.1668 11.9056 20.1668C11.9456 20.1668 11.9855 20.165 12.0241 20.1573C12.0505 20.112 12.042 20.0752 12.042 20.0398C12.0429 19.7949 12.0425 19.5495 12.0425 19.3045C12.0425 19.2395 12.0461 19.1749 12.0645 19.1121C12.1138 18.9461 12.2538 18.8438 12.4274 18.8438C12.4386 18.8438 12.4498 18.8443 12.461 18.8452C12.6418 18.8586 12.7499 18.9622 12.7791 19.1547C12.7854 19.1973 12.7854 19.2408 12.7854 19.2839C12.7858 19.536 12.7854 19.7886 12.7863 20.0407C12.7863 20.0793 12.7755 20.1206 12.8046 20.1573H13.1308C13.1375 20.1394 13.1447 20.1295 13.1447 20.1197C13.1442 19.7738 13.1523 19.4275 13.1389 19.082C13.1285 18.8205 12.9926 18.6271 12.7369 18.5495C12.6494 18.5231 12.5633 18.5083 12.4799 18.5083C12.3152 18.5083 12.1604 18.5643 12.0232 18.6971C11.998 18.7218 11.9833 18.7572 11.9447 18.772C11.7769 18.5953 11.6033 18.5038 11.4238 18.5038ZM14.2101 18.5154C14.0137 18.5154 13.8293 18.5962 13.6785 18.7563C13.391 19.0618 13.3699 19.5831 13.6332 19.9102C13.7553 20.0618 13.9127 20.1609 14.1047 20.1928C14.1585 20.2018 14.211 20.2063 14.2626 20.2063C14.443 20.2063 14.6081 20.1475 14.7453 19.9999C14.7835 20.0551 14.7355 20.1129 14.7852 20.1587H15.1065V18.554C15.0948 18.5545 15.0836 18.5545 15.0724 18.5545C15.0131 18.5545 14.9566 18.5509 14.9023 18.5509C14.8593 18.5509 14.818 18.5531 14.7781 18.5612C14.7449 18.6146 14.7794 18.6662 14.748 18.707C14.569 18.5791 14.3847 18.5154 14.2101 18.5154ZM14.3052 19.8716H14.2963C14.006 19.8666 13.81 19.6531 13.8154 19.3489C13.8208 19.0529 14.0208 18.8447 14.2976 18.8443H14.3052C14.5829 18.8483 14.7875 19.0713 14.7821 19.3633C14.7763 19.6616 14.5784 19.8716 14.3052 19.8716ZM16.223 18.5069C15.9812 18.5069 15.7457 18.6173 15.6017 18.812C15.4173 19.0609 15.3913 19.3431 15.4707 19.6347C15.556 19.9465 15.7695 20.1286 16.0822 20.1892C16.1477 20.2018 16.2136 20.2085 16.2791 20.2085C16.3819 20.2085 16.4841 20.1928 16.5842 20.1618C16.7071 20.1237 16.8228 20.0708 16.9157 19.9716C16.8574 19.885 16.804 19.8061 16.7515 19.728C16.5523 19.8227 16.3774 19.8698 16.2334 19.8698C15.9965 19.8698 15.844 19.7424 15.8081 19.4903H16.9843C17.0112 19.3772 17.0027 19.2803 16.9857 19.1852C16.9287 18.8613 16.7614 18.6262 16.4325 18.5352C16.3639 18.5163 16.293 18.5069 16.223 18.5069ZM15.8166 19.2023C15.8296 18.9892 15.9893 18.8371 16.2038 18.829C16.2105 18.8286 16.2177 18.8286 16.2244 18.8286C16.4424 18.8286 16.5873 18.9604 16.6219 19.2023H15.8166ZM18.0543 18.5069C17.9125 18.5069 17.7703 18.5352 17.6263 18.5989C17.437 18.6823 17.3482 18.8443 17.3571 19.052C17.3656 19.2489 17.4836 19.3638 17.655 19.4382C17.7932 19.4979 17.9412 19.506 18.0866 19.5306C18.1539 19.5423 18.2225 19.5522 18.2826 19.5872C18.3768 19.6414 18.3853 19.7379 18.3037 19.8092C18.262 19.8456 18.2117 19.8653 18.1575 19.8743C18.1018 19.8837 18.0466 19.8882 17.991 19.8882C17.939 19.8882 17.8869 19.8841 17.8349 19.8765C17.6981 19.8568 17.5765 19.798 17.4545 19.7258L17.2984 19.9846C17.3087 20.0008 17.3114 20.008 17.3163 20.0124C17.3244 20.0196 17.3338 20.025 17.3428 20.0304C17.5402 20.1547 17.7506 20.2058 17.9686 20.2058C18.057 20.2058 18.1462 20.1973 18.2369 20.182C18.3696 20.1596 18.4912 20.1053 18.5899 20.008C18.8093 19.7908 18.7617 19.4423 18.4926 19.2947C18.432 19.2615 18.3678 19.2399 18.3015 19.2224C18.1722 19.1888 18.0381 19.183 17.908 19.1561C17.8277 19.1395 17.7389 19.1215 17.7299 19.0143C17.7232 18.9344 17.7945 18.8649 17.9067 18.8407C17.9484 18.8317 17.9906 18.8281 18.0323 18.8281C18.0942 18.8281 18.1557 18.8362 18.2176 18.8479C18.327 18.8685 18.4289 18.912 18.5374 18.9613C18.5886 18.8645 18.6361 18.7747 18.69 18.6724C18.476 18.5702 18.2656 18.5069 18.0543 18.5069ZM19.6405 18.0718H19.2861V18.5392C19.2449 18.5509 19.2045 18.5531 19.1646 18.5531C19.1372 18.5531 19.1103 18.5522 19.0834 18.5522C19.0426 18.5522 19.0022 18.5549 18.9618 18.567C18.9546 18.668 18.9492 18.7667 18.9641 18.8654C18.9999 18.8743 19.0354 18.8766 19.0708 18.8766C19.1027 18.8766 19.1336 18.8748 19.1646 18.8748C19.2027 18.8748 19.2395 18.8775 19.2754 18.8896C19.2942 18.9349 19.2866 18.9753 19.287 19.0138C19.2879 19.2337 19.2843 19.453 19.2888 19.6729C19.2924 19.8563 19.3404 20.0237 19.5087 20.1282C19.5925 20.1807 19.7096 20.2058 19.8312 20.2058C19.9963 20.2058 20.1699 20.1591 20.2816 20.0708C20.2511 19.9766 20.2287 19.877 20.1775 19.7881C20.1089 19.8128 20.0528 19.8388 19.9936 19.8527C19.9474 19.864 19.9061 19.8693 19.8693 19.8693C19.7164 19.8693 19.6441 19.7733 19.6437 19.5755C19.6432 19.3848 19.6428 19.1937 19.6441 19.0031C19.6441 18.9645 19.6329 18.9237 19.6724 18.8743H20.2071C20.2224 18.764 20.2184 18.6684 20.2085 18.5495H19.6419C19.6406 18.3826 19.6405 18.2301 19.6405 18.0718ZM21.3699 18.5128C21.2165 18.5128 21.081 18.5697 20.9657 18.711C20.9343 18.655 20.9707 18.6029 20.9307 18.5585C20.8814 18.554 20.8307 18.5518 20.7791 18.5518C20.7239 18.5518 20.6665 18.554 20.6068 18.5581V20.1587C20.6661 20.1627 20.7226 20.1654 20.7796 20.1654C20.8365 20.1654 20.8931 20.1627 20.9527 20.1569V19.3068C20.9527 19.2382 20.9523 19.17 20.9693 19.1031C21.0115 18.9376 21.1174 18.851 21.2856 18.851H21.2973C21.3677 18.8528 21.4381 18.8663 21.5171 18.8757C21.5516 18.7707 21.5857 18.6671 21.6229 18.5545C21.5332 18.528 21.4493 18.5128 21.3699 18.5128ZM24.2277 20.0106H24.1517V20.1677H24.1841V20.1017H24.2266L24.2837 20.1677H24.32L24.2589 20.0995C24.2913 20.0941 24.3123 20.0797 24.3123 20.0551C24.3123 20.0223 24.2769 20.0106 24.2277 20.0106ZM24.1841 20.0851V20.0277H24.2235C24.2603 20.0277 24.2806 20.0349 24.2806 20.0551C24.2806 20.0752 24.2603 20.0851 24.2235 20.0851H24.1841Z" fill="black"/>
<path d="M24.2357 19.9209C24.143 19.9209 24.0675 19.9963 24.0675 20.0891C24.0675 20.182 24.143 20.2574 24.2357 20.2574C24.3287 20.2574 24.4042 20.182 24.4042 20.0891C24.4042 19.9963 24.3287 19.9209 24.2357 19.9209ZM24.2357 20.2349C24.1554 20.2349 24.09 20.1694 24.09 20.0891C24.09 20.0088 24.1554 19.9433 24.2357 19.9433C24.3162 19.9433 24.3816 20.0088 24.3816 20.0891C24.3816 20.1694 24.3167 20.2349 24.2357 20.2349Z" fill="black"/>
<path d="M22.493 18.8106C22.7662 18.8106 22.9887 19.052 22.9887 19.3489C22.9887 19.6459 22.7662 19.8873 22.493 19.8873C22.2198 19.8873 21.9973 19.6459 21.9973 19.3489C21.9973 19.052 22.2198 18.8106 22.493 18.8106ZM22.493 18.4966C22.0456 18.4966 21.6832 18.8783 21.6832 19.3489C21.6832 19.8195 22.0456 20.2013 22.493 20.2013C22.9401 20.2013 23.3026 19.8195 23.3026 19.3489C23.3026 18.8783 22.9401 18.4966 22.493 18.4966Z" fill="black"/>
</g>
</g>
</g>
<defs>
<clipPath id="clip0_1_525">
<rect y="0.969727" width="35" height="22" rx="5" fill="white"/>
</clipPath>
<clipPath id="clip1_1_525">
<rect width="35" height="22" fill="white" transform="translate(0 0.969727)"/>
</clipPath>
<clipPath id="clip2_1_525">
<rect width="35" height="21.875" fill="white" transform="translate(0 1.03223)"/>
</clipPath>
</defs>
</svg>
