<svg width="35" height="23" viewBox="0 0 35 23" fill="none" xmlns="http://www.w3.org/2000/svg">
<g clip-path="url(#clip0_1_2310)">
<g clip-path="url(#clip1_1_2310)">
<g clip-path="url(#clip2_1_2310)">
<path d="M35 0.54248H0V22.4175H35V0.54248Z" fill="white"/>
<path fill-rule="evenodd" clip-rule="evenodd" d="M1.75 0.54248C0.783501 0.54248 0 1.32598 0 2.29248V20.6675C0 21.634 0.783501 22.4175 1.75 22.4175H33.25C34.2164 22.4175 35 21.634 35 20.6675V2.29248C35 1.32598 34.2164 0.54248 33.25 0.54248H1.75Z" fill="white"/>
<path fill-rule="evenodd" clip-rule="evenodd" d="M33.25 0.97998H1.75C1.02513 0.97998 0.4375 1.56761 0.4375 2.29248V20.6675C0.4375 21.3924 1.02513 21.98 1.75 21.98H33.25C33.9749 21.98 34.5625 21.3924 34.5625 20.6675V2.29248C34.5625 1.56761 33.9749 0.97998 33.25 0.97998ZM1.75 0.54248C0.783501 0.54248 0 1.32598 0 2.29248V20.6675C0 21.634 0.783501 22.4175 1.75 22.4175H33.25C34.2164 22.4175 35 21.634 35 20.6675V2.29248C35 1.32598 34.2164 0.54248 33.25 0.54248H1.75Z" fill="#DDDDD8"/>
<path d="M7.68652 10.6051C7.68652 12.1994 8.31985 13.7284 9.4472 14.8558C10.5745 15.9831 12.1036 16.6165 13.6979 16.6165C15.2922 16.6165 16.8212 15.9831 17.9485 14.8558C19.0759 13.7284 19.7092 12.1994 19.7092 10.6051C19.7092 9.01079 19.0759 7.4818 17.9485 6.35445C16.8212 5.2271 15.2922 4.59375 13.6979 4.59375C12.1036 4.59375 10.5745 5.2271 9.4472 6.35445C8.31985 7.4818 7.68652 9.01079 7.68652 10.6051Z" fill="#EA001B"/>
<path d="M15.2908 10.6051C15.2908 11.3945 15.4463 12.1762 15.7484 12.9056C16.0504 13.6349 16.4932 14.2976 17.0514 14.8558C17.6097 15.414 18.2724 15.8568 19.0017 16.1589C19.731 16.461 20.5127 16.6165 21.3021 16.6165C22.0916 16.6165 22.8732 16.461 23.6025 16.1589C24.3318 15.8568 24.9947 15.414 25.5527 14.8558C26.1109 14.2976 26.5537 13.6349 26.856 12.9056C27.1581 12.1762 27.3134 11.3945 27.3134 10.6051C27.3134 9.81568 27.1581 9.034 26.856 8.30467C26.5537 7.57533 26.1109 6.91265 25.5527 6.35445C24.9947 5.79624 24.3318 5.35345 23.6025 5.05135C22.8732 4.74924 22.0916 4.59375 21.3021 4.59375C20.5127 4.59375 19.731 4.74924 19.0017 5.05135C18.2724 5.35345 17.6097 5.79624 17.0514 6.35445C16.4932 6.91265 16.0504 7.57533 15.7484 8.30467C15.4463 9.034 15.2908 9.81568 15.2908 10.6051Z" fill="#00A5FF"/>
<path d="M15.3018 10.616C15.3018 12.4872 16.1568 14.1587 17.4972 15.2609C18.8538 14.1587 19.7206 12.4773 19.7206 10.5936C19.7206 8.72246 18.8655 7.05095 17.525 5.94873C16.1685 7.05095 15.3018 8.73189 15.3018 10.616Z" fill="#7475CF"/>
<path d="M26.8123 13.6171H26.8873V13.8122H26.921V13.6171H26.9958V13.5879H26.8123V13.6171ZM27.2196 13.5879L27.1421 13.7678H27.1413L27.0632 13.5879H27.0227V13.8122H27.0568V13.6521H27.0581L27.1268 13.8122H27.1559L27.2246 13.6521H27.2259V13.8122H27.26V13.5879H27.2196Z" fill="#00A5FF"/>
<path d="M11.4238 18.014C11.2713 18.014 11.1138 18.08 10.9524 18.2168C10.9268 18.1692 10.9618 18.1168 10.9178 18.0674C10.8653 18.0652 10.8101 18.0625 10.7541 18.0625C10.7025 18.0625 10.6495 18.0647 10.5957 18.0724V19.6703H10.9241C10.9528 19.6245 10.9434 19.5878 10.9434 19.5528C10.9443 19.3114 10.9434 19.0696 10.9438 18.8282C10.9438 18.7632 10.9452 18.6986 10.9622 18.6354C11.0098 18.4586 11.147 18.3554 11.3332 18.3554C11.3417 18.3554 11.3507 18.3559 11.3592 18.3559C11.5364 18.3648 11.6463 18.4707 11.6769 18.6645C11.6836 18.7071 11.6845 18.7506 11.6849 18.7937C11.6858 19.053 11.6858 19.3128 11.6863 19.572C11.6863 19.6039 11.6778 19.6375 11.7136 19.6752C11.7293 19.6743 11.745 19.6739 11.7612 19.6739C11.8083 19.6739 11.8572 19.677 11.9056 19.677C11.9456 19.677 11.9855 19.6752 12.0241 19.6676C12.0505 19.6223 12.042 19.5855 12.042 19.5501C12.0429 19.3051 12.0425 19.0597 12.0425 18.8148C12.0425 18.7497 12.0461 18.6851 12.0645 18.6223C12.1138 18.4564 12.2538 18.3541 12.4274 18.3541C12.4386 18.3541 12.4498 18.3545 12.461 18.3554C12.6418 18.3689 12.7499 18.4725 12.7791 18.665C12.7854 18.7076 12.7854 18.7511 12.7854 18.7942C12.7858 19.0463 12.7854 19.2988 12.7863 19.551C12.7863 19.5895 12.7755 19.6308 12.8046 19.6676H13.1308C13.1375 19.6497 13.1447 19.6398 13.1447 19.6299C13.1442 19.284 13.1523 18.9377 13.1389 18.5923C13.1285 18.3307 12.9926 18.1374 12.7369 18.0598C12.6494 18.0333 12.5633 18.0185 12.4799 18.0185C12.3152 18.0185 12.1604 18.0746 12.0232 18.2074C11.998 18.232 11.9833 18.2675 11.9447 18.2823C11.7769 18.1055 11.6033 18.014 11.4238 18.014ZM14.2101 18.0257C14.0137 18.0257 13.8293 18.1064 13.6785 18.2666C13.391 18.5721 13.3699 19.0934 13.6332 19.4204C13.7553 19.572 13.9127 19.6712 14.1047 19.703C14.1585 19.712 14.211 19.7165 14.2626 19.7165C14.443 19.7165 14.6081 19.6577 14.7453 19.5101C14.7835 19.5653 14.7355 19.6232 14.7852 19.6689H15.1065V18.0643C15.0948 18.0647 15.0836 18.0647 15.0724 18.0647C15.0131 18.0647 14.9566 18.0611 14.9023 18.0611C14.8593 18.0611 14.818 18.0634 14.7781 18.0714C14.7449 18.1248 14.7794 18.1764 14.748 18.2173C14.569 18.0894 14.3847 18.0257 14.2101 18.0257ZM14.3052 19.3818H14.2963C14.006 19.3769 13.81 19.1634 13.8154 18.8592C13.8208 18.5631 14.0208 18.355 14.2976 18.3545H14.3052C14.5829 18.3586 14.7875 18.5815 14.7821 18.8736C14.7763 19.1719 14.5784 19.3818 14.3052 19.3818ZM16.223 18.0172C15.9812 18.0172 15.7457 18.1275 15.6017 18.3222C15.4173 18.5712 15.3913 18.8534 15.4707 19.145C15.556 19.4568 15.7695 19.6389 16.0822 19.6994C16.1477 19.712 16.2136 19.7187 16.2791 19.7187C16.3819 19.7187 16.4841 19.703 16.5842 19.6721C16.7071 19.634 16.8228 19.581 16.9157 19.4819C16.8574 19.3953 16.804 19.3163 16.7515 19.2383C16.5523 19.3329 16.3774 19.38 16.2334 19.38C15.9965 19.38 15.844 19.2526 15.8081 19.0005H16.9843C17.0112 18.8875 17.0027 18.7906 16.9857 18.6955C16.9287 18.3716 16.7614 18.1365 16.4325 18.0454C16.3639 18.0266 16.293 18.0172 16.223 18.0172ZM15.8166 18.7125C15.8296 18.4994 15.9893 18.3474 16.2038 18.3393C16.2105 18.3388 16.2177 18.3388 16.2244 18.3388C16.4424 18.3388 16.5873 18.4707 16.6219 18.7125H15.8166ZM18.0543 18.0172C17.9125 18.0172 17.7703 18.0454 17.6263 18.1091C17.437 18.1926 17.3482 18.3545 17.3571 18.5622C17.3656 18.7592 17.4836 18.874 17.655 18.9485C17.7932 19.0082 17.9412 19.0162 18.0866 19.0409C18.1539 19.0526 18.2225 19.0624 18.2826 19.0974C18.3768 19.1517 18.3853 19.2482 18.3037 19.3195C18.262 19.3558 18.2117 19.3756 18.1575 19.3845C18.1018 19.394 18.0466 19.3984 17.991 19.3984C17.939 19.3984 17.8869 19.3944 17.8349 19.3868C17.6981 19.367 17.5765 19.3083 17.4545 19.236L17.2984 19.4949C17.3087 19.511 17.3114 19.5182 17.3163 19.5227C17.3244 19.5299 17.3338 19.5353 17.3428 19.5407C17.5402 19.6649 17.7506 19.716 17.9686 19.716C18.057 19.716 18.1462 19.7075 18.2369 19.6923C18.3696 19.6698 18.4912 19.6156 18.5899 19.5182C18.8093 19.3011 18.7617 18.9525 18.4926 18.8049C18.432 18.7717 18.3678 18.7502 18.3015 18.7327C18.1722 18.6991 18.0381 18.6932 17.908 18.6663C17.8277 18.6497 17.7389 18.6318 17.7299 18.5245C17.7232 18.4447 17.7945 18.3752 17.9067 18.3509C17.9484 18.342 17.9906 18.3384 18.0323 18.3384C18.0942 18.3384 18.1557 18.3465 18.2176 18.3581C18.327 18.3787 18.4289 18.4223 18.5374 18.4716C18.5886 18.3747 18.6361 18.285 18.69 18.1827C18.476 18.0804 18.2656 18.0172 18.0543 18.0172ZM19.6405 17.582H19.2861V18.0495C19.2449 18.0611 19.2045 18.0634 19.1646 18.0634C19.1372 18.0634 19.1103 18.0625 19.0834 18.0625C19.0426 18.0625 19.0022 18.0652 18.9618 18.0773C18.9546 18.1782 18.9492 18.2769 18.9641 18.3756C18.9999 18.3846 19.0354 18.3868 19.0708 18.3868C19.1027 18.3868 19.1336 18.385 19.1646 18.385C19.2027 18.385 19.2395 18.3877 19.2754 18.3998C19.2942 18.4452 19.2866 18.4855 19.287 18.5241C19.2879 18.7439 19.2843 18.9633 19.2888 19.1831C19.2924 19.3666 19.3404 19.5339 19.5087 19.6384C19.5925 19.6909 19.7096 19.716 19.8312 19.716C19.9963 19.716 20.1699 19.6694 20.2816 19.581C20.2511 19.4868 20.2287 19.3872 20.1775 19.2984C20.1089 19.3231 20.0528 19.3491 19.9936 19.363C19.9474 19.3742 19.9061 19.3796 19.8693 19.3796C19.7164 19.3796 19.6441 19.2836 19.6437 19.0858C19.6432 18.8951 19.6428 18.704 19.6441 18.5133C19.6441 18.4748 19.6329 18.4339 19.6724 18.3846H20.2071C20.2224 18.2742 20.2184 18.1787 20.2085 18.0598H19.6419C19.6406 17.8929 19.6405 17.7404 19.6405 17.582ZM21.3699 18.023C21.2165 18.023 21.081 18.08 20.9657 18.2213C20.9343 18.1652 20.9707 18.1132 20.9307 18.0687C20.8814 18.0643 20.8307 18.062 20.7791 18.062C20.7239 18.062 20.6665 18.0643 20.6068 18.0683V19.6689C20.6661 19.673 20.7226 19.6757 20.7796 19.6757C20.8365 19.6757 20.8931 19.673 20.9527 19.6672V18.817C20.9527 18.7484 20.9523 18.6802 20.9693 18.6134C21.0115 18.4478 21.1174 18.3613 21.2856 18.3613H21.2973C21.3677 18.3631 21.4381 18.3765 21.5171 18.3859C21.5516 18.281 21.5857 18.1773 21.6229 18.0647C21.5332 18.0383 21.4493 18.023 21.3699 18.023ZM24.2277 19.5209H24.1517V19.6779H24.1841V19.612H24.2266L24.2837 19.6779H24.32L24.2589 19.6097C24.2913 19.6044 24.3123 19.59 24.3123 19.5653C24.3123 19.5326 24.2769 19.5209 24.2277 19.5209ZM24.1841 19.5954V19.538H24.2235C24.2603 19.538 24.2806 19.5451 24.2806 19.5653C24.2806 19.5855 24.2603 19.5954 24.2235 19.5954H24.1841Z" fill="black"/>
<path d="M24.2358 19.4312C24.1431 19.4312 24.0676 19.5065 24.0676 19.5994C24.0676 19.6923 24.1431 19.7676 24.2358 19.7676C24.3288 19.7676 24.4043 19.6923 24.4043 19.5994C24.4043 19.5065 24.3288 19.4312 24.2358 19.4312ZM24.2358 19.7452C24.1556 19.7452 24.0902 19.6797 24.0902 19.5994C24.0902 19.5191 24.1556 19.4536 24.2358 19.4536C24.3163 19.4536 24.3818 19.5191 24.3818 19.5994C24.3818 19.6797 24.3168 19.7452 24.2358 19.7452Z" fill="black"/>
<path d="M22.4929 18.3209C22.7661 18.3209 22.9886 18.5622 22.9886 18.8592C22.9886 19.1562 22.7661 19.3975 22.4929 19.3975C22.2197 19.3975 21.9972 19.1562 21.9972 18.8592C21.9972 18.5622 22.2197 18.3209 22.4929 18.3209ZM22.4929 18.0068C22.0456 18.0068 21.6831 18.3886 21.6831 18.8592C21.6831 19.3298 22.0456 19.7116 22.4929 19.7116C22.94 19.7116 23.3025 19.3298 23.3025 18.8592C23.3025 18.3886 22.94 18.0068 22.4929 18.0068Z" fill="black"/>
</g>
</g>
</g>
<defs>
<clipPath id="clip0_1_2310">
<rect y="0.47998" width="35" height="22" rx="5" fill="white"/>
</clipPath>
<clipPath id="clip1_1_2310">
<rect width="35" height="22" fill="white" transform="translate(0 0.47998)"/>
</clipPath>
<clipPath id="clip2_1_2310">
<rect width="35" height="21.875" fill="white" transform="translate(0 0.54248)"/>
</clipPath>
</defs>
</svg>
