<svg width="35" height="23" viewBox="0 0 35 23" fill="none" xmlns="http://www.w3.org/2000/svg">
<g clip-path="url(#clip0_1_5212)">
<g clip-path="url(#clip1_1_5212)">
<g clip-path="url(#clip2_1_5212)">
<path d="M35 0.472656H0V22.3477H35V0.472656Z" fill="white"/>
<path fill-rule="evenodd" clip-rule="evenodd" d="M1.75 0.472656C0.783501 0.472656 0 1.25616 0 2.22266V20.5977C0 21.5642 0.783501 22.3477 1.75 22.3477H33.25C34.2164 22.3477 35 21.5642 35 20.5977V2.22266C35 1.25616 34.2164 0.472656 33.25 0.472656H1.75Z" fill="white"/>
<path fill-rule="evenodd" clip-rule="evenodd" d="M33.25 0.910156H1.75C1.02513 0.910156 0.4375 1.49778 0.4375 2.22266V20.5977C0.4375 21.3225 1.02513 21.9102 1.75 21.9102H33.25C33.9749 21.9102 34.5625 21.3225 34.5625 20.5977V2.22266C34.5625 1.49778 33.9749 0.910156 33.25 0.910156ZM1.75 0.472656C0.783501 0.472656 0 1.25616 0 2.22266V20.5977C0 21.5642 0.783501 22.3477 1.75 22.3477H33.25C34.2164 22.3477 35 21.5642 35 20.5977V2.22266C35 1.25616 34.2164 0.472656 33.25 0.472656H1.75Z" fill="#DDDDD8"/>
<path d="M7.68652 10.5353C7.68652 12.1296 8.31985 13.6586 9.4472 14.7859C10.5745 15.9133 12.1036 16.5466 13.6979 16.5466C15.2922 16.5466 16.8212 15.9133 17.9485 14.7859C19.0759 13.6586 19.7092 12.1296 19.7092 10.5353C19.7092 8.94097 19.0759 7.41197 17.9485 6.28462C16.8212 5.15727 15.2922 4.52393 13.6979 4.52393C12.1036 4.52393 10.5745 5.15727 9.4472 6.28462C8.31985 7.41197 7.68652 8.94097 7.68652 10.5353Z" fill="#EA001B"/>
<path d="M15.2905 10.5353C15.2905 11.3247 15.446 12.1064 15.7481 12.8357C16.0502 13.5651 16.493 14.2277 17.0512 14.7859C17.6094 15.3442 18.2721 15.7869 19.0014 16.089C19.7308 16.3912 20.5125 16.5466 21.3019 16.5466C22.0914 16.5466 22.873 16.3912 23.6023 16.089C24.3316 15.7869 24.9944 15.3442 25.5524 14.7859C26.1107 14.2277 26.5534 13.5651 26.8558 12.8357C27.1578 12.1064 27.3132 11.3247 27.3132 10.5353C27.3132 9.74586 27.1578 8.96418 26.8558 8.23484C26.5534 7.50551 26.1107 6.84283 25.5524 6.28462C24.9944 5.72642 24.3316 5.28362 23.6023 4.98153C22.873 4.67941 22.0914 4.52393 21.3019 4.52393C20.5125 4.52393 19.7308 4.67941 19.0014 4.98153C18.2721 5.28362 17.6094 5.72642 17.0512 6.28462C16.493 6.84283 16.0502 7.50551 15.7481 8.23484C15.446 8.96418 15.2905 9.74586 15.2905 10.5353Z" fill="#00A5FF"/>
<path d="M15.3018 10.5462C15.3018 12.4174 16.1568 14.0889 17.4972 15.1911C18.8538 14.0889 19.7206 12.4075 19.7206 10.5238C19.7206 8.65263 18.8655 6.98112 17.525 5.87891C16.1685 6.98112 15.3018 8.66206 15.3018 10.5462Z" fill="#7475CF"/>
<path d="M26.812 13.5472H26.887V13.7424H26.9207V13.5472H26.9955V13.5181H26.812V13.5472ZM27.2193 13.5181L27.1419 13.698H27.141L27.0629 13.5181H27.0224V13.7424H27.0566V13.5822H27.0579L27.1266 13.7424H27.1557L27.2244 13.5822H27.2257V13.7424H27.2598V13.5181H27.2193Z" fill="#00A5FF"/>
<path d="M11.4238 17.9442C11.2713 17.9442 11.1138 18.0101 10.9524 18.147C10.9268 18.0994 10.9618 18.0469 10.9178 17.9976C10.8653 17.9953 10.8101 17.9926 10.7541 17.9926C10.7025 17.9926 10.6495 17.9949 10.5957 18.0025V19.6005H10.9241C10.9528 19.5547 10.9434 19.5179 10.9434 19.4829C10.9443 19.2416 10.9434 18.9998 10.9438 18.7584C10.9438 18.6934 10.9452 18.6288 10.9622 18.5655C11.0098 18.3888 11.147 18.2856 11.3332 18.2856C11.3417 18.2856 11.3507 18.286 11.3592 18.286C11.5364 18.295 11.6463 18.4009 11.6769 18.5947C11.6836 18.6373 11.6845 18.6808 11.6849 18.7239C11.6858 18.9832 11.6858 19.2429 11.6863 19.5022C11.6863 19.5341 11.6778 19.5677 11.7136 19.6054C11.7293 19.6045 11.745 19.604 11.7612 19.604C11.8083 19.604 11.8572 19.6072 11.9056 19.6072C11.9456 19.6072 11.9855 19.6054 12.0241 19.5978C12.0505 19.5525 12.042 19.5157 12.042 19.4802C12.0429 19.2353 12.0425 18.9899 12.0425 18.745C12.0425 18.6799 12.0461 18.6153 12.0645 18.5525C12.1138 18.3865 12.2538 18.2842 12.4274 18.2842C12.4386 18.2842 12.4498 18.2847 12.461 18.2856C12.6418 18.2991 12.7499 18.4027 12.7791 18.5951C12.7854 18.6378 12.7854 18.6813 12.7854 18.7243C12.7858 18.9765 12.7854 19.229 12.7863 19.4811C12.7863 19.5197 12.7755 19.561 12.8046 19.5978H13.1308C13.1375 19.5798 13.1447 19.57 13.1447 19.5601C13.1442 19.2142 13.1523 18.8679 13.1389 18.5225C13.1285 18.2609 12.9926 18.0676 12.7369 17.99C12.6494 17.9635 12.5633 17.9487 12.4799 17.9487C12.3152 17.9487 12.1604 18.0048 12.0232 18.1375C11.998 18.1622 11.9833 18.1977 11.9447 18.2125C11.7769 18.0357 11.6033 17.9442 11.4238 17.9442ZM14.2101 17.9559C14.0137 17.9559 13.8293 18.0366 13.6785 18.1968C13.391 18.5023 13.3699 19.0236 13.6332 19.3506C13.7553 19.5022 13.9127 19.6014 14.1047 19.6332C14.1585 19.6422 14.211 19.6467 14.2626 19.6467C14.443 19.6467 14.6081 19.5879 14.7453 19.4403C14.7835 19.4955 14.7355 19.5534 14.7852 19.5991H15.1065V17.9944C15.0948 17.9949 15.0836 17.9949 15.0724 17.9949C15.0131 17.9949 14.9566 17.9913 14.9023 17.9913C14.8593 17.9913 14.818 17.9935 14.7781 18.0016C14.7449 18.055 14.7794 18.1066 14.748 18.1474C14.569 18.0196 14.3847 17.9559 14.2101 17.9559ZM14.3052 19.312H14.2963C14.006 19.3071 13.81 19.0936 13.8154 18.7894C13.8208 18.4933 14.0208 18.2851 14.2976 18.2847H14.3052C14.5829 18.2887 14.7875 18.5117 14.7821 18.8037C14.7763 19.1021 14.5784 19.312 14.3052 19.312ZM16.223 17.9473C15.9812 17.9473 15.7457 18.0577 15.6017 18.2524C15.4173 18.5014 15.3913 18.7836 15.4707 19.0752C15.556 19.3869 15.7695 19.5691 16.0822 19.6296C16.1477 19.6422 16.2136 19.6489 16.2791 19.6489C16.3819 19.6489 16.4841 19.6332 16.5842 19.6023C16.7071 19.5641 16.8228 19.5112 16.9157 19.4121C16.8574 19.3255 16.804 19.2465 16.7515 19.1685C16.5523 19.2631 16.3774 19.3102 16.2334 19.3102C15.9965 19.3102 15.844 19.1828 15.8081 18.9307H16.9843C17.0112 18.8176 17.0027 18.7207 16.9857 18.6256C16.9287 18.3017 16.7614 18.0667 16.4325 17.9756C16.3639 17.9568 16.293 17.9473 16.223 17.9473ZM15.8166 18.6427C15.8296 18.4296 15.9893 18.2775 16.2038 18.2695C16.2105 18.269 16.2177 18.269 16.2244 18.269C16.4424 18.269 16.5873 18.4009 16.6219 18.6427H15.8166ZM18.0543 17.9473C17.9125 17.9473 17.7703 17.9756 17.6263 18.0393C17.437 18.1228 17.3482 18.2847 17.3571 18.4924C17.3656 18.6893 17.4836 18.8042 17.655 18.8787C17.7932 18.9383 17.9412 18.9464 18.0866 18.9711C18.1539 18.9827 18.2225 18.9926 18.2826 19.0276C18.3768 19.0819 18.3853 19.1783 18.3037 19.2497C18.262 19.286 18.2117 19.3057 18.1575 19.3147C18.1018 19.3241 18.0466 19.3286 17.991 19.3286C17.939 19.3286 17.8869 19.3246 17.8349 19.3169C17.6981 19.2972 17.5765 19.2385 17.4545 19.1662L17.2984 19.4251C17.3087 19.4412 17.3114 19.4484 17.3163 19.4529C17.3244 19.46 17.3338 19.4654 17.3428 19.4708C17.5402 19.5951 17.7506 19.6462 17.9686 19.6462C18.057 19.6462 18.1462 19.6377 18.2369 19.6224C18.3696 19.6 18.4912 19.5457 18.5899 19.4484C18.8093 19.2313 18.7617 18.8827 18.4926 18.7351C18.432 18.7019 18.3678 18.6804 18.3015 18.6629C18.1722 18.6292 18.0381 18.6234 17.908 18.5965C17.8277 18.5799 17.7389 18.5619 17.7299 18.4547C17.7232 18.3749 17.7945 18.3053 17.9067 18.2811C17.9484 18.2721 17.9906 18.2686 18.0323 18.2686C18.0942 18.2686 18.1557 18.2766 18.2176 18.2883C18.327 18.3089 18.4289 18.3524 18.5374 18.4018C18.5886 18.3049 18.6361 18.2152 18.69 18.1129C18.476 18.0106 18.2656 17.9473 18.0543 17.9473ZM19.6405 17.5122H19.2861V17.9797C19.2449 17.9913 19.2045 17.9935 19.1646 17.9935C19.1372 17.9935 19.1103 17.9926 19.0834 17.9926C19.0426 17.9926 19.0022 17.9953 18.9618 18.0075C18.9546 18.1084 18.9492 18.2071 18.9641 18.3058C18.9999 18.3148 19.0354 18.317 19.0708 18.317C19.1027 18.317 19.1336 18.3152 19.1646 18.3152C19.2027 18.3152 19.2395 18.3179 19.2754 18.33C19.2942 18.3753 19.2866 18.4157 19.287 18.4543C19.2879 18.6741 19.2843 18.8935 19.2888 19.1133C19.2924 19.2968 19.3404 19.4641 19.5087 19.5686C19.5925 19.6211 19.7096 19.6462 19.8312 19.6462C19.9963 19.6462 20.1699 19.5996 20.2816 19.5112C20.2511 19.417 20.2287 19.3174 20.1775 19.2286C20.1089 19.2532 20.0528 19.2793 19.9936 19.2932C19.9474 19.3044 19.9061 19.3098 19.8693 19.3098C19.7164 19.3098 19.6441 19.2138 19.6437 19.0159C19.6432 18.8253 19.6428 18.6342 19.6441 18.4435C19.6441 18.4049 19.6329 18.3641 19.6724 18.3148H20.2071C20.2224 18.2044 20.2184 18.1088 20.2085 17.99H19.6419C19.6406 17.8231 19.6405 17.6706 19.6405 17.5122ZM21.3699 17.9532C21.2165 17.9532 21.081 18.0101 20.9657 18.1515C20.9343 18.0954 20.9707 18.0434 20.9307 17.9989C20.8814 17.9944 20.8307 17.9922 20.7791 17.9922C20.7239 17.9922 20.6665 17.9944 20.6068 17.9985V19.5991C20.6661 19.6032 20.7226 19.6058 20.7796 19.6058C20.8365 19.6058 20.8931 19.6032 20.9527 19.5973V18.7472C20.9527 18.6786 20.9523 18.6104 20.9693 18.5435C21.0115 18.378 21.1174 18.2914 21.2856 18.2914H21.2973C21.3677 18.2932 21.4381 18.3067 21.5171 18.3161C21.5516 18.2111 21.5857 18.1075 21.6229 17.9949C21.5332 17.9684 21.4493 17.9532 21.3699 17.9532ZM24.2277 19.4511H24.1517V19.6081H24.1841V19.5421H24.2266L24.2837 19.6081H24.32L24.2589 19.5399C24.2913 19.5345 24.3123 19.5202 24.3123 19.4955C24.3123 19.4627 24.2769 19.4511 24.2277 19.4511ZM24.1841 19.5255V19.4681H24.2235C24.2603 19.4681 24.2806 19.4753 24.2806 19.4955C24.2806 19.5157 24.2603 19.5255 24.2235 19.5255H24.1841Z" fill="black"/>
<path d="M24.2356 19.3613C24.1429 19.3613 24.0674 19.4367 24.0674 19.5296C24.0674 19.6224 24.1429 19.6978 24.2356 19.6978C24.3286 19.6978 24.404 19.6224 24.404 19.5296C24.404 19.4367 24.3286 19.3613 24.2356 19.3613ZM24.2356 19.6754C24.1553 19.6754 24.0899 19.6099 24.0899 19.5296C24.0899 19.4493 24.1553 19.3838 24.2356 19.3838C24.3161 19.3838 24.3815 19.4493 24.3815 19.5296C24.3815 19.6099 24.3165 19.6754 24.2356 19.6754Z" fill="black"/>
<path d="M22.4929 18.251C22.7661 18.251 22.9886 18.4924 22.9886 18.7894C22.9886 19.0863 22.7661 19.3277 22.4929 19.3277C22.2197 19.3277 21.9972 19.0863 21.9972 18.7894C21.9972 18.4924 22.2197 18.251 22.4929 18.251ZM22.4929 17.937C22.0456 17.937 21.6831 18.3188 21.6831 18.7894C21.6831 19.2599 22.0456 19.6417 22.4929 19.6417C22.94 19.6417 23.3025 19.2599 23.3025 18.7894C23.3025 18.3188 22.94 17.937 22.4929 17.937Z" fill="black"/>
</g>
</g>
</g>
<defs>
<clipPath id="clip0_1_5212">
<rect y="0.410156" width="35" height="22" rx="5" fill="white"/>
</clipPath>
<clipPath id="clip1_1_5212">
<rect width="35" height="22" fill="white" transform="translate(0 0.410156)"/>
</clipPath>
<clipPath id="clip2_1_5212">
<rect width="35" height="21.875" fill="white" transform="translate(0 0.472656)"/>
</clipPath>
</defs>
</svg>
