<svg width="39" height="25" viewBox="0 0 39 25" fill="none" xmlns="http://www.w3.org/2000/svg">
<g clip-path="url(#clip0_1_4677)">
<g clip-path="url(#clip1_1_4677)">
<g clip-path="url(#clip2_1_4677)">
<path d="M0.390137 2.4726C0.390137 1.41249 1.24953 0.553101 2.30964 0.553101H36.8606C37.9207 0.553101 38.7801 1.41249 38.7801 2.4726V22.6273C38.7801 23.6875 37.9207 24.5469 36.8606 24.5469H2.30964C1.24953 24.5469 0.390137 23.6875 0.390137 22.6273V2.4726Z" fill="white"/>
<path d="M8.82129 12.55C8.82129 14.2988 9.51596 15.9759 10.7525 17.2124C11.989 18.4489 13.6662 19.1436 15.4149 19.1436C17.1636 19.1436 18.8407 18.4489 20.0773 17.2124C21.3138 15.9759 22.0085 14.2988 22.0085 12.55C22.0085 10.8013 21.3138 9.1242 20.0773 7.88765C18.8407 6.65111 17.1636 5.95642 15.4149 5.95642C13.6662 5.95642 11.989 6.65111 10.7525 7.88765C9.51596 9.1242 8.82129 10.8013 8.82129 12.55Z" fill="#EB001B"/>
<path d="M17.1616 12.55C17.1616 13.4159 17.3322 14.2733 17.6635 15.0733C17.9949 15.8733 18.4806 16.6001 19.0928 17.2124C19.7051 17.8247 20.432 18.3103 21.2319 18.6417C22.0319 18.9731 22.8893 19.1436 23.7552 19.1436C24.6211 19.1436 25.4786 18.9731 26.2786 18.6417C27.0785 18.3103 27.8053 17.8247 28.4176 17.2124C29.0299 16.6001 29.5155 15.8733 29.8469 15.0733C30.1783 14.2733 30.3488 13.4159 30.3488 12.55C30.3488 11.6841 30.1783 10.8267 29.8469 10.0268C29.5155 9.22679 29.0299 8.49993 28.4176 7.88765C27.8053 7.27538 27.0785 6.7897 26.2786 6.45835C25.4786 6.12697 24.6211 5.95642 23.7552 5.95642C22.8893 5.95642 22.0319 6.12697 21.2319 6.45835C20.432 6.7897 19.7051 7.27538 19.0928 7.88765C18.4806 8.49993 17.9949 9.22679 17.6635 10.0268C17.3322 10.8267 17.1616 11.6841 17.1616 12.55Z" fill="#F79E1B"/>
<path d="M17.1738 12.5623C17.1738 14.6147 18.1117 16.4481 19.582 17.6571C21.07 16.4481 22.0206 14.6038 22.0206 12.5377C22.0206 10.4853 21.0827 8.65187 19.6125 7.44287C18.1245 8.65187 17.1738 10.4956 17.1738 12.5623Z" fill="#FF5F00"/>
<path fill-rule="evenodd" clip-rule="evenodd" d="M36.8606 1.03298H2.30964C1.51455 1.03298 0.870012 1.67752 0.870012 2.4726V22.6273C0.870012 23.4224 1.51455 24.067 2.30964 24.067H36.8606C37.6558 24.067 38.3003 23.4224 38.3003 22.6273V2.4726C38.3003 1.67752 37.6558 1.03298 36.8606 1.03298ZM2.30964 0.553101C1.24953 0.553101 0.390137 1.41249 0.390137 2.4726V22.6273C0.390137 23.6875 1.24953 24.5469 2.30964 24.5469H36.8606C37.9207 24.5469 38.7801 23.6875 38.7801 22.6273V2.4726C38.7801 1.41249 37.9207 0.553101 36.8606 0.553101H2.30964Z" fill="#DDDDD8"/>
</g>
</g>
</g>
<defs>
<clipPath id="clip0_1_4677">
<rect width="38.39" height="24" fill="white" transform="translate(0.390137 0.549927)"/>
</clipPath>
<clipPath id="clip1_1_4677">
<rect width="38.39" height="24" fill="white" transform="translate(0.390137 0.549927)"/>
</clipPath>
<clipPath id="clip2_1_4677">
<rect width="38.39" height="23.9937" fill="white" transform="translate(0.390137 0.553101)"/>
</clipPath>
</defs>
</svg>
