<svg width="35" height="23" viewBox="0 0 35 23" fill="none" xmlns="http://www.w3.org/2000/svg">
<g clip-path="url(#clip0_1_5237)">
<g clip-path="url(#clip1_1_5237)">
<g clip-path="url(#clip2_1_5237)">
<path d="M33.25 0.691406H1.75C0.904314 0.691406 0.21875 1.37697 0.21875 2.22266V20.5976C0.21875 21.4433 0.904314 22.1289 1.75 22.1289H33.25C34.0957 22.1289 34.7812 21.4433 34.7812 20.5976V2.22266C34.7812 1.37697 34.0957 0.691406 33.25 0.691406Z" fill="white"/>
<path d="M2.60205 8.95187C2.60205 8.90479 2.61463 8.86739 2.63913 8.83921C2.66407 8.8115 2.7009 8.79736 2.75034 8.79736H4.8963C5.05048 8.79736 5.19599 8.8185 5.33271 8.86115C5.46908 8.90379 5.59455 8.96256 5.70876 9.03749C5.82266 9.11252 5.92596 9.20203 6.01792 9.30657C6.10944 9.41032 6.18725 9.52287 6.25104 9.64399C6.31472 9.76468 6.36359 9.89192 6.39721 10.0251C6.43083 10.158 6.44754 10.2932 6.44754 10.4296C6.44754 10.6314 6.4109 10.8282 6.33854 11.0209C6.26563 11.2134 6.16188 11.3848 6.02783 11.5347C5.89345 11.6845 5.73214 11.8062 5.54433 11.8988C5.35585 11.992 5.14778 12.0398 4.91944 12.0418H3.90202V13.6404C3.90202 13.7366 3.85059 13.7844 3.74762 13.7844H2.75034C2.70526 13.7844 2.66951 13.7727 2.64269 13.7497C2.61574 13.726 2.60205 13.6894 2.60205 13.6404V8.95187ZM5.13119 10.4227C5.13119 10.3555 5.11951 10.2884 5.09591 10.2212C5.0722 10.1542 5.03847 10.0941 4.9936 10.0417C4.94884 9.98911 4.8944 9.94604 4.83072 9.91231C4.76671 9.87891 4.69457 9.86187 4.61407 9.86187H3.90215V10.9836H4.61407C4.69457 10.9836 4.76715 10.9674 4.83227 10.935C4.89718 10.9024 4.95173 10.8607 4.99515 10.8093C5.03879 10.7575 5.0722 10.6984 5.09602 10.6313C5.11951 10.5639 5.13119 10.4947 5.13119 10.4227Z" fill="#941F7F"/>
<path d="M8.43577 8.92866C8.43778 8.91541 8.44502 8.90095 8.45749 8.88502C8.46974 8.86932 8.4852 8.85486 8.5029 8.84138C8.5206 8.82769 8.53998 8.81745 8.56023 8.80953C8.58005 8.80174 8.59919 8.79785 8.61691 8.79785H9.47701C9.51488 8.79785 9.54728 8.80953 9.57445 8.83303C9.60116 8.85663 9.62108 8.87724 9.63456 8.89537L9.71838 9.08662L11.4817 13.6339C11.4997 13.6788 11.4961 13.7149 11.4715 13.743C11.4472 13.7709 11.4046 13.785 11.344 13.785H10.3805C10.3286 13.785 10.2889 13.7755 10.2612 13.7566C10.2331 13.7371 10.211 13.7055 10.1957 13.6606C10.1508 13.5467 10.1071 13.433 10.0647 13.3199C10.0219 13.2068 9.97922 13.0935 9.9368 12.979H8.15345C8.11103 13.0935 8.06794 13.2069 8.0243 13.3199C7.98066 13.4329 7.93758 13.5465 7.89495 13.6606C7.86566 13.7436 7.80911 13.785 7.72384 13.785H6.73301C6.69038 13.785 6.65542 13.7736 6.62725 13.7515C6.59921 13.729 6.59396 13.6954 6.61233 13.6504L8.43577 8.92866ZM9.04708 10.3661C9.00443 10.4803 8.96125 10.6035 8.91761 10.7354C8.87396 10.8677 8.83087 11.0008 8.78824 11.135C8.74604 11.2696 8.70286 11.402 8.65922 11.5331C8.61558 11.6642 8.57248 11.7867 8.52985 11.9009H9.56086L9.04708 10.3661Z" fill="#941F7F"/>
<path d="M12.9714 10.6381L13.7824 8.90171C13.7957 8.875 13.807 8.8554 13.8158 8.84315C13.8251 8.83069 13.8339 8.82178 13.8428 8.81601C13.8517 8.81054 13.8614 8.80719 13.8712 8.8061C13.8814 8.80509 13.8931 8.80253 13.9066 8.79785H15.1994C15.2154 8.79785 15.2282 8.80308 15.2384 8.81299C15.2483 8.82301 15.2533 8.83493 15.2533 8.84816C15.2533 8.87277 15.2376 8.90106 15.2067 8.93201L13.6147 11.7497V13.6273C13.6147 13.7322 13.5632 13.7849 13.4605 13.7849H12.4553C12.4106 13.7849 12.3765 13.7708 12.3515 13.7429C12.327 13.7147 12.3147 13.6763 12.3147 13.6273V11.7433L10.7263 8.93201C10.6972 8.90305 10.6826 8.87511 10.6826 8.84816C10.6826 8.83493 10.6873 8.82301 10.6961 8.81299C10.7051 8.80308 10.7172 8.79785 10.733 8.79785H12.0261C12.0416 8.80253 12.0539 8.80509 12.0627 8.8061C12.072 8.80719 12.0808 8.81054 12.0899 8.81601C12.0988 8.82178 12.1076 8.83069 12.1165 8.84315C12.1258 8.8554 12.138 8.87511 12.1536 8.90171L12.9714 10.6381Z" fill="#941F7F"/>
<path d="M15.7236 8.94509C15.7236 8.90479 15.7359 8.87005 15.7605 8.84111C15.785 8.81171 15.8222 8.79747 15.8712 8.79747H16.9697C17.0007 8.79747 17.0334 8.80526 17.067 8.82062C17.1006 8.83665 17.1296 8.86349 17.1543 8.90145C17.4386 9.36034 17.7206 9.81243 18.0005 10.2581C18.2805 10.7037 18.5638 11.1561 18.8502 11.615V8.92483C18.8591 8.88462 18.8767 8.8529 18.9039 8.83075C18.9308 8.80848 18.9624 8.79736 18.9977 8.79736H19.9548C20.0023 8.79736 20.0415 8.80983 20.0728 8.83575C20.1041 8.86159 20.1197 8.89799 20.1197 8.94498V13.6534C20.1197 13.6982 20.1064 13.731 20.0794 13.7524C20.0524 13.7738 20.0157 13.7846 19.9687 13.7846H18.8973C18.8681 13.7846 18.8426 13.7744 18.8202 13.754C18.7977 13.7341 18.7742 13.7074 18.7498 13.6736C18.4516 13.181 18.1575 12.694 17.8662 12.2127C17.5755 11.7314 17.2799 11.2443 16.9798 10.7517V13.6366C16.9798 13.6857 16.9686 13.7228 16.946 13.7475C16.9237 13.7722 16.8833 13.7846 16.8253 13.7846H15.8715C15.82 13.7846 15.7826 13.7706 15.759 13.7422C15.7355 13.7144 15.7239 13.6802 15.7239 13.6401L15.7236 8.94509Z" fill="#941F7F"/>
<path d="M28.0021 13.7143C27.9796 13.6762 27.9584 13.6369 27.9385 13.5968C27.9186 13.5562 27.9004 13.5159 27.8849 13.4758C27.5957 12.7144 27.3082 11.9601 27.0217 11.2122C26.7351 10.4643 26.4475 9.7099 26.1581 8.94865C26.1581 8.9373 26.1565 8.9275 26.1535 8.91838C26.15 8.90934 26.1484 8.90055 26.1484 8.89165C26.1484 8.82897 26.1898 8.79758 26.2727 8.79758H27.3542C27.4395 8.79758 27.497 8.84022 27.5287 8.92505L28.5562 11.9844L29.5067 8.92505C29.538 8.84022 29.5994 8.79758 29.6913 8.79758H30.7833C30.8343 8.79758 30.871 8.80703 30.892 8.82595C30.9135 8.8449 30.9242 8.87016 30.9242 8.90155C30.9242 8.91925 30.9229 8.93172 30.9207 8.93863V8.94854L30.3228 10.6611L30.773 11.9809L31.8613 8.92483C31.8924 8.84 31.9538 8.79736 32.0455 8.79736H33.1038C33.155 8.79736 33.1911 8.80681 33.2127 8.82574C33.234 8.84466 33.2447 8.86995 33.2447 8.90134C33.2447 8.91903 33.2438 8.9315 33.2412 8.93841V8.94832C33.0892 9.34218 32.9334 9.73519 32.7746 10.1269C32.6153 10.5187 32.4559 10.9105 32.2964 11.3021C32.1356 11.6941 31.9768 12.0868 31.8191 12.4792C31.6612 12.8723 31.5072 13.2648 31.3573 13.6563C31.3486 13.6813 31.3287 13.7084 31.2969 13.739C31.2654 13.7691 31.2276 13.7844 31.1827 13.7844H31.1727H30.3598C30.3106 13.7844 30.273 13.7747 30.2474 13.7556C30.2218 13.7366 30.2032 13.7114 30.1918 13.68L29.6613 12.2826C29.5854 12.4868 29.5104 12.6864 29.4365 12.8824C29.3623 13.0783 29.2886 13.2783 29.2149 13.4817C29.2037 13.5133 29.1906 13.5459 29.1759 13.5807C29.1617 13.6156 29.1442 13.6483 29.1239 13.6782C29.1037 13.7084 29.0808 13.7339 29.055 13.7538C29.0296 13.7743 28.9994 13.7844 28.9662 13.7844H28.9561H28.1434C28.0719 13.7848 28.0244 13.7612 28.0021 13.7143Z" fill="#941F7F"/>
<path fill-rule="evenodd" clip-rule="evenodd" d="M23.5856 11.3659L25.0018 9.44388L25.1822 9.1982C25.2179 9.14986 25.2859 9.1392 25.3329 9.17637C25.9918 9.69664 26.4149 10.5026 26.4149 11.4074C26.4149 12.9764 25.1428 14.2483 23.574 14.2483C22.0049 14.2483 20.7329 12.9764 20.7329 11.4074C20.7329 9.83835 22.0049 8.56641 23.574 8.56641C24.0298 8.56641 24.461 8.67388 24.8427 8.86487C24.9016 8.89418 24.9178 8.96926 24.879 9.02208L24.5299 9.49706C24.4986 9.53956 24.4415 9.55325 24.3932 9.53212C24.1425 9.42235 23.8653 9.36148 23.574 9.36148C22.4441 9.36148 21.5281 10.2774 21.5281 11.4073C21.5281 12.5372 22.4441 13.4532 23.574 13.4532C24.7038 13.4532 25.6199 12.5372 25.6199 11.4073C25.6199 11.0662 25.5364 10.7446 25.3887 10.4618L23.735 12.7124C23.6943 12.7678 23.6129 12.772 23.5665 12.721L23.4698 12.6144C23.4688 12.6132 23.4677 12.6121 23.4666 12.6109L22.1272 11.1403C22.09 11.0994 22.0893 11.037 22.1258 10.9953L22.5712 10.4857C22.6132 10.4377 22.6872 10.4359 22.7316 10.4817L23.5856 11.3659Z" fill="url(#paint0_linear_1_5237)"/>
<path d="M33.25 0.691406H1.75C0.904314 0.691406 0.21875 1.37697 0.21875 2.22266V20.5976C0.21875 21.4433 0.904314 22.1289 1.75 22.1289H33.25C34.0957 22.1289 34.7812 21.4433 34.7812 20.5976V2.22266C34.7812 1.37697 34.0957 0.691406 33.25 0.691406Z" stroke="#D8D8D8" stroke-width="0.4375"/>
</g>
</g>
</g>
<defs>
<linearGradient id="paint0_linear_1_5237" x1="24.977" y1="10.0109" x2="22.6078" y2="12.3651" gradientUnits="userSpaceOnUse">
<stop stop-color="#E83762"/>
<stop offset="1" stop-color="#9A1F81"/>
</linearGradient>
<clipPath id="clip0_1_5237">
<rect y="0.410156" width="35" height="22" rx="5" fill="white"/>
</clipPath>
<clipPath id="clip1_1_5237">
<rect width="35" height="22" fill="white" transform="translate(0 0.410156)"/>
</clipPath>
<clipPath id="clip2_1_5237">
<rect width="35" height="21.875" fill="white" transform="translate(0 0.472656)"/>
</clipPath>
</defs>
</svg>
