<svg width="35" height="23" viewBox="0 0 35 23" fill="none" xmlns="http://www.w3.org/2000/svg">
<g clip-path="url(#clip0_1_550)">
<g clip-path="url(#clip1_1_550)">
<g clip-path="url(#clip2_1_550)">
<path d="M33.25 1.25098H1.75C0.904314 1.25098 0.21875 1.93654 0.21875 2.78223V21.1572C0.21875 22.0029 0.904314 22.6885 1.75 22.6885H33.25C34.0957 22.6885 34.7812 22.0029 34.7812 21.1572V2.78223C34.7812 1.93654 34.0957 1.25098 33.25 1.25098Z" fill="white"/>
<path d="M2.60226 9.51144C2.60226 9.46436 2.61484 9.42696 2.63934 9.39878C2.66428 9.37107 2.70112 9.35693 2.75056 9.35693H4.89651C5.05069 9.35693 5.1962 9.37807 5.33292 9.42072C5.46929 9.46336 5.59476 9.52213 5.70897 9.59706C5.82288 9.67209 5.92617 9.7616 6.01813 9.86614C6.10966 9.96989 6.18747 10.0824 6.25126 10.2036C6.31493 10.3242 6.3638 10.4515 6.39742 10.5846C6.43105 10.7176 6.44776 10.8527 6.44776 10.9892C6.44776 11.1909 6.41112 11.3878 6.33876 11.5805C6.26585 11.773 6.16209 11.9444 6.02804 12.0943C5.89366 12.2441 5.73236 12.3658 5.54454 12.4584C5.35606 12.5516 5.14799 12.5993 4.91966 12.6013H3.90223V14.2C3.90223 14.2962 3.8508 14.344 3.74784 14.344H2.75056C2.70547 14.344 2.66973 14.3323 2.64291 14.3092C2.61596 14.2855 2.60226 14.249 2.60226 14.2V9.51144ZM5.13141 10.9823C5.13141 10.9151 5.11973 10.8479 5.09612 10.7808C5.07241 10.7138 5.03868 10.6537 4.99381 10.6012C4.94906 10.5487 4.89461 10.5056 4.83093 10.4719C4.76693 10.4385 4.69478 10.4214 4.61428 10.4214H3.90236V11.5432H4.61428C4.69478 11.5432 4.76736 11.5269 4.83249 11.4945C4.89739 11.462 4.95195 11.4203 4.99537 11.3688C5.03901 11.3171 5.07241 11.258 5.09623 11.1908C5.11973 11.1235 5.13141 11.0542 5.13141 10.9823Z" fill="#941F7F"/>
<path d="M8.43601 9.48823C8.43802 9.47498 8.44526 9.46052 8.45773 9.44459C8.46998 9.42889 8.48545 9.41443 8.50314 9.40095C8.52084 9.38726 8.54022 9.37702 8.56048 9.3691C8.5803 9.36132 8.59944 9.35742 8.61716 9.35742H9.47726C9.51512 9.35742 9.54752 9.3691 9.57469 9.3926C9.6014 9.4162 9.62133 9.43681 9.6348 9.45494L9.71863 9.64619L11.4819 14.1935C11.5 14.2384 11.4963 14.2744 11.4717 14.3026C11.4474 14.3304 11.4048 14.3446 11.3442 14.3446H10.3807C10.3288 14.3446 10.2892 14.3351 10.2615 14.3162C10.2333 14.2967 10.2113 14.2651 10.1959 14.2202C10.151 14.1062 10.1074 13.9926 10.065 13.8794C10.0221 13.7663 9.97946 13.6531 9.93705 13.5386H8.15369C8.11127 13.6531 8.06818 13.7664 8.02454 13.8794C7.9809 13.9925 7.93783 14.1061 7.89519 14.2202C7.8659 14.3032 7.80936 14.3446 7.72409 14.3446H6.73326C6.69062 14.3446 6.65567 14.3332 6.62749 14.3111C6.59945 14.2886 6.5942 14.2549 6.61257 14.21L8.43601 9.48823ZM9.04733 10.9257C9.00467 11.0399 8.96149 11.163 8.91785 11.295C8.87421 11.4272 8.83112 11.5604 8.78848 11.6945C8.74628 11.8291 8.7031 11.9616 8.65946 12.0926C8.61582 12.2238 8.57273 12.3462 8.53009 12.4605H9.56111L9.04733 10.9257Z" fill="#941F7F"/>
<path d="M12.9713 11.1977L13.7824 9.46128C13.7956 9.43458 13.807 9.41497 13.8158 9.40272C13.825 9.39026 13.8338 9.38135 13.8427 9.37558C13.8516 9.37011 13.8613 9.36676 13.8711 9.36567C13.8813 9.36466 13.893 9.3621 13.9065 9.35742H15.1993C15.2154 9.35742 15.2282 9.36265 15.2383 9.37256C15.2482 9.38258 15.2532 9.3945 15.2532 9.40773C15.2532 9.43234 15.2375 9.46063 15.2066 9.49158L13.6146 12.3093V14.1869C13.6146 14.2918 13.5632 14.3445 13.4604 14.3445H12.4552C12.4106 14.3445 12.3764 14.3303 12.3515 14.3025C12.327 14.2742 12.3146 14.2359 12.3146 14.1869V12.3028L10.7262 9.49158C10.6971 9.46262 10.6826 9.43468 10.6826 9.40773C10.6826 9.3945 10.6872 9.38258 10.696 9.37256C10.705 9.36265 10.7172 9.35742 10.733 9.35742H12.0261C12.0415 9.3621 12.0539 9.36466 12.0627 9.36567C12.0719 9.36676 12.0807 9.37011 12.0898 9.37558C12.0987 9.38135 12.1075 9.39026 12.1165 9.40272C12.1257 9.41497 12.1379 9.43468 12.1535 9.46128L12.9713 11.1977Z" fill="#941F7F"/>
<path d="M15.7236 9.50466C15.7236 9.46436 15.7359 9.42962 15.7605 9.40068C15.785 9.37128 15.8222 9.35704 15.8712 9.35704H16.9697C17.0007 9.35704 17.0334 9.36483 17.067 9.38019C17.1006 9.39622 17.1296 9.42306 17.1543 9.46102C17.4386 9.91991 17.7206 10.372 18.0005 10.8177C18.2805 11.2633 18.5638 11.7156 18.8502 12.1745V9.4844C18.8591 9.44419 18.8767 9.41247 18.9039 9.39032C18.9308 9.36805 18.9624 9.35693 18.9977 9.35693H19.9548C20.0023 9.35693 20.0415 9.3694 20.0728 9.39532C20.1041 9.42116 20.1197 9.45756 20.1197 9.50455V14.2129C20.1197 14.2578 20.1064 14.2905 20.0794 14.312C20.0524 14.3334 20.0157 14.3442 19.9687 14.3442H18.8973C18.8681 14.3442 18.8426 14.3339 18.8202 14.3136C18.7977 14.2936 18.7742 14.2669 18.7498 14.2332C18.4516 13.7406 18.1575 13.2536 17.8662 12.7722C17.5755 12.291 17.2799 11.8039 16.9798 11.3113V14.1961C16.9798 14.2453 16.9686 14.2824 16.946 14.3071C16.9237 14.3317 16.8833 14.3442 16.8253 14.3442H15.8715C15.82 14.3442 15.7826 14.3302 15.759 14.3018C15.7355 14.2739 15.7239 14.2398 15.7239 14.1997L15.7236 9.50466Z" fill="#941F7F"/>
<path d="M28.0022 14.2738C27.9797 14.2358 27.9584 14.1964 27.9385 14.1564C27.9186 14.1158 27.9005 14.0754 27.8849 14.0354C27.5957 13.274 27.3083 12.5196 27.0217 11.7717C26.7352 11.0238 26.4475 10.2695 26.1581 9.50822C26.1581 9.49687 26.1566 9.48707 26.1535 9.47795C26.15 9.46891 26.1485 9.46012 26.1485 9.45122C26.1485 9.38854 26.1898 9.35715 26.2727 9.35715H27.3542C27.4396 9.35715 27.4971 9.39979 27.5288 9.48462L28.5563 12.544L29.5067 9.48462C29.538 9.39979 29.5995 9.35715 29.6914 9.35715H30.7834C30.8343 9.35715 30.8711 9.3666 30.8921 9.38552C30.9135 9.40447 30.9242 9.42973 30.9242 9.46112C30.9242 9.47882 30.9229 9.49129 30.9207 9.4982V9.50811L30.3229 11.2207L30.7731 12.5404L31.8614 9.4844C31.8924 9.39957 31.9539 9.35693 32.0456 9.35693H33.1039C33.1551 9.35693 33.1912 9.36638 33.2128 9.38531C33.234 9.40423 33.2447 9.42952 33.2447 9.46091C33.2447 9.4786 33.2439 9.49107 33.2412 9.49798V9.50789C33.0892 9.90175 32.9335 10.2948 32.7747 10.6865C32.6154 11.0783 32.4559 11.47 32.2965 11.8617C32.1357 12.2537 31.9769 12.6463 31.8192 13.0388C31.6612 13.4319 31.5072 13.8244 31.3574 14.2158C31.3486 14.2409 31.3287 14.2679 31.297 14.2985C31.2655 14.3287 31.2277 14.344 31.1828 14.344H31.1727H30.3599C30.3107 14.344 30.273 14.3343 30.2474 14.3151C30.2218 14.2962 30.2032 14.2709 30.1919 14.2395L29.6614 12.8421C29.5855 13.0463 29.5105 13.2459 29.4365 13.442C29.3624 13.6379 29.2887 13.8379 29.2149 14.0413C29.2038 14.0729 29.1907 14.1055 29.176 14.1402C29.1618 14.1752 29.1443 14.2079 29.1239 14.2377C29.1038 14.2679 29.0808 14.2934 29.055 14.3133C29.0297 14.3338 28.9995 14.344 28.9662 14.344H28.9562H28.1435C28.072 14.3444 28.0245 14.3208 28.0022 14.2738Z" fill="#941F7F"/>
<path fill-rule="evenodd" clip-rule="evenodd" d="M23.5854 11.9255L25.0016 10.0034L25.1821 9.75777C25.2177 9.70943 25.2858 9.69877 25.3328 9.73594C25.9917 10.2562 26.4147 11.0622 26.4147 11.9669C26.4147 13.536 25.1427 14.8079 23.5738 14.8079C22.0047 14.8079 20.7328 13.536 20.7328 11.9669C20.7328 10.3979 22.0047 9.12598 23.5738 9.12598C24.0297 9.12598 24.4608 9.23345 24.8426 9.42444C24.9014 9.45375 24.9176 9.52883 24.8789 9.58165L24.5298 10.0566C24.4985 10.0991 24.4414 10.1128 24.393 10.0917C24.1423 9.98192 23.8652 9.92105 23.5738 9.92105C22.444 9.92105 21.528 10.837 21.528 11.9669C21.528 13.0968 22.444 14.0128 23.5738 14.0128C24.7037 14.0128 25.6198 13.0968 25.6198 11.9669C25.6198 11.6258 25.5362 11.3041 25.3886 11.0213L23.7348 13.2719C23.6941 13.3274 23.6128 13.3316 23.5664 13.2806L23.4697 13.1739C23.4686 13.1728 23.4675 13.1717 23.4664 13.1705L22.127 11.6998C22.0898 11.6589 22.0892 11.5966 22.1257 11.5549L22.5711 11.0453C22.6131 10.9973 22.687 10.9954 22.7314 11.0413L23.5854 11.9255Z" fill="url(#paint0_linear_1_550)"/>
<path d="M33.25 1.25098H1.75C0.904314 1.25098 0.21875 1.93654 0.21875 2.78223V21.1572C0.21875 22.0029 0.904314 22.6885 1.75 22.6885H33.25C34.0957 22.6885 34.7812 22.0029 34.7812 21.1572V2.78223C34.7812 1.93654 34.0957 1.25098 33.25 1.25098Z" stroke="#D8D8D8" stroke-width="0.4375"/>
</g>
</g>
</g>
<defs>
<linearGradient id="paint0_linear_1_550" x1="24.9769" y1="10.5705" x2="22.6076" y2="12.9246" gradientUnits="userSpaceOnUse">
<stop stop-color="#E83762"/>
<stop offset="1" stop-color="#9A1F81"/>
</linearGradient>
<clipPath id="clip0_1_550">
<rect y="0.969727" width="35" height="22" rx="5" fill="white"/>
</clipPath>
<clipPath id="clip1_1_550">
<rect width="35" height="22" fill="white" transform="translate(0 0.969727)"/>
</clipPath>
<clipPath id="clip2_1_550">
<rect width="35" height="21.875" fill="white" transform="translate(0 1.03223)"/>
</clipPath>
</defs>
</svg>
