<svg width="35" height="23" viewBox="0 0 35 23" fill="none" xmlns="http://www.w3.org/2000/svg">
<g clip-path="url(#clip0_1_2335)">
<g clip-path="url(#clip1_1_2335)">
<g clip-path="url(#clip2_1_2335)">
<path d="M33.25 0.76123H1.75C0.904314 0.76123 0.21875 1.44679 0.21875 2.29248V20.6675C0.21875 21.5131 0.904314 22.1987 1.75 22.1987H33.25C34.0957 22.1987 34.7812 21.5131 34.7812 20.6675V2.29248C34.7812 1.44679 34.0957 0.76123 33.25 0.76123Z" fill="white"/>
<path d="M2.60229 9.02169C2.60229 8.97462 2.61487 8.93721 2.63937 8.90904C2.66431 8.88132 2.70115 8.86719 2.75059 8.86719H4.89655C5.05072 8.86719 5.19623 8.88832 5.33295 8.93098C5.46932 8.97361 5.59479 9.03239 5.709 9.10731C5.82291 9.18234 5.9262 9.27185 6.01816 9.37639C6.10969 9.48015 6.1875 9.59269 6.25129 9.71382C6.31496 9.8345 6.36383 9.96175 6.39745 10.0949C6.43108 10.2278 6.44779 10.363 6.44779 10.4995C6.44779 10.7012 6.41115 10.898 6.33879 11.0907C6.26588 11.2832 6.16212 11.4546 6.02807 11.6045C5.89369 11.7544 5.73239 11.876 5.54457 11.9686C5.35609 12.0618 5.14802 12.1096 4.91969 12.1116H3.90226V13.7103C3.90226 13.8065 3.85083 13.8542 3.74787 13.8542H2.75059C2.7055 13.8542 2.66976 13.8425 2.64294 13.8195C2.61599 13.7958 2.60229 13.7592 2.60229 13.7103V9.02169ZM5.13144 10.4926C5.13144 10.4253 5.11976 10.3582 5.09615 10.2911C5.07244 10.2241 5.03871 10.1639 4.99384 10.1115C4.94909 10.0589 4.89464 10.0159 4.83096 9.98213C4.76696 9.94873 4.69481 9.93169 4.61431 9.93169H3.90239V11.0534H4.61431C4.69481 11.0534 4.76739 11.0372 4.83252 11.0048C4.89742 10.9723 4.95198 10.9305 4.9954 10.8791C5.03904 10.8273 5.07244 10.7682 5.09626 10.7011C5.11976 10.6337 5.13144 10.5645 5.13144 10.4926Z" fill="#941F7F"/>
<path d="M8.43601 8.99849C8.43802 8.98523 8.44526 8.97077 8.45773 8.95485C8.46998 8.93914 8.48545 8.92468 8.50314 8.91121C8.52084 8.89751 8.54022 8.88728 8.56048 8.87936C8.5803 8.87157 8.59944 8.86768 8.61716 8.86768H9.47726C9.51512 8.86768 9.54752 8.87936 9.57469 8.90285C9.6014 8.92645 9.62133 8.94706 9.6348 8.96519L9.71863 9.15645L11.4819 13.7038C11.5 13.7486 11.4963 13.7847 11.4717 13.8128C11.4474 13.8407 11.4048 13.8548 11.3442 13.8548H10.3807C10.3288 13.8548 10.2892 13.8454 10.2615 13.8264C10.2333 13.807 10.2113 13.7753 10.1959 13.7305C10.151 13.6165 10.1074 13.5028 10.065 13.3897C10.0221 13.2766 9.97946 13.1634 9.93705 13.0488H8.15369C8.11127 13.1634 8.06818 13.2767 8.02454 13.3897C7.9809 13.5027 7.93783 13.6164 7.89519 13.7305C7.8659 13.8134 7.80936 13.8548 7.72409 13.8548H6.73326C6.69062 13.8548 6.65567 13.8435 6.62749 13.8213C6.59945 13.7988 6.5942 13.7652 6.61257 13.7202L8.43601 8.99849ZM9.04733 10.4359C9.00467 10.5502 8.96149 10.6733 8.91785 10.8052C8.87421 10.9375 8.83112 11.0706 8.78848 11.2048C8.74628 11.3394 8.7031 11.4719 8.65946 11.6029C8.61582 11.734 8.57273 11.8565 8.53009 11.9707H9.56111L9.04733 10.4359Z" fill="#941F7F"/>
<path d="M12.9714 10.7079L13.7824 8.97154C13.7957 8.94483 13.807 8.92523 13.8158 8.91298C13.8251 8.90051 13.8339 8.89161 13.8428 8.88583C13.8517 8.88036 13.8614 8.87702 13.8712 8.87592C13.8814 8.87492 13.8931 8.87236 13.9066 8.86768H15.1994C15.2154 8.86768 15.2282 8.8729 15.2384 8.88281C15.2483 8.89283 15.2533 8.90475 15.2533 8.91799C15.2533 8.9426 15.2376 8.97088 15.2067 9.00184L13.6147 11.8195V13.6972C13.6147 13.8021 13.5632 13.8547 13.4605 13.8547H12.4553C12.4106 13.8547 12.3765 13.8406 12.3515 13.8127C12.327 13.7845 12.3147 13.7462 12.3147 13.6972V11.8131L10.7263 9.00184C10.6972 8.97287 10.6826 8.94494 10.6826 8.91799C10.6826 8.90475 10.6873 8.89283 10.6961 8.88281C10.7051 8.8729 10.7172 8.86768 10.733 8.86768H12.0261C12.0416 8.87236 12.0539 8.87492 12.0627 8.87592C12.072 8.87702 12.0808 8.88036 12.0899 8.88583C12.0988 8.89161 12.1076 8.90051 12.1165 8.91298C12.1258 8.92523 12.138 8.94494 12.1536 8.97154L12.9714 10.7079Z" fill="#941F7F"/>
<path d="M15.7236 9.01491C15.7236 8.97462 15.7359 8.93988 15.7605 8.91094C15.785 8.88154 15.8222 8.8673 15.8712 8.8673H16.9697C17.0007 8.8673 17.0334 8.87508 17.067 8.89044C17.1006 8.90648 17.1296 8.93332 17.1543 8.97127C17.4386 9.43016 17.7206 9.88225 18.0005 10.3279C18.2805 10.7736 18.5638 11.2259 18.8502 11.6848V8.99465C18.8591 8.95445 18.8767 8.92273 18.9039 8.90057C18.9308 8.8783 18.9624 8.86719 18.9977 8.86719H19.9548C20.0023 8.86719 20.0415 8.87966 20.0728 8.90558C20.1041 8.93141 20.1197 8.96781 20.1197 9.0148V13.7232C20.1197 13.768 20.1064 13.8008 20.0794 13.8223C20.0524 13.8436 20.0157 13.8544 19.9687 13.8544H18.8973C18.8681 13.8544 18.8426 13.8442 18.8202 13.8238C18.7977 13.8039 18.7742 13.7772 18.7498 13.7435C18.4516 13.2508 18.1575 12.7639 17.8662 12.2825C17.5755 11.8012 17.2799 11.3142 16.9798 10.8215V13.7064C16.9798 13.7556 16.9686 13.7927 16.946 13.8174C16.9237 13.842 16.8833 13.8544 16.8253 13.8544H15.8715C15.82 13.8544 15.7826 13.8404 15.759 13.812C15.7355 13.7842 15.7239 13.75 15.7239 13.7099L15.7236 9.01491Z" fill="#941F7F"/>
<path d="M28.0021 13.7841C27.9796 13.746 27.9584 13.7067 27.9385 13.6666C27.9186 13.626 27.9004 13.5857 27.8849 13.5456C27.5957 12.7843 27.3082 12.0299 27.0217 11.282C26.7351 10.5341 26.4475 9.77973 26.1581 9.01848C26.1581 9.00712 26.1565 8.99732 26.1535 8.9882C26.15 8.97917 26.1484 8.97037 26.1484 8.96147C26.1484 8.8988 26.1898 8.86741 26.2727 8.86741H27.3542C27.4395 8.86741 27.497 8.91004 27.5287 8.99487L28.5562 12.0543L29.5067 8.99487C29.538 8.91004 29.5994 8.86741 29.6913 8.86741H30.7833C30.8343 8.86741 30.871 8.87686 30.892 8.89578C30.9135 8.91472 30.9242 8.93999 30.9242 8.97138C30.9242 8.98908 30.9229 9.00154 30.9207 9.00846V9.01837L30.3228 10.7309L30.773 12.0507L31.8613 8.99465C31.8924 8.90982 31.9538 8.86719 32.0455 8.86719H33.1038C33.155 8.86719 33.1911 8.87664 33.2127 8.89556C33.234 8.91448 33.2447 8.93977 33.2447 8.97116C33.2447 8.98886 33.2438 9.00133 33.2412 9.00824V9.01815C33.0892 9.41201 32.9334 9.80501 32.7746 10.1968C32.6153 10.5885 32.4559 10.9803 32.2964 11.3719C32.1356 11.7639 31.9768 12.1566 31.8191 12.549C31.6612 12.9421 31.5072 13.3347 31.3573 13.7261C31.3486 13.7511 31.3287 13.7782 31.2969 13.8088C31.2654 13.839 31.2276 13.8542 31.1827 13.8542H31.1727H30.3598C30.3106 13.8542 30.273 13.8445 30.2474 13.8254C30.2218 13.8065 30.2032 13.7812 30.1918 13.7498L29.6613 12.3524C29.5854 12.5566 29.5104 12.7562 29.4365 12.9522C29.3623 13.1482 29.2886 13.3481 29.2149 13.5515C29.2037 13.5831 29.1906 13.6157 29.1759 13.6505C29.1617 13.6854 29.1442 13.7182 29.1239 13.748C29.1037 13.7782 29.0808 13.8037 29.055 13.8236C29.0296 13.8441 28.9994 13.8542 28.9662 13.8542H28.9561H28.1434C28.0719 13.8547 28.0244 13.8311 28.0021 13.7841Z" fill="#941F7F"/>
<path fill-rule="evenodd" clip-rule="evenodd" d="M23.5853 11.4357L25.0015 9.5137L25.182 9.26802C25.2176 9.21968 25.2857 9.20903 25.3327 9.24619C25.9916 9.76647 26.4146 10.5724 26.4146 11.4772C26.4146 13.0462 25.1426 14.3181 23.5737 14.3181C22.0046 14.3181 20.7327 13.0462 20.7327 11.4772C20.7327 9.90817 22.0046 8.63623 23.5737 8.63623C24.0296 8.63623 24.4608 8.7437 24.8425 8.93469C24.9013 8.96401 24.9175 9.03908 24.8788 9.09191L24.5297 9.56688C24.4984 9.60938 24.4413 9.62308 24.3929 9.60195C24.1423 9.49218 23.8651 9.4313 23.5737 9.4313C22.4439 9.4313 21.5279 10.3472 21.5279 11.4772C21.5279 12.6071 22.4439 13.523 23.5737 13.523C24.7036 13.523 25.6197 12.6071 25.6197 11.4772C25.6197 11.136 25.5361 10.8144 25.3885 10.5316L23.7347 12.7822C23.694 12.8377 23.6127 12.8419 23.5663 12.7909L23.4696 12.6842C23.4685 12.6831 23.4674 12.6819 23.4663 12.6807L22.1269 11.2101C22.0897 11.1692 22.0891 11.1068 22.1256 11.0652L22.571 10.5555C22.613 10.5075 22.6869 10.5057 22.7313 10.5515L23.5853 11.4357Z" fill="url(#paint0_linear_1_2335)"/>
<path d="M33.25 0.76123H1.75C0.904314 0.76123 0.21875 1.44679 0.21875 2.29248V20.6675C0.21875 21.5131 0.904314 22.1987 1.75 22.1987H33.25C34.0957 22.1987 34.7812 21.5131 34.7812 20.6675V2.29248C34.7812 1.44679 34.0957 0.76123 33.25 0.76123Z" stroke="#D8D8D8" stroke-width="0.4375"/>
</g>
</g>
</g>
<defs>
<linearGradient id="paint0_linear_1_2335" x1="24.9768" y1="10.0808" x2="22.6075" y2="12.4349" gradientUnits="userSpaceOnUse">
<stop stop-color="#E83762"/>
<stop offset="1" stop-color="#9A1F81"/>
</linearGradient>
<clipPath id="clip0_1_2335">
<rect y="0.47998" width="35" height="22" rx="5" fill="white"/>
</clipPath>
<clipPath id="clip1_1_2335">
<rect width="35" height="22" fill="white" transform="translate(0 0.47998)"/>
</clipPath>
<clipPath id="clip2_1_2335">
<rect width="35" height="21.875" fill="white" transform="translate(0 0.54248)"/>
</clipPath>
</defs>
</svg>
