<svg width="25" height="25" viewBox="0 0 25 25" fill="none" xmlns="http://www.w3.org/2000/svg">
<path d="M19.61 18.7704V12.7674C19.61 12.2249 18.9965 11.9095 18.5553 12.2253L16.235 13.8861" stroke="#1F1E1E" stroke-width="1.8" stroke-linecap="round"/>
<path d="M4.61 18.7704L4.60999 12.7674C4.60999 12.2249 5.2235 11.9095 5.66468 12.2253L7.98499 13.8861" stroke="#1F1E1E" stroke-width="1.8" stroke-linecap="round"/>
<path d="M3.85999 21.8869C3.85999 21.5187 4.15847 21.2202 4.52666 21.2202H19.6933C20.0615 21.2202 20.36 21.5187 20.36 21.8869V22.0535C20.36 22.4217 20.0615 22.7202 19.6933 22.7202H4.52666C4.15847 22.7202 3.85999 22.4217 3.85999 22.0535V21.8869Z" fill="#1F1E1E"/>
<path d="M5.11488 19.4376C5.11481 19.4378 5.11496 19.4375 5.11488 19.4376ZM5.11488 19.4376L4.77905 19.2203M5.51431 18.8203L12.11 8.62695L18.7057 18.8203H5.51431Z" stroke="#1F1E1E" stroke-width="1.8"/>
<path d="M11.8692 2.72685C11.9656 2.52399 12.2544 2.52399 12.3508 2.72685L12.9099 3.90251C12.9488 3.98426 13.0265 4.0407 13.1162 4.05241L14.4071 4.22085C14.6299 4.24992 14.7191 4.52449 14.556 4.67892L13.6106 5.57397C13.5449 5.6362 13.5152 5.72752 13.5318 5.81651L13.7705 7.09628C13.8117 7.31709 13.5782 7.48679 13.3809 7.37938L12.2375 6.75688C12.158 6.7136 12.062 6.7136 11.9825 6.75688L10.8391 7.37938C10.6418 7.48679 10.4083 7.31709 10.4495 7.09628L10.6882 5.81651C10.7048 5.72752 10.6751 5.6362 10.6094 5.57397L9.66402 4.67892C9.5009 4.52449 9.59012 4.24992 9.81285 4.22085L11.1038 4.05241C11.1935 4.0407 11.2712 3.98426 11.3101 3.90251L11.8692 2.72685Z" fill="#1F1E1E"/>
</svg>
