<svg width="20" height="25" viewBox="0 0 20 25" fill="none" xmlns="http://www.w3.org/2000/svg">
<path d="M19.08 18.055C18.7057 19.2373 18.1617 20.359 17.465 21.385C16.495 22.8 15.465 24.225 13.9 24.25C12.335 24.275 11.835 23.32 10.05 23.32C8.26503 23.32 7.70503 24.225 6.23003 24.28C4.75503 24.335 3.52503 22.735 2.55003 21.325C0.550027 18.435 -0.984973 13.145 1.05003 9.59497C1.5304 8.72909 2.22788 8.00315 3.07387 7.48854C3.91986 6.97393 4.88523 6.68838 5.87503 6.65997C7.37503 6.62997 8.79503 7.65997 9.70503 7.65997C10.615 7.65997 12.36 6.39997 14.205 6.58497C15.0439 6.61855 15.864 6.84374 16.6024 7.24328C17.3408 7.64282 17.978 8.2061 18.465 8.88997C18.355 8.96497 15.915 10.39 15.965 13.335C15.9666 14.3407 16.2649 15.3236 16.8225 16.1605C17.3802 16.9975 18.1725 17.6513 19.1 18.04M13 4.70997C13.8829 3.6719 14.3244 2.32946 14.23 0.969971C12.8985 1.0961 11.6667 1.72992 10.79 2.73997C10.3531 3.22807 10.0193 3.79948 9.8088 4.41985C9.59828 5.04022 9.51536 5.69674 9.56503 6.34997C10.2232 6.34731 10.8726 6.19887 11.4665 5.9153C12.0604 5.63173 12.5842 5.22009 13 4.70997Z" fill="white"/>
</svg>
